<svg width="1431" height="575" viewBox="0 0 1431 575" fill="none" xmlns="http://www.w3.org/2000/svg">
<g clip-path="url(#clip0_142_1478)">
<path d="M324.101 154.506C308.141 199.446 598.241 185.586 598.241 185.586V52.7463C598.241 52.7463 346.121 59.4063 324.101 154.506ZM787.241 52.7463H630.521L627.701 185.586C627.701 185.586 911.021 183.066 921.701 183.066C932.381 183.066 863.261 52.7463 787.241 52.7463Z" stroke="#1D1D1B" stroke-width="1.5" stroke-miterlimit="10"/>
<path d="M1412.68 367.807C1408.36 367.807 1404.4 366.187 1401.4 363.547C1398.4 360.847 1396.3 357.127 1395.64 352.867C1390.96 323.047 1372.36 296.107 1343.38 272.587C1342.36 271.747 1341.22 271.027 1340.08 270.427L1226.02 212.647C1225.18 212.227 1224.28 211.867 1223.38 211.567C1153 188.287 1067.08 174.907 977.861 173.767C970.721 173.707 964.661 169.147 961.901 162.547C937.541 104.587 895.481 67.3273 850.121 43.3273C765.221 -1.61267 668.621 0.00732607 654.641 0.00732607C653.921 0.00732607 647.141 0.0673261 646.421 0.0673261C542.921 0.187326 456.881 16.9873 385.541 43.3273C236.801 98.1673 152.021 194.587 106.181 267.847H111.761L78.821 321.787L69.761 336.547L69.641 336.847C66.641 343.927 64.241 349.867 62.441 354.607C60.641 359.407 56.741 363.067 51.881 364.867C5.62105 381.667 -2.35895 401.647 0.521048 416.827C1.84105 423.667 5.32105 429.487 8.50105 433.687C11.801 438.007 17.021 440.407 22.481 440.287L29.861 440.167L109.661 438.487C110.081 438.487 110.441 438.487 110.861 438.427C118.361 437.527 124.301 431.947 125.741 424.567C125.861 423.967 125.921 423.367 125.981 422.767C126.161 420.787 126.341 418.807 126.521 416.827C127.361 410.227 128.441 403.987 129.941 397.987C130.361 396.367 130.781 394.747 131.201 393.187C132.041 389.947 133.001 386.827 134.081 383.827C136.181 377.827 138.581 372.127 141.281 366.787C142.601 364.087 144.041 361.507 145.541 358.987C146.801 356.887 148.061 354.847 149.381 352.867C155.021 344.407 161.381 336.847 168.281 330.247C169.481 329.047 170.681 327.907 171.941 326.767C173.381 325.387 174.941 324.067 176.441 322.867C177.941 321.607 179.441 320.347 181.001 319.147C182.561 317.947 184.121 316.747 185.681 315.667C187.241 314.527 188.801 313.447 190.421 312.367C193.601 310.147 196.901 308.167 200.141 306.247C201.161 305.647 202.181 305.107 203.201 304.567C203.981 304.087 204.821 303.607 205.601 303.247C206.921 302.527 208.301 301.807 209.621 301.147C213.041 299.347 216.461 297.727 219.881 296.287C221.741 295.447 223.541 294.667 225.401 293.947C230.861 291.727 236.141 289.807 241.181 288.247C245.201 286.987 248.981 285.847 252.581 284.887C253.481 284.647 254.381 284.407 255.221 284.227C256.121 283.987 256.961 283.807 257.801 283.567C259.481 283.207 261.101 282.787 262.661 282.487C263.441 282.307 264.161 282.127 264.881 282.007C267.101 281.527 269.141 281.167 270.941 280.807C271.061 280.807 271.121 280.747 271.241 280.747C272.981 280.447 274.541 280.207 275.861 280.027C276.761 279.847 277.601 279.787 278.321 279.667C278.501 279.667 278.621 279.607 278.801 279.607C279.761 279.487 280.481 279.367 281.021 279.307C281.801 279.247 282.461 279.187 283.241 279.187C283.601 279.187 284.021 279.187 284.381 279.247H285.521C287.441 279.247 289.301 279.307 291.161 279.367C294.881 279.487 298.541 279.727 302.141 280.027C305.741 280.327 309.221 280.747 312.641 281.227C314.321 281.407 315.941 281.587 317.501 281.887C319.241 282.187 320.981 282.487 322.661 282.787C325.961 283.387 329.141 284.047 332.261 284.887C340.001 286.747 347.321 289.087 354.161 291.787C355.541 292.327 356.921 292.867 358.241 293.467C363.641 295.747 368.681 298.267 373.481 301.027C375.161 301.987 376.781 302.947 378.401 303.967C379.901 304.927 381.401 305.827 382.841 306.847C385.721 308.767 388.541 310.867 391.241 312.967C392.561 313.987 393.881 315.067 395.141 316.147C396.401 317.227 397.661 318.307 398.921 319.447C400.181 320.527 401.381 321.667 402.521 322.807C403.421 323.647 404.261 324.487 405.101 325.327C406.241 326.527 407.381 327.667 408.461 328.867C409.601 330.067 410.681 331.267 411.701 332.467C416.021 337.507 419.981 342.727 423.581 348.067C423.881 348.487 424.181 348.847 424.361 349.207C424.421 349.267 424.481 349.327 424.421 349.387C425.321 350.647 426.161 351.907 426.941 353.227C427.661 354.367 428.321 355.447 428.981 356.587C429.281 357.067 429.521 357.607 429.881 358.087C431.741 361.327 433.481 364.507 435.101 367.747C435.761 369.127 436.481 370.507 437.141 371.887C437.801 373.267 438.401 374.587 439.001 375.967C439.661 377.347 440.261 378.787 440.801 380.167C441.761 382.387 442.661 384.667 443.501 386.887C444.101 388.447 444.701 389.947 445.241 391.507C446.561 395.287 447.821 399.007 448.961 402.667C449.561 404.827 450.221 406.987 450.761 409.087C451.421 411.187 451.961 413.287 452.441 415.387C452.561 415.867 452.681 416.347 452.801 416.827C453.641 420.547 454.481 424.147 455.141 427.687C456.041 432.007 456.821 436.207 457.421 440.227C457.781 442.387 458.081 444.547 458.321 446.587C458.561 448.027 458.681 449.407 458.861 450.727C459.701 457.387 460.181 463.507 460.481 468.967C460.721 471.907 460.841 474.667 460.901 477.187C461.201 486.487 468.881 493.807 478.181 493.807H799.661C805.481 493.807 811.301 493.327 817.181 492.427C818.201 492.247 819.161 492.127 820.181 491.887C821.681 491.647 823.241 491.347 824.801 490.987C826.961 490.567 829.121 490.027 831.281 489.427C831.341 489.427 831.401 489.427 831.461 489.367C832.901 489.067 834.401 488.647 835.901 488.167C843.401 485.947 851.021 483.067 858.701 479.707C860.741 478.867 862.781 477.907 864.761 476.947C870.341 474.307 875.981 471.427 881.681 468.307C883.361 467.407 885.041 466.447 886.661 465.487C893.321 461.707 900.101 457.567 906.881 453.187C908.561 452.107 910.241 451.027 911.981 449.887C915.761 447.367 919.601 444.787 923.441 442.147C926.741 439.867 930.041 437.527 933.401 435.187C941.741 429.247 950.081 423.127 958.541 416.827C995.561 389.167 1033.84 358.627 1073.26 333.367C1077.76 330.427 1082.26 327.607 1086.76 324.907C1091.62 322.027 1096.42 319.207 1101.28 316.447C1103.56 315.187 1105.84 313.927 1108.12 312.727C1115.14 308.947 1122.22 305.407 1129.3 302.167C1130.74 301.447 1132.24 300.787 1133.74 300.187C1134.04 300.007 1134.4 299.887 1134.7 299.767C1135.78 299.287 1136.92 298.807 1138 298.327C1143.88 295.807 1149.82 293.467 1155.82 291.427C1156.48 291.187 1157.2 290.947 1157.92 290.707C1158.46 290.467 1159.06 290.287 1159.6 290.107C1161.4 289.507 1163.14 288.967 1165 288.427C1166.8 287.827 1168.66 287.287 1170.46 286.807C1172.2 286.327 1173.94 285.847 1175.74 285.427C1177.6 284.947 1179.46 284.467 1181.38 284.047C1190.08 282.067 1198.78 280.627 1207.6 279.907C1209.28 279.727 1211.02 279.607 1212.7 279.547C1216.18 279.307 1219.66 279.187 1223.14 279.187C1225.42 279.187 1227.64 279.247 1229.8 279.307C1231.6 279.307 1233.34 279.427 1235.08 279.487C1238.8 279.727 1242.4 279.967 1245.94 280.387C1247.74 280.567 1249.48 280.807 1251.28 281.047C1253.92 281.407 1256.5 281.767 1259.08 282.247C1259.98 282.427 1260.82 282.607 1261.66 282.727C1263.22 283.027 1264.72 283.327 1266.22 283.687C1267.96 284.047 1269.76 284.467 1271.44 284.947C1274.32 285.667 1277.14 286.447 1279.9 287.347C1281.7 287.887 1283.5 288.487 1285.24 289.147C1286.98 289.747 1288.72 290.407 1290.4 291.067C1293.22 292.207 1295.92 293.347 1298.62 294.607C1308.34 299.107 1317.04 304.447 1324.84 310.387C1326.28 311.467 1327.72 312.607 1329.16 313.807C1330.96 315.247 1332.7 316.747 1334.38 318.247C1335.46 319.267 1336.54 320.287 1337.56 321.247C1338.88 322.507 1340.2 323.827 1341.46 325.147C1343.74 327.487 1345.9 329.887 1347.94 332.287C1349.86 334.447 1351.6 336.667 1353.28 338.887C1354.18 340.087 1355.14 341.347 1356.04 342.607C1361.44 349.927 1366 357.427 1369.72 364.867C1371.1 367.507 1372.42 370.147 1373.62 372.787C1374.28 374.107 1374.88 375.427 1375.36 376.687C1376.5 379.267 1377.58 381.787 1378.54 384.307C1379.14 385.627 1379.62 386.887 1379.98 388.087C1380.94 390.547 1381.78 393.007 1382.56 395.347C1383.7 398.827 1384.72 402.127 1385.56 405.307C1385.86 406.327 1386.1 407.287 1386.34 408.247C1386.64 409.267 1386.88 410.287 1387.12 411.247C1387.6 413.227 1388.08 415.087 1388.44 416.827C1388.92 418.927 1389.28 420.907 1389.64 422.767C1391.2 430.987 1398.28 436.987 1406.68 436.987H1412.68C1422.28 436.987 1430.02 429.247 1430.02 419.707V385.087C1430.02 375.547 1422.28 367.807 1412.68 367.807Z" fill="#C8161E"/>
<path d="M598.181 52.7463V185.586C598.181 185.586 308.081 199.446 324.101 154.506C346.121 59.4063 598.181 52.7463 598.181 52.7463Z" stroke="#1D1D1B" stroke-width="1.5" stroke-miterlimit="10"/>
<path d="M921.641 183.066C910.961 183.066 627.641 185.586 627.641 185.586L630.461 52.7463H787.181C863.201 52.7463 932.441 183.066 921.641 183.066Z" stroke="#1D1D1B" stroke-width="1.5" stroke-miterlimit="10"/>
<path d="M111.761 267.907L69.7612 336.607C77.5012 319.027 89.0812 295.147 106.181 267.907H111.761Z" stroke="#1D1D1B" stroke-width="1.5" stroke-miterlimit="10"/>
<path d="M598.181 52.7463V185.586C598.181 185.586 308.081 199.446 324.101 154.506C346.121 59.4063 598.181 52.7463 598.181 52.7463Z" stroke="#1D1D1B" stroke-width="1.5" stroke-miterlimit="10"/>
<path d="M921.641 183.066C910.961 183.066 627.641 185.586 627.641 185.586L630.461 52.7463H787.181C863.201 52.7463 932.441 183.066 921.641 183.066Z" stroke="#1D1D1B" stroke-width="1.5" stroke-miterlimit="10"/>
<path d="M111.761 267.907L78.8211 321.787L69.7611 336.547L69.5811 336.847V267.907H111.761Z" fill="#9C1C1A"/>
<path d="M598.181 52.7463V185.586C598.181 185.586 308.081 199.446 324.101 154.506C346.121 59.4063 598.181 52.7463 598.181 52.7463Z" fill="#299BAC"/>
<path d="M921.641 183.066C910.961 183.066 627.641 185.586 627.641 185.586L630.461 52.7463H787.181C863.201 52.7463 932.441 183.066 921.641 183.066Z" fill="#299BAC"/>
<path d="M1391.74 436.987V469.147H1365.34C1365.34 469.147 1367.08 445.807 1361.2 416.827C1357.3 397.807 1350.16 376.387 1337.02 357.487C1317.28 329.107 1284.22 306.547 1228.84 306.547C1136.5 306.547 1102.36 369.247 1089.76 416.827C1086.4 429.667 1084.54 441.367 1083.58 450.487C1082.26 461.827 1082.38 469.147 1082.38 469.147L1084.66 493.807H799.661C805.481 493.807 811.301 493.327 817.181 492.427C818.201 492.247 819.161 492.127 820.181 491.887C821.681 491.647 823.241 491.347 824.801 490.987C826.961 490.567 829.121 490.027 831.281 489.427C831.341 489.427 831.401 489.427 831.461 489.367C832.901 489.007 834.401 488.587 835.901 488.167C843.401 485.947 851.021 483.067 858.701 479.707C860.741 478.867 862.781 477.907 864.761 476.947C870.341 474.307 875.981 471.427 881.681 468.307C883.301 467.407 884.981 466.507 886.661 465.487C893.321 461.707 900.101 457.567 906.881 453.187C908.561 452.107 910.241 451.027 911.981 449.887C915.761 447.367 919.601 444.787 923.441 442.147C926.741 439.867 930.101 437.527 933.401 435.187C941.741 429.247 950.081 423.127 958.541 416.827C995.561 389.167 1033.84 358.627 1073.26 333.367C1077.76 330.487 1082.26 327.667 1086.76 324.907C1091.62 322.027 1096.42 319.207 1101.28 316.447C1103.56 315.187 1105.84 313.927 1108.12 312.727C1115.14 308.947 1122.22 305.407 1129.3 302.167C1130.74 301.447 1132.24 300.787 1133.74 300.187C1134.04 300.007 1134.4 299.887 1134.7 299.767C1135.78 299.287 1136.92 298.807 1138 298.327C1143.88 295.807 1149.82 293.467 1155.82 291.427C1156.48 291.187 1157.2 290.947 1157.92 290.707C1158.46 290.467 1159.06 290.287 1159.6 290.107C1161.4 289.507 1163.2 288.967 1165 288.427C1166.8 287.827 1168.6 287.347 1170.46 286.807C1172.2 286.327 1173.94 285.847 1175.74 285.427C1177.6 284.947 1179.46 284.467 1181.38 284.047C1190.08 282.067 1198.78 280.627 1207.6 279.907C1209.28 279.727 1211.02 279.607 1212.7 279.547C1216.18 279.307 1219.66 279.187 1223.14 279.187C1225.42 279.187 1227.64 279.247 1229.8 279.307C1231.6 279.307 1233.34 279.427 1235.08 279.487C1238.8 279.727 1242.4 279.967 1245.94 280.387C1247.74 280.567 1249.48 280.807 1251.28 281.047C1253.92 281.407 1256.5 281.767 1259.08 282.247C1259.98 282.427 1260.82 282.607 1261.66 282.727C1263.22 283.027 1264.72 283.327 1266.22 283.687C1268.02 284.047 1269.76 284.467 1271.44 284.947C1274.32 285.667 1277.14 286.447 1279.9 287.347C1281.7 287.887 1283.5 288.487 1285.24 289.147C1286.98 289.747 1288.72 290.407 1290.4 291.067C1293.22 292.207 1295.92 293.347 1298.62 294.607C1308.34 299.107 1317.04 304.447 1324.84 310.387C1326.28 311.467 1327.72 312.607 1329.16 313.807C1330.96 315.247 1332.7 316.747 1334.38 318.247C1335.46 319.267 1336.54 320.287 1337.56 321.247C1338.88 322.507 1340.2 323.827 1341.46 325.147C1343.74 327.487 1345.9 329.887 1347.94 332.287C1349.8 334.447 1351.54 336.667 1353.28 338.887C1354.18 340.087 1355.14 341.347 1356.04 342.607C1357.54 344.707 1358.98 346.867 1360.36 348.967C1363.84 354.247 1366.96 359.587 1369.72 364.867C1371.1 367.507 1372.36 370.147 1373.62 372.787C1374.22 374.047 1374.82 375.367 1375.36 376.687C1376.5 379.267 1377.58 381.787 1378.54 384.307C1379.08 385.567 1379.5 386.827 1379.98 388.087C1380.88 390.547 1381.78 392.947 1382.56 395.347C1383.7 398.827 1384.72 402.127 1385.56 405.307C1385.86 406.327 1386.1 407.287 1386.34 408.247C1386.64 409.267 1386.88 410.287 1387.12 411.247C1387.6 413.227 1388.08 415.087 1388.44 416.827C1388.92 418.927 1389.28 420.907 1389.64 422.767C1391.32 431.587 1391.74 436.987 1391.74 436.987Z" fill="#F8F8F0"/>
<path d="M460.901 477.966C461.201 486.726 454.121 493.806 445.421 493.806C436.721 493.806 429.521 486.426 429.941 477.606C430.481 466.626 430.541 450.966 428.321 433.686C427.601 428.226 426.701 422.526 425.501 416.826C414.941 366.006 382.601 308.826 291.161 308.826C190.901 308.826 160.541 369.426 152.081 416.826C151.001 422.706 150.281 428.346 149.801 433.686C149.081 442.386 148.961 450.186 149.141 456.486C149.381 465.126 142.361 472.206 133.661 472.206H30.1612C21.5812 472.206 14.6812 465.306 14.6812 456.726V455.646C14.6812 447.186 21.4012 440.346 29.8612 440.166L109.661 438.486H110.861C116.561 433.146 120.101 429.786 125.741 424.566C125.741 424.566 125.921 424.386 125.981 424.326C126.161 421.806 126.401 419.286 126.701 416.826C127.421 410.226 128.561 403.986 129.941 397.986C130.361 396.366 130.781 394.746 131.201 393.186C132.041 389.946 133.001 386.886 134.081 383.826C136.181 377.826 138.581 372.126 141.281 366.786C142.661 364.086 144.041 361.506 145.541 358.986C146.801 356.886 148.061 354.846 149.381 352.866C155.021 344.406 161.381 336.846 168.281 330.246C169.481 329.046 170.681 327.906 171.941 326.766C173.381 325.386 174.941 324.066 176.441 322.866C177.941 321.606 179.441 320.346 181.001 319.146C182.561 317.946 184.121 316.746 185.681 315.666C187.241 314.526 188.801 313.446 190.421 312.366C193.601 310.146 196.901 308.166 200.141 306.246C201.161 305.706 202.181 305.106 203.201 304.566C203.981 304.086 204.821 303.606 205.601 303.246C206.921 302.526 208.301 301.806 209.621 301.146C213.041 299.346 216.461 297.726 219.881 296.286C221.741 295.446 223.541 294.666 225.401 293.946C230.861 291.726 236.141 289.806 241.181 288.246C245.201 286.926 248.981 285.786 252.581 284.886C253.481 284.646 254.381 284.406 255.221 284.226C256.121 283.986 256.961 283.806 257.801 283.566C259.481 283.206 261.101 282.786 262.661 282.486C263.441 282.306 264.161 282.126 264.881 282.006C267.101 281.526 269.081 281.106 270.941 280.806C271.061 280.806 271.121 280.746 271.241 280.746C272.981 280.446 274.541 280.206 275.861 280.026C276.761 279.846 277.601 279.786 278.321 279.666C278.501 279.666 278.621 279.606 278.801 279.606C280.661 279.366 282.521 279.246 284.381 279.246H285.521C287.441 279.246 289.301 279.306 291.161 279.366C294.941 279.546 298.601 279.726 302.141 280.026C305.741 280.326 309.221 280.746 312.641 281.226C314.261 281.406 315.881 281.646 317.501 281.886C319.241 282.186 320.981 282.486 322.661 282.786C325.961 283.446 329.141 284.106 332.261 284.886C340.001 286.746 347.321 289.086 354.161 291.786C355.541 292.326 356.921 292.866 358.241 293.466C363.641 295.746 368.681 298.266 373.481 301.026C375.161 301.986 376.781 302.946 378.401 303.966C379.901 304.926 381.401 305.826 382.841 306.846C385.721 308.766 388.541 310.866 391.241 312.966C392.561 313.986 393.881 315.066 395.141 316.146C396.401 317.226 397.661 318.306 398.921 319.446C400.181 320.526 401.381 321.666 402.521 322.806C403.421 323.646 404.261 324.486 405.101 325.326C406.241 326.526 407.381 327.666 408.461 328.866C409.601 330.066 410.681 331.266 411.701 332.466C416.021 337.506 419.981 342.726 423.581 348.066C423.881 348.426 424.121 348.846 424.361 349.206C424.421 349.266 424.481 349.326 424.421 349.386C425.321 350.646 426.161 351.906 426.941 353.226C427.661 354.366 428.321 355.446 428.981 356.586C429.281 357.066 429.521 357.606 429.881 358.086C431.741 361.326 433.481 364.506 435.101 367.746C435.761 369.126 436.481 370.506 437.141 371.886C437.801 373.266 438.401 374.586 439.001 375.966C439.661 377.346 440.261 378.786 440.801 380.166C441.761 382.386 442.661 384.666 443.501 386.886C444.101 388.446 444.701 389.946 445.241 391.506C446.561 395.286 447.821 399.006 448.961 402.666C449.561 404.826 450.221 406.986 450.761 409.086C451.361 411.186 451.901 413.286 452.441 415.386C452.561 415.866 452.681 416.346 452.801 416.826C453.641 420.546 454.481 424.146 455.141 427.686C455.561 429.726 455.921 431.706 456.281 433.686C456.701 435.906 457.061 438.066 457.421 440.226C457.721 442.386 458.021 444.486 458.321 446.586C458.501 447.966 458.681 449.346 458.861 450.726C459.701 457.386 460.181 463.506 460.481 468.966C460.721 472.206 460.841 475.266 460.901 477.966Z" fill="#F8F8F0"/>
<path d="M1335.58 212.408V266.408C1332.64 264.128 1329.7 262.148 1326.64 259.988C1298.92 241.208 1264.36 225.068 1224.76 211.988H1335.22C1335.22 211.988 1335.64 212.228 1335.64 212.408H1335.58Z" fill="#991A18"/>
<path d="M1335.16 211.988H1335.52V212.408" stroke="#1D1D1B" stroke-width="1.5" stroke-miterlimit="10"/>
<path d="M1341.82 271.327C1339.84 269.587 1337.68 267.967 1335.58 266.407V212.407C1355.32 235.627 1349.86 257.347 1341.82 271.387V271.327Z" fill="#86C2BE"/>
<path d="M69.581 279.246H55.061V321.786H69.581V279.246Z" fill="#82616A"/>
<path d="M1353.82 416.827C1349.26 395.947 1339.78 376.987 1326.64 361.267C1324.24 358.327 1321.84 355.627 1319.14 352.987C1295.44 329.227 1262.74 314.407 1226.62 314.407C1224.46 314.407 1222.36 314.467 1220.26 314.587C1218.64 314.587 1217.02 314.767 1215.46 314.887C1214.62 314.947 1213.78 315.007 1212.94 315.127C1211.2 315.307 1209.46 315.487 1207.78 315.787C1203.22 316.447 1198.66 317.347 1194.28 318.487C1192.72 318.847 1191.16 319.267 1189.66 319.747C1187.98 320.227 1186.3 320.767 1184.62 321.367C1184.2 321.487 1183.78 321.607 1183.36 321.787C1181.98 322.267 1180.6 322.747 1179.22 323.347C1178.38 323.647 1177.6 323.947 1176.82 324.307C1175.38 324.847 1174 325.447 1172.68 326.107C1171.36 326.707 1170.04 327.307 1168.78 327.967C1167.82 328.387 1166.92 328.867 1166.02 329.347C1164.64 330.067 1163.32 330.847 1162 331.567C1160.26 332.527 1158.58 333.607 1156.9 334.687C1154.38 336.307 1151.92 337.987 1149.52 339.787C1148.32 340.627 1147.12 341.527 1145.92 342.487C1145.44 342.847 1144.96 343.267 1144.48 343.627C1142.86 344.947 1141.24 346.327 1139.68 347.767C1137.88 349.387 1136.14 351.007 1134.46 352.747C1133.98 353.227 1133.44 353.767 1132.96 354.247C1132.3 354.907 1131.64 355.627 1131.04 356.287C1130.32 357.067 1129.6 357.847 1128.94 358.687C1123.96 364.327 1119.46 370.387 1115.56 376.867C1114.48 378.547 1113.52 380.287 1112.56 382.027C1111.84 383.347 1111.12 384.667 1110.52 385.987C1107.94 390.907 1105.78 396.067 1103.98 401.347C1103.5 402.547 1103.08 403.747 1102.72 405.007C1102.6 405.187 1102.54 405.427 1102.54 405.607C1102.24 406.387 1102 407.167 1101.82 407.947C1101.76 408.127 1101.7 408.307 1101.7 408.487C1101.28 409.867 1100.92 411.247 1100.56 412.627C1100.14 414.007 1099.84 415.387 1099.54 416.827C1098.7 420.547 1098.1 424.327 1097.62 428.227C1097.32 430.267 1097.14 432.367 1096.96 434.467C1096.66 437.947 1096.54 441.247 1096.54 444.727V445.687C1097.08 517.147 1154.98 574.927 1226.62 574.927C1298.26 574.927 1356.76 516.607 1356.76 444.727C1356.76 435.127 1355.74 425.827 1353.82 416.827ZM1301.8 468.067C1301.14 470.227 1300.42 472.267 1299.58 474.307C1299.46 474.667 1299.28 474.967 1299.16 475.327C1298.38 477.067 1297.54 478.807 1296.7 480.487C1294.9 483.847 1292.92 487.147 1290.76 490.207C1289.98 491.347 1289.2 492.487 1288.3 493.567C1284.82 497.947 1280.92 501.967 1276.6 505.447C1275.16 506.647 1273.6 507.787 1272.1 508.867C1270.6 509.947 1269.04 510.967 1267.48 511.987C1265.32 513.247 1263.1 514.447 1260.76 515.587C1259.56 516.247 1258.36 516.787 1257.16 517.327C1256.02 517.807 1254.88 518.227 1253.74 518.587C1252.54 519.067 1251.34 519.487 1250.08 519.787C1248.82 520.207 1247.62 520.567 1246.36 520.867C1246.3 520.867 1246.24 520.927 1246.24 520.927C1240 522.547 1233.46 523.447 1226.62 523.447C1215.76 523.447 1205.5 521.287 1196.2 517.327C1196.2 517.207 1196.14 517.207 1196.14 517.207C1196.02 517.207 1195.9 517.327 1195.9 517.327C1189 514.207 1182.58 510.487 1176.7 505.447C1174.72 503.827 1172.86 502.087 1171.06 500.287C1170.4 499.627 1169.8 499.027 1169.14 498.367C1168.06 497.167 1166.98 495.967 1165.96 494.707C1165.18 493.747 1164.4 492.727 1163.62 491.767C1162.12 489.727 1160.68 487.627 1159.36 485.467C1157.44 482.287 1155.7 478.927 1154.2 475.507C1153.72 474.247 1153.24 472.987 1152.76 471.727C1151.8 469.327 1151.02 466.867 1150.42 464.347C1149.76 461.827 1149.22 459.247 1148.86 456.667C1148.2 452.767 1147.9 448.807 1147.9 444.727C1147.9 440.647 1148.2 436.627 1148.86 432.667C1149.1 431.407 1149.28 430.087 1149.58 428.827C1150.42 424.687 1151.56 420.667 1153.06 416.827C1154.38 413.347 1155.94 409.987 1157.74 406.747C1158.34 405.667 1158.94 404.647 1159.6 403.567C1160.8 401.647 1162.12 399.727 1163.44 397.867C1164.28 396.727 1165.12 395.647 1166.02 394.567C1167.58 392.707 1169.2 390.907 1171 389.167C1171 389.167 1171.02 389.127 1171.06 389.047C1172.32 387.667 1173.76 386.347 1175.14 385.207C1175.38 385.027 1175.56 384.847 1175.8 384.727C1176.1 384.487 1176.34 384.247 1176.58 384.067C1177.36 383.407 1178.2 382.807 1178.98 382.147C1179.94 381.427 1180.9 380.707 1181.86 380.107C1182.76 379.447 1183.66 378.847 1184.62 378.247C1185.58 377.647 1186.48 377.047 1187.44 376.507C1188.46 375.967 1189.42 375.427 1190.38 374.887C1194.82 372.607 1199.5 370.747 1204.36 369.247C1205.98 368.767 1207.66 368.347 1209.34 367.987C1212.7 367.147 1216.12 366.607 1219.6 366.367C1220.74 366.247 1221.88 366.127 1223.08 366.127C1223.68 366.067 1224.28 366.007 1224.88 366.067H1226.62C1228.66 366.067 1230.7 366.127 1232.68 366.307C1236.04 366.487 1239.34 366.967 1242.52 367.627C1242.76 367.627 1243 367.687 1243.24 367.807C1243.96 367.927 1244.62 368.047 1245.34 368.227C1246.48 368.527 1247.68 368.827 1248.82 369.187C1249.48 369.367 1250.08 369.547 1250.74 369.787C1252.48 370.327 1254.16 370.927 1255.84 371.647C1257.7 372.427 1259.56 373.207 1261.3 374.167C1261.72 374.347 1262.14 374.527 1262.56 374.767C1262.98 375.007 1263.4 375.187 1263.76 375.367C1264.42 375.727 1265.08 376.027 1265.68 376.447C1267.36 377.407 1269.04 378.427 1270.6 379.507C1271.62 380.227 1272.64 380.947 1273.66 381.667H1273.72C1275.76 383.167 1277.68 384.727 1279.6 386.467C1283.74 390.247 1287.52 394.507 1290.76 399.127C1292.98 402.187 1294.96 405.427 1296.7 408.847C1297.6 410.587 1298.38 412.327 1299.16 414.067C1299.34 414.487 1299.52 414.967 1299.7 415.447C1299.82 415.687 1299.94 415.987 1300.06 416.227C1300.12 416.467 1300.24 416.647 1300.3 416.827C1300.36 417.007 1300.42 417.187 1300.48 417.427C1300.6 417.727 1300.72 418.027 1300.78 418.327C1301.14 419.287 1301.5 420.247 1301.8 421.267C1302.58 423.787 1303.24 426.307 1303.72 428.887C1304.74 433.987 1305.28 439.327 1305.28 444.727C1305.28 450.127 1304.74 455.407 1303.72 460.567C1303.24 463.087 1302.58 465.607 1301.8 468.067Z" fill="#3C3C3B"/>
<path d="M1303.72 428.887C1303.24 426.307 1302.58 423.787 1301.8 421.267C1301.5 420.247 1301.14 419.287 1300.78 418.327C1300.72 418.027 1300.6 417.727 1300.48 417.427C1300.42 417.247 1300.3 417.007 1300.24 416.827C1300.18 416.647 1300.12 416.407 1300.06 416.227C1299.94 415.987 1299.82 415.687 1299.7 415.447C1299.52 414.967 1299.34 414.487 1299.16 414.067C1298.38 412.327 1297.6 410.587 1296.7 408.847C1294.96 405.427 1292.98 402.187 1290.76 399.127C1287.52 394.507 1283.74 390.247 1279.6 386.467C1277.68 384.727 1275.76 383.167 1273.72 381.667H1273.66C1272.64 380.947 1271.62 380.227 1270.6 379.507C1268.98 378.427 1267.36 377.407 1265.68 376.447C1265.08 376.027 1264.42 375.727 1263.76 375.367C1263.4 375.187 1262.98 375.007 1262.56 374.767C1262.2 374.527 1261.84 374.347 1261.42 374.167H1261.3C1259.56 373.207 1257.7 372.427 1255.84 371.647C1254.16 370.927 1252.48 370.327 1250.74 369.787C1250.08 369.547 1249.48 369.367 1248.82 369.187C1247.68 368.827 1246.48 368.527 1245.34 368.227C1244.62 368.047 1243.96 367.927 1243.24 367.807C1243 367.687 1242.76 367.627 1242.52 367.627C1239.34 366.967 1236.04 366.487 1232.68 366.307C1230.7 366.067 1228.72 366.007 1226.68 366.007C1226.08 366.007 1225.48 366.007 1224.88 366.067C1224.28 366.007 1223.68 366.067 1223.08 366.127C1221.88 366.127 1220.74 366.247 1219.6 366.367C1216.12 366.607 1212.7 367.147 1209.34 367.987C1207.66 368.347 1205.98 368.767 1204.36 369.247C1199.44 370.627 1194.76 372.547 1190.38 374.887C1189.42 375.427 1188.46 375.967 1187.44 376.507C1186.48 377.047 1185.58 377.647 1184.62 378.247C1183.66 378.847 1182.76 379.447 1181.86 380.107C1180.9 380.707 1179.94 381.427 1178.98 382.147C1178.2 382.807 1177.36 383.407 1176.58 384.067C1176.34 384.247 1176.1 384.487 1175.8 384.727C1175.56 384.847 1175.38 385.027 1175.14 385.207C1173.76 386.467 1172.38 387.727 1171.06 389.047C1171.06 389.047 1171.04 389.087 1171 389.167C1169.2 390.907 1167.58 392.707 1166.02 394.567C1165.12 395.647 1164.28 396.727 1163.44 397.867C1162.12 399.727 1160.8 401.647 1159.6 403.567C1158.94 404.647 1158.34 405.667 1157.74 406.747C1155.94 409.987 1154.38 413.347 1153.06 416.827C1151.56 420.667 1150.42 424.687 1149.58 428.827C1149.28 430.087 1149.1 431.407 1148.86 432.667C1148.26 436.567 1147.96 440.587 1147.96 444.667C1147.96 448.747 1148.26 452.767 1148.86 456.667C1149.28 459.247 1149.82 461.827 1150.42 464.347C1151.08 466.867 1151.86 469.327 1152.76 471.727C1153.24 472.987 1153.72 474.247 1154.2 475.507C1155.7 478.927 1157.44 482.287 1159.36 485.467C1160.68 487.627 1162.12 489.727 1163.62 491.767C1164.4 492.727 1165.18 493.747 1165.96 494.707C1166.98 495.967 1168.06 497.167 1169.14 498.367C1169.8 499.027 1170.4 499.627 1171.06 500.287C1172.86 502.087 1174.72 503.827 1176.7 505.447C1182.52 510.247 1189.06 514.207 1196.14 517.207C1205.5 521.167 1215.82 523.327 1226.68 523.327C1233.4 523.327 1240 522.487 1246.24 520.927C1246.24 520.927 1246.24 520.867 1246.36 520.867C1247.62 520.567 1248.82 520.207 1250.08 519.787C1251.28 519.427 1252.54 519.007 1253.74 518.587C1256.14 517.687 1258.48 516.727 1260.76 515.587C1263.1 514.447 1265.32 513.247 1267.48 511.987C1269.04 510.967 1270.6 509.947 1272.1 508.867C1273.6 507.787 1275.16 506.647 1276.6 505.447C1280.92 501.967 1284.82 497.947 1288.3 493.567C1289.2 492.487 1289.98 491.347 1290.76 490.207C1293.04 487.147 1294.96 483.907 1296.7 480.487C1297.54 478.807 1298.38 477.067 1299.16 475.327C1299.28 474.967 1299.46 474.667 1299.58 474.307C1300.42 472.267 1301.14 470.227 1301.8 468.067C1302.58 465.607 1303.24 463.087 1303.72 460.567C1304.8 455.407 1305.34 450.127 1305.34 444.667C1305.34 439.207 1304.8 433.987 1303.72 428.887ZM1255 447.667C1254.82 449.527 1254.46 451.387 1253.92 453.127C1253.32 454.807 1252.66 456.487 1251.82 458.047C1251.58 458.527 1251.28 458.947 1251.04 459.367C1250.5 460.327 1249.84 461.287 1249.12 462.187C1248.76 462.607 1248.4 463.087 1248.04 463.507C1247.68 463.927 1247.26 464.347 1246.84 464.767C1246.18 465.427 1245.52 466.027 1244.8 466.627C1241.98 468.967 1238.68 470.767 1235.14 471.847C1234.24 472.087 1233.34 472.327 1232.44 472.507C1230.58 472.927 1228.66 473.107 1226.68 473.107C1210.9 473.107 1198.24 460.387 1198.24 444.667C1198.24 443.947 1198.24 443.227 1198.24 442.447C1198.3 441.787 1198.36 441.127 1198.48 440.467C1198.42 440.407 1198.48 440.287 1198.54 440.167C1198.6 439.507 1198.72 438.847 1198.9 438.247C1198.96 437.887 1199.02 437.467 1199.2 437.107C1199.26 436.807 1199.38 436.507 1199.44 436.207C1199.56 435.667 1199.74 435.127 1199.98 434.647C1200.16 434.167 1200.34 433.627 1200.58 433.147C1200.7 432.907 1200.76 432.667 1200.94 432.427C1201.24 431.767 1201.6 431.107 1202.02 430.447C1201.96 430.327 1202.02 430.267 1202.08 430.207C1202.2 429.967 1202.32 429.787 1202.5 429.547C1202.5 429.547 1202.52 429.507 1202.56 429.427C1203.04 428.767 1203.52 428.047 1204 427.447C1204.42 426.727 1205.02 426.067 1205.62 425.467C1205.86 425.167 1206.16 424.867 1206.46 424.567C1208.08 422.947 1209.88 421.507 1211.8 420.367C1212.64 419.887 1213.48 419.347 1214.38 418.987C1215.52 418.387 1216.78 417.907 1218.04 417.487C1218.88 417.187 1219.72 417.007 1220.62 416.827H1220.74C1222.6 416.347 1224.58 416.167 1226.62 416.167C1227.58 416.167 1228.48 416.167 1229.44 416.347C1230.52 416.407 1231.6 416.587 1232.62 416.827C1233.46 417.007 1234.24 417.187 1235.02 417.487C1235.92 417.727 1236.76 418.087 1237.6 418.447C1238.5 418.747 1239.34 419.167 1240.12 419.647C1242.58 420.907 1244.8 422.527 1246.72 424.567C1247.38 425.167 1247.98 425.827 1248.58 426.547C1248.58 426.547 1248.52 426.547 1248.58 426.607C1249.18 427.267 1249.72 427.987 1250.2 428.767C1250.74 429.547 1251.22 430.327 1251.64 431.167C1252.6 432.907 1253.38 434.827 1253.92 436.807C1254.16 437.527 1254.34 438.247 1254.46 438.967C1254.7 439.867 1254.82 440.827 1254.94 441.787C1255.06 442.747 1255.12 443.707 1255.12 444.667C1255.12 445.687 1255.06 446.707 1254.94 447.667H1255Z" fill="#D4D3C7"/>
<path d="M1255.12 444.728C1255.12 460.448 1242.34 473.108 1226.56 473.108C1210.78 473.108 1198.18 460.448 1198.18 444.728C1198.18 429.008 1210.84 416.168 1226.56 416.168C1242.28 416.168 1255.12 428.948 1255.12 444.728Z" fill="#FAFAF0"/>
<path d="M417.521 433.687C417.341 431.407 417.101 429.187 416.801 426.967C416.561 425.347 416.321 423.667 416.021 422.047C415.721 420.307 415.361 418.567 415.001 416.827C414.701 415.327 414.341 413.887 413.981 412.447C413.501 410.707 413.081 408.967 412.541 407.227C410.681 400.927 408.341 394.807 405.521 388.927C404.801 387.367 404.081 385.867 403.241 384.367C397.181 372.787 389.441 362.227 380.261 352.987C356.681 329.227 323.981 314.407 287.861 314.407C285.701 314.407 283.601 314.467 281.501 314.587C280.001 314.587 278.501 314.707 277.001 314.887C274.841 315.007 272.681 315.247 270.581 315.547C269.561 315.727 268.541 315.847 267.521 315.967C267.461 315.967 267.341 316.027 267.281 316.027C265.841 316.267 264.341 316.507 262.901 316.807C261.761 316.987 260.621 317.227 259.481 317.527C258.041 317.827 256.481 318.247 255.041 318.547C251.741 319.447 248.441 320.407 245.261 321.547C243.341 322.207 241.421 322.867 239.561 323.647C238.061 324.247 236.561 324.907 235.061 325.567C233.741 326.167 232.421 326.767 231.161 327.367C229.901 327.967 228.701 328.567 227.501 329.227C224.921 330.547 222.401 331.987 220.001 333.547C219.161 333.967 218.381 334.507 217.541 335.047C215.321 336.427 213.161 337.927 211.121 339.427C209.621 340.507 208.181 341.647 206.741 342.847C204.641 344.407 202.661 346.147 200.741 347.887C199.361 349.147 197.981 350.467 196.661 351.787C195.101 353.287 193.601 354.847 192.161 356.467C191.621 357.067 191.081 357.607 190.541 358.207C189.401 359.407 188.381 360.667 187.361 361.927C186.101 363.427 184.841 364.987 183.701 366.547C182.261 368.407 180.941 370.327 179.681 372.247C178.421 374.107 177.221 376.027 176.081 377.947C174.701 380.287 173.381 382.627 172.181 385.027C171.221 386.827 170.321 388.687 169.481 390.547C168.701 392.227 167.981 393.907 167.321 395.587C166.601 397.267 165.941 399.007 165.341 400.747C164.741 402.487 164.141 404.227 163.601 406.027C163.301 406.867 163.061 407.767 162.821 408.667C162.521 409.567 162.281 410.467 162.101 411.367C161.621 413.167 161.201 414.967 160.781 416.827C160.361 418.387 160.061 419.947 159.761 421.567C159.461 423.247 159.221 424.987 158.981 426.667C158.921 427.207 158.801 427.807 158.741 428.347C158.561 430.147 158.321 431.887 158.201 433.687C158.081 433.927 158.081 434.227 158.081 434.467C157.781 437.947 157.661 441.247 157.661 444.727C157.661 516.607 215.921 574.927 287.861 574.927C359.801 574.927 418.001 516.607 418.001 444.727C418.001 441.007 417.881 437.287 417.521 433.687ZM364.361 462.667C364.061 464.107 363.641 465.487 363.221 466.927C362.861 468.187 362.501 469.447 362.081 470.647C361.721 471.907 361.241 473.167 360.701 474.367C360.281 475.387 359.861 476.407 359.381 477.427C358.901 478.447 358.421 479.467 357.881 480.487C357.041 482.167 356.141 483.847 355.061 485.407C354.761 486.007 354.401 486.607 353.981 487.207C353.621 487.807 353.201 488.407 352.781 489.007C352.061 490.147 351.281 491.287 350.381 492.367C350.081 492.727 349.841 493.147 349.481 493.507C348.521 494.827 347.441 496.087 346.301 497.347C342.521 501.547 338.261 505.327 333.641 508.567C333.041 508.987 332.441 509.407 331.841 509.827C331.781 509.887 331.661 509.947 331.601 509.947C329.561 511.387 327.521 512.707 325.361 513.847C324.221 514.447 323.081 515.047 321.881 515.647C320.741 516.247 319.601 516.787 318.401 517.327C315.641 518.467 312.761 519.487 309.821 520.267C308.441 520.687 307.001 521.107 305.561 521.347C299.861 522.727 293.921 523.447 287.861 523.447C277.061 523.447 266.621 521.287 257.321 517.327C257.141 517.147 257.141 517.327 257.141 517.327C254.921 516.247 252.701 515.167 250.421 513.847H250.361C248.141 512.647 245.981 511.327 243.941 509.947C241.841 508.567 239.861 507.007 237.941 505.447C237.821 505.327 237.761 505.267 237.641 505.147C236.561 504.247 235.481 503.287 234.401 502.327C233.261 501.307 232.121 500.167 231.101 499.027C229.901 497.767 228.701 496.507 227.621 495.187C226.781 494.107 225.941 493.027 225.161 491.947C224.501 491.167 223.841 490.327 223.241 489.487C222.641 488.647 222.101 487.807 221.561 486.907C221.081 486.187 220.601 485.467 220.181 484.687C219.281 483.367 218.501 481.867 217.661 480.367C217.181 479.287 216.761 478.327 216.221 477.307C215.981 476.827 215.801 476.347 215.621 475.867C215.021 474.487 214.481 473.107 214.001 471.727C213.761 471.187 213.641 470.767 213.521 470.347C213.461 470.167 213.461 469.987 213.401 469.807C213.161 469.327 212.981 468.907 212.861 468.427C212.801 468.307 212.801 468.187 212.741 468.067C212.621 467.707 212.501 467.287 212.381 466.867C212.261 466.387 212.141 465.907 212.081 465.427C211.961 465.127 211.841 464.827 211.781 464.527C211.661 464.167 211.541 463.807 211.481 463.447C211.181 462.427 210.941 461.347 210.761 460.327C210.521 459.127 210.281 457.987 210.101 456.787V456.607L209.921 455.527C209.801 454.627 209.681 453.667 209.621 452.707C209.321 450.127 209.141 447.427 209.141 444.727C209.141 442.387 209.261 439.987 209.561 437.647C209.561 437.227 209.621 436.807 209.681 436.387C209.801 435.487 209.921 434.587 210.101 433.687C210.221 432.367 210.401 431.107 210.641 429.847C210.701 429.247 210.821 428.647 211.001 428.107C211.121 427.147 211.361 426.187 211.601 425.287C212.021 423.727 212.501 422.107 212.981 420.547C213.281 419.647 213.581 418.807 213.881 417.907C214.001 417.547 214.121 417.187 214.301 416.827C215.081 414.667 215.981 412.627 217.001 410.587C217.301 409.927 217.661 409.267 218.021 408.607C219.041 406.447 220.241 404.407 221.501 402.427C223.661 399.067 226.061 395.887 228.701 392.887C229.781 391.627 230.981 390.367 232.181 389.167C232.241 389.107 232.301 389.047 232.361 388.987C232.961 388.327 233.621 387.727 234.281 387.127C234.941 386.527 235.601 385.927 236.321 385.327C236.801 384.847 237.341 384.427 237.821 384.067C238.361 383.647 238.841 383.227 239.321 382.867C239.801 382.447 240.341 382.087 240.881 381.667C241.361 381.247 241.841 380.887 242.321 380.587C243.341 379.867 244.361 379.147 245.441 378.487C247.241 377.287 249.101 376.207 251.021 375.187C252.581 374.347 254.201 373.567 255.821 372.847C256.301 372.607 256.841 372.427 257.321 372.247C257.861 372.067 258.401 371.887 258.881 371.647C259.721 371.287 260.501 370.987 261.281 370.687C261.701 370.507 262.121 370.327 262.601 370.267C262.961 370.087 263.321 369.967 263.681 369.907C263.921 369.787 264.161 369.667 264.401 369.607C264.641 369.547 264.881 369.487 265.181 369.487C266.201 369.127 267.221 368.767 268.241 368.467C269.321 368.167 270.401 367.927 271.481 367.747C271.481 367.747 271.521 367.727 271.601 367.687C271.601 367.687 271.841 367.627 271.961 367.627H272.201C274.721 367.087 277.241 366.727 279.761 366.427C281.081 366.307 282.401 366.187 283.781 366.127C285.101 366.127 286.421 366.067 287.801 366.067C288.941 366.067 290.021 366.127 291.101 366.127C292.061 366.187 292.961 366.247 293.921 366.307C294.161 366.247 294.341 366.247 294.521 366.307C295.661 366.427 296.801 366.607 297.941 366.727C298.601 366.787 299.261 366.847 299.981 366.967C300.701 367.087 301.421 367.207 302.081 367.387C302.501 367.447 302.861 367.507 303.221 367.567C304.721 367.807 306.221 368.167 307.721 368.527C308.861 368.827 310.001 369.127 311.141 369.487H311.201C312.161 369.847 313.121 370.147 314.081 370.567C314.981 370.867 315.941 371.227 316.901 371.587C317.021 371.587 317.141 371.587 317.261 371.767C318.041 372.067 318.821 372.367 319.601 372.727C319.781 372.787 319.901 372.847 320.081 372.967C321.461 373.507 322.781 374.167 324.041 374.947C324.581 375.247 325.121 375.487 325.661 375.787C326.021 375.967 326.441 376.147 326.801 376.387C327.401 376.687 328.001 377.047 328.601 377.407C328.661 377.467 328.721 377.467 328.781 377.527C330.881 378.787 332.921 380.167 334.841 381.667C336.881 383.107 338.801 384.727 340.661 386.467H340.721C341.621 387.307 342.581 388.207 343.421 389.107C344.321 390.007 345.221 390.847 346.001 391.747C346.781 392.527 347.561 393.367 348.221 394.267C348.281 394.387 348.341 394.447 348.461 394.567V394.747C348.461 394.747 349.001 395.347 349.301 395.647C349.721 396.127 350.081 396.667 350.441 397.207C351.281 398.227 352.061 399.247 352.721 400.327C353.201 400.987 353.681 401.647 354.101 402.367C354.161 402.427 354.221 402.547 354.281 402.607C354.761 403.327 355.181 404.107 355.541 404.887C355.901 405.487 356.261 406.087 356.621 406.687C357.041 407.287 357.341 407.947 357.701 408.607C358.241 409.567 358.721 410.587 359.201 411.667C359.981 413.347 360.701 415.087 361.361 416.827C361.541 417.247 361.721 417.607 361.781 418.027C362.201 419.107 362.501 420.187 362.861 421.267C362.921 421.567 362.981 421.867 363.101 422.107C363.461 423.367 363.821 424.627 364.121 425.947C364.421 427.207 364.661 428.527 364.901 429.787C365.141 431.047 365.261 432.367 365.441 433.687H365.561C365.621 434.167 365.681 434.647 365.741 435.067C365.861 436.087 365.981 437.167 366.041 438.187C366.101 438.967 366.161 439.807 366.221 440.587C366.281 441.967 366.341 443.347 366.341 444.727C366.341 450.727 365.681 456.607 364.421 462.187C364.361 462.307 364.361 462.487 364.301 462.667H364.361Z" fill="#3C3835"/>
<path d="M366.281 440.59C366.221 439.81 366.161 438.97 366.101 438.19C366.041 437.17 365.921 436.09 365.801 435.07C365.801 434.65 365.681 434.17 365.621 433.69C365.441 432.37 365.261 431.05 364.961 429.79C364.721 428.53 364.481 427.21 364.181 425.95C363.881 424.63 363.521 423.37 363.161 422.11C363.041 421.87 362.981 421.57 362.921 421.27C362.561 420.19 362.261 419.11 361.841 418.03C361.781 417.61 361.601 417.25 361.421 416.83C360.761 415.09 360.041 413.35 359.261 411.67C358.781 410.59 358.301 409.57 357.761 408.61C357.401 407.95 357.101 407.29 356.681 406.69C355.961 405.25 355.181 403.93 354.341 402.61C354.281 402.55 354.221 402.43 354.161 402.37C353.741 401.65 353.261 400.99 352.781 400.33C352.121 399.25 351.341 398.23 350.501 397.21C350.141 396.67 349.781 396.13 349.361 395.65C349.121 395.29 348.821 394.93 348.521 394.57C348.401 394.45 348.341 394.39 348.281 394.27C347.561 393.43 346.841 392.59 346.061 391.75C345.281 390.85 344.381 390.01 343.481 389.11C342.641 388.21 341.681 387.31 340.781 386.47H340.721C338.861 384.73 336.941 383.11 334.901 381.67C333.881 380.95 332.861 380.23 331.841 379.51C330.881 378.85 329.861 378.19 328.841 377.53C328.781 377.47 328.721 377.47 328.661 377.41C328.061 377.05 327.461 376.69 326.861 376.39C326.501 376.15 326.081 375.97 325.721 375.79C324.641 375.25 323.561 374.59 322.541 374.17C321.761 373.75 320.921 373.33 320.141 372.97C319.961 372.85 319.841 372.79 319.661 372.73C318.881 372.37 318.101 372.07 317.321 371.77C317.201 371.65 317.081 371.65 316.961 371.59C316.001 371.23 315.041 370.87 314.141 370.57C313.181 370.15 312.221 369.85 311.261 369.55C310.121 369.19 308.921 368.83 307.781 368.53C306.281 368.17 304.781 367.81 303.281 367.57C302.201 367.33 301.121 367.09 300.041 366.97C298.241 366.67 296.441 366.43 294.581 366.31C294.401 366.25 294.221 366.25 293.981 366.31C293.021 366.25 292.121 366.19 291.161 366.13C290.081 366.01 289.001 366.01 287.861 366.01C286.481 366.01 285.161 366.07 283.841 366.13C282.461 366.19 281.141 366.31 279.821 366.43C277.181 366.67 274.601 367.09 272.021 367.63C271.901 367.63 271.781 367.63 271.661 367.69C271.661 367.69 271.621 367.71 271.541 367.75C270.461 367.93 269.381 368.17 268.301 368.47C266.981 368.83 265.721 369.19 264.461 369.61C263.861 369.79 263.261 369.97 262.661 370.27C262.181 370.33 261.761 370.51 261.341 370.69C260.021 371.11 258.701 371.65 257.381 372.25C256.901 372.43 256.361 372.61 255.881 372.85C254.261 373.57 252.641 374.35 251.081 375.19C249.161 376.21 247.301 377.29 245.501 378.49C244.421 379.15 243.401 379.87 242.381 380.59C241.901 380.89 241.421 381.25 240.941 381.67C240.401 382.09 239.861 382.45 239.381 382.87C238.901 383.23 238.421 383.65 237.881 384.07C237.401 384.43 236.861 384.85 236.381 385.33C235.661 385.93 235.001 386.53 234.341 387.13C233.681 387.73 233.021 388.33 232.421 388.99C232.361 389.05 232.301 389.11 232.241 389.17C231.041 390.37 229.841 391.63 228.761 392.89C226.121 395.89 223.721 399.07 221.561 402.43C220.721 403.87 219.881 405.25 219.101 406.75C218.741 407.35 218.441 407.95 218.081 408.61C217.721 409.27 217.361 409.93 217.061 410.59C216.041 412.63 215.141 414.67 214.361 416.83C214.181 417.19 214.061 417.55 213.941 417.91C213.641 418.81 213.341 419.649 213.041 420.549C212.561 422.11 212.081 423.73 211.661 425.29C211.421 426.25 211.241 427.15 211.061 428.11C210.881 428.65 210.761 429.25 210.701 429.85C210.221 432.01 209.921 434.17 209.741 436.39C209.681 436.81 209.621 437.23 209.621 437.65C209.381 439.93 209.261 442.27 209.261 444.67C209.261 447.37 209.381 450.07 209.681 452.71C209.801 454.03 209.981 455.35 210.161 456.61V456.79C210.341 457.99 210.581 459.13 210.821 460.33C211.001 461.35 211.241 462.43 211.541 463.45C211.601 463.81 211.721 464.17 211.841 464.53C211.961 465.31 212.201 466.09 212.441 466.87C212.561 467.29 212.681 467.71 212.801 468.07C212.801 468.19 212.801 468.31 212.921 468.43C213.101 469.09 213.341 469.75 213.581 470.35C213.701 470.83 213.881 471.31 214.061 471.73C214.541 473.11 215.081 474.49 215.681 475.87C217.001 478.93 218.501 481.87 220.241 484.69C220.661 485.47 221.141 486.19 221.621 486.91C222.161 487.81 222.701 488.65 223.301 489.49C224.681 491.47 226.121 493.39 227.681 495.19C228.761 496.51 229.961 497.77 231.161 499.03C232.181 500.17 233.321 501.31 234.461 502.33C235.541 503.29 236.621 504.25 237.701 505.15C237.821 505.27 237.881 505.33 238.001 505.45C239.921 507.01 241.901 508.57 244.001 509.95C246.041 511.33 248.201 512.65 250.421 513.85H250.481C261.641 519.91 274.361 523.33 287.921 523.33C293.981 523.33 299.981 522.61 305.621 521.35C307.061 520.99 308.501 520.63 309.881 520.27C314.081 519.01 318.101 517.51 321.941 515.65C323.141 515.05 324.281 514.45 325.421 513.85C327.581 512.71 329.621 511.39 331.661 509.95C331.721 509.95 331.841 509.89 331.901 509.83C332.501 509.41 333.101 508.99 333.701 508.57C338.321 505.33 342.581 501.55 346.361 497.35C347.081 496.45 347.861 495.55 348.581 494.65C348.941 494.29 349.241 493.93 349.541 493.51C349.901 493.15 350.141 492.73 350.441 492.37C351.341 491.29 352.121 490.15 352.841 489.01C353.261 488.41 353.681 487.81 354.041 487.21C354.461 486.61 354.821 486.01 355.121 485.41C356.081 483.85 356.981 482.23 357.941 480.49C358.481 479.47 358.961 478.45 359.441 477.43C359.921 476.41 360.341 475.39 360.761 474.37C361.301 473.17 361.781 471.91 362.141 470.65C362.441 469.81 362.741 468.91 362.981 468.07C363.101 467.71 363.161 467.29 363.281 466.93C363.701 465.49 364.121 464.11 364.421 462.67C364.481 462.49 364.481 462.31 364.541 462.19C365.861 456.55 366.581 450.73 366.581 444.67C366.581 443.29 366.401 441.97 366.341 440.59H366.281ZM315.041 453.25C314.081 456.31 312.581 459.19 310.661 461.71C310.241 462.25 309.881 462.79 309.401 463.27C308.981 463.81 308.561 464.29 308.021 464.77C307.361 465.43 306.641 466.09 305.921 466.69C305.141 467.35 304.241 468.009 303.401 468.549C302.921 468.85 302.441 469.15 301.901 469.45C301.181 469.87 300.401 470.29 299.621 470.59C298.541 471.07 297.461 471.49 296.321 471.85C295.661 472.09 295.001 472.27 294.281 472.39C294.041 472.51 293.801 472.57 293.561 472.57C293.141 472.69 292.721 472.75 292.301 472.81C292.181 472.81 292.121 472.81 292.061 472.81C291.401 472.93 290.741 472.99 290.081 473.049C289.301 473.109 288.581 473.11 287.861 473.11C272.141 473.11 259.481 460.39 259.481 444.67C259.481 443.95 259.481 443.23 259.541 442.45C259.601 441.79 259.661 441.13 259.781 440.47C259.721 440.41 259.781 440.29 259.841 440.17C259.901 439.51 260.021 438.85 260.201 438.25C260.261 437.89 260.321 437.47 260.501 437.11C260.561 436.81 260.681 436.51 260.741 436.21C260.861 435.67 261.041 435.13 261.281 434.65C261.461 434.17 261.641 433.63 261.881 433.15C262.001 432.91 262.061 432.67 262.241 432.43C262.541 431.77 262.901 431.11 263.321 430.45C263.261 430.33 263.321 430.27 263.381 430.21C263.501 429.97 263.621 429.79 263.801 429.549C263.801 429.549 263.821 429.51 263.861 429.43C264.341 428.77 264.821 428.05 265.301 427.45C265.721 426.73 266.321 426.07 266.921 425.47C267.161 425.17 267.461 424.87 267.761 424.57C269.381 422.95 271.181 421.51 273.101 420.37C273.941 419.89 274.781 419.35 275.681 418.99C276.821 418.39 278.081 417.91 279.341 417.49C280.181 417.19 281.021 417.01 281.861 416.83H282.041C283.001 416.59 283.961 416.47 284.921 416.35C285.881 416.23 286.901 416.17 287.861 416.17C288.821 416.17 289.781 416.17 290.741 416.35C290.741 416.35 290.781 416.35 290.861 416.35C290.861 416.35 290.861 416.41 290.921 416.35C291.881 416.47 292.901 416.65 293.861 416.83C294.701 417.01 295.481 417.19 296.261 417.49C297.161 417.73 298.061 418.03 298.901 418.45C299.741 418.81 300.581 419.17 301.361 419.65C302.201 420.07 302.981 420.49 303.761 421.09C311.381 426.13 316.421 434.83 316.421 444.67C316.421 447.67 315.941 450.55 315.041 453.25Z" fill="#D4D3C7"/>
<path d="M316.301 444.727C316.301 460.447 303.521 473.107 287.741 473.107C271.961 473.107 259.361 460.447 259.361 444.727C259.361 429.007 272.021 416.167 287.741 416.167C303.461 416.167 316.301 428.947 316.301 444.727Z" fill="#FAFAF0"/>
<path d="M1337.02 357.489L1326.64 361.269C1324.24 358.329 1321.84 355.629 1319.14 352.989C1295.44 329.229 1262.74 314.409 1226.62 314.409C1224.46 314.409 1222.36 314.469 1220.26 314.589C1218.64 314.589 1217.02 314.769 1215.46 314.889C1214.62 314.949 1213.78 315.009 1212.94 315.129C1211.2 315.309 1209.46 315.489 1207.78 315.789C1203.22 316.449 1198.66 317.349 1194.28 318.489C1192.72 318.849 1191.16 319.269 1189.66 319.749C1187.98 320.229 1186.3 320.769 1184.62 321.369C1184.2 321.489 1183.78 321.609 1183.36 321.789C1181.98 322.269 1180.6 322.749 1179.22 323.349C1178.38 323.649 1177.6 323.949 1176.82 324.309C1175.38 324.849 1174 325.449 1172.68 326.109C1171.36 326.709 1170.04 327.309 1168.78 327.969C1167.88 328.389 1166.92 328.869 1166.02 329.349C1164.64 330.069 1163.32 330.849 1162 331.569C1160.26 332.529 1158.58 333.609 1156.9 334.689C1154.38 336.309 1151.92 337.989 1149.52 339.789C1148.26 340.629 1147.12 341.529 1145.92 342.489C1145.44 342.849 1144.96 343.269 1144.48 343.629C1142.8 344.949 1141.24 346.329 1139.68 347.769C1137.88 349.389 1136.14 351.009 1134.46 352.749C1133.92 353.229 1133.44 353.709 1132.96 354.249C1132.3 354.909 1131.64 355.629 1131.04 356.289C1130.32 357.069 1129.6 357.849 1128.94 358.689C1123.96 364.329 1119.46 370.389 1115.56 376.869C1114.48 378.549 1113.52 380.289 1112.56 382.029C1111.84 383.349 1111.12 384.669 1110.52 385.989C1107.94 390.909 1105.78 396.069 1103.98 401.349C1103.5 402.549 1103.08 403.749 1102.72 405.009C1102.6 405.189 1102.54 405.429 1102.54 405.609C1102.24 406.389 1102 407.169 1101.82 407.949C1101.76 408.129 1101.7 408.309 1101.7 408.489C1101.22 409.869 1100.86 411.249 1100.56 412.629C1100.14 414.009 1099.84 415.389 1099.54 416.829C1098.7 420.549 1098.1 424.329 1097.62 428.229C1097.32 430.269 1097.14 432.369 1096.96 434.469C1096.66 437.949 1096.54 441.249 1096.54 444.729V445.689L1083.58 450.489C1084.54 441.369 1086.4 429.669 1089.76 416.829C1102.36 369.249 1136.5 306.549 1228.84 306.549C1284.22 306.549 1317.28 329.109 1337.02 357.489Z" fill="#3C3C3B"/>
<path d="M428.321 433.688H417.521C417.341 431.408 417.101 429.188 416.801 426.968C416.561 425.348 416.321 423.668 416.021 422.048C415.721 420.308 415.361 418.568 415.001 416.828C414.701 415.328 414.341 413.888 413.981 412.448C413.501 410.708 413.021 408.968 412.541 407.228C410.681 400.928 408.341 394.808 405.521 388.928C404.801 387.368 404.081 385.868 403.241 384.368C397.181 372.788 389.441 362.228 380.261 352.988C356.681 329.228 323.981 314.408 287.861 314.408C285.701 314.408 283.601 314.468 281.501 314.588C280.001 314.588 278.501 314.708 277.001 314.888C274.841 315.008 272.681 315.248 270.581 315.548C269.561 315.668 268.541 315.848 267.521 315.968C267.461 315.968 267.341 316.028 267.281 316.028C265.841 316.268 264.341 316.508 262.901 316.808C261.761 316.988 260.621 317.228 259.481 317.528C257.981 317.828 256.481 318.188 255.041 318.548C251.741 319.448 248.441 320.408 245.261 321.548C243.341 322.208 241.421 322.868 239.561 323.648C238.061 324.248 236.561 324.908 235.061 325.568C233.741 326.108 232.481 326.708 231.161 327.368C229.901 327.968 228.701 328.568 227.501 329.228C224.921 330.548 222.401 331.988 220.001 333.548C219.161 333.968 218.321 334.508 217.541 335.048C215.321 336.428 213.161 337.928 211.121 339.428C209.621 340.508 208.181 341.648 206.741 342.848C204.641 344.408 202.661 346.148 200.741 347.888C199.301 349.148 197.981 350.408 196.661 351.788C195.101 353.288 193.541 354.848 192.161 356.468C191.561 357.068 191.021 357.608 190.541 358.208C189.401 359.408 188.381 360.668 187.361 361.928C186.101 363.428 184.841 364.988 183.701 366.548C182.261 368.408 180.941 370.328 179.681 372.248C178.421 374.108 177.221 376.028 176.081 377.948C174.701 380.288 173.381 382.628 172.181 385.028C171.161 386.828 170.321 388.688 169.481 390.548C168.701 392.168 167.981 393.848 167.321 395.588C166.601 397.268 165.941 399.008 165.341 400.748C164.681 402.488 164.081 404.228 163.601 406.028C163.301 406.868 163.061 407.768 162.821 408.668C162.521 409.568 162.281 410.468 162.101 411.368C161.561 413.168 161.141 414.968 160.781 416.828C160.361 418.388 160.061 419.948 159.761 421.568C159.461 423.248 159.221 424.988 158.981 426.668C158.921 427.208 158.801 427.808 158.741 428.348C158.561 430.148 158.321 431.888 158.201 433.688H149.801C150.281 428.348 151.001 422.708 152.081 416.828C160.541 369.428 190.901 308.828 291.161 308.828C382.601 308.828 414.941 366.008 425.501 416.828C426.701 422.528 427.601 428.228 428.321 433.688Z" fill="#3C3C3B"/>
</g>
<defs>
<clipPath id="clip0_142_1478">
<rect width="1430.04" height="574.92" fill="white"/>
</clipPath>
</defs>
</svg>
