<svg width="1530" height="900" viewBox="0 0 1530 900" fill="none" xmlns="http://www.w3.org/2000/svg">
<g clip-path="url(#clip0_306_246)">
<rect x="83.0952" y="680.507" width="49" height="219" fill="#B07156"/>
<circle cx="108.283" cy="449.694" r="84.1875" fill="#82B33B"/>
<circle cx="108.283" cy="617.694" r="84.1875" fill="#B07156"/>
<circle cx="192.283" cy="533.694" r="84.1875" fill="#82B33B"/>
<circle cx="192.283" cy="617.694" r="84.1875" fill="#82B33B"/>
<circle cx="24.2827" cy="617.694" r="84.1875" fill="#82B33B"/>
<circle cx="24.2827" cy="533.694" r="84.1875" fill="#82B33B"/>
<circle cx="108.283" cy="592.694" r="84.1875" fill="#82B33B"/>
<g clip-path="url(#clip1_306_246)">
<g clip-path="url(#clip2_306_246)">
<g clip-path="url(#clip3_306_246)">
<path d="M507.43 333.63C561.35 333.63 605.06 289.92 605.06 236C605.06 182.081 561.35 138.37 507.43 138.37C453.511 138.37 409.8 182.081 409.8 236C409.8 289.92 453.511 333.63 507.43 333.63Z" fill="#F8F8F0"/>
<path d="M535.4 251.75C589.32 251.75 633.03 208.04 633.03 154.12C633.03 100.2 589.32 56.49 535.4 56.49C481.48 56.49 437.77 100.2 437.77 154.12C437.77 208.04 481.48 251.75 535.4 251.75Z" fill="#F8F8F0"/>
<path d="M633.25 198.26C687.17 198.26 730.88 154.55 730.88 100.63C730.88 46.7104 687.17 3 633.25 3C579.331 3 535.62 46.7104 535.62 100.63C535.62 154.55 579.331 198.26 633.25 198.26Z" fill="#F8F8F0"/>
<path d="M720.23 251.75C774.15 251.75 817.86 208.04 817.86 154.12C817.86 100.2 774.15 56.49 720.23 56.49C666.311 56.49 622.6 100.2 622.6 154.12C622.6 208.04 666.311 251.75 720.23 251.75Z" fill="#F8F8F0"/>
<path d="M609.77 296.11C663.69 296.11 707.4 252.4 707.4 198.48C707.4 144.561 663.69 100.85 609.77 100.85C555.851 100.85 512.14 144.561 512.14 198.48C512.14 252.4 555.851 296.11 609.77 296.11Z" fill="#F8F8F0"/>
<path d="M728.77 339.11C782.69 339.11 826.4 295.4 826.4 241.48C826.4 187.561 782.69 143.85 728.77 143.85C674.851 143.85 631.14 187.561 631.14 241.48C631.14 295.4 674.851 339.11 728.77 339.11Z" fill="#F8F8F0"/>
<path d="M394.54 403.64C448.46 403.64 492.17 359.93 492.17 306.01C492.17 252.091 448.46 208.38 394.54 208.38C340.621 208.38 296.91 252.091 296.91 306.01C296.91 359.93 340.621 403.64 394.54 403.64Z" fill="#F8F8F0"/>
<path d="M532.84 457.48C586.76 457.48 630.47 413.77 630.47 359.85C630.47 305.93 586.76 262.22 532.84 262.22C478.921 262.22 435.21 305.93 435.21 359.85C435.21 413.77 478.921 457.48 532.84 457.48Z" fill="#F8F8F0"/>
<path d="M437.84 446.48C491.76 446.48 535.47 402.77 535.47 348.85C535.47 294.93 491.76 251.22 437.84 251.22C383.921 251.22 340.21 294.93 340.21 348.85C340.21 402.77 383.921 446.48 437.84 446.48Z" fill="#F8F8F0"/>
<path d="M672 446.6C725.92 446.6 769.63 402.89 769.63 348.97C769.63 295.051 725.92 251.34 672 251.34C618.081 251.34 574.37 295.051 574.37 348.97C574.37 402.89 618.081 446.6 672 446.6Z" fill="#F8F8F0"/>
<path d="M789.42 457.48C843.34 457.48 887.05 413.77 887.05 359.85C887.05 305.93 843.34 262.22 789.42 262.22C735.5 262.22 691.79 305.93 691.79 359.85C691.79 413.77 735.5 457.48 789.42 457.48Z" fill="#F8F8F0"/>
<path d="M801.84 452.48C855.76 452.48 899.47 408.77 899.47 354.85C899.47 300.93 855.76 257.22 801.84 257.22C747.92 257.22 704.21 300.93 704.21 354.85C704.21 408.77 747.92 452.48 801.84 452.48Z" fill="#F8F8F0"/>
<path d="M941 441.6C994.92 441.6 1038.63 397.89 1038.63 343.97C1038.63 290.051 994.92 246.34 941 246.34C887.081 246.34 843.37 290.051 843.37 343.97C843.37 397.89 887.081 441.6 941 441.6Z" fill="#F8F8F0"/>
<path d="M1058.42 452.48C1112.34 452.48 1156.05 408.77 1156.05 354.85C1156.05 300.93 1112.34 257.22 1058.42 257.22C1004.5 257.22 960.79 300.93 960.79 354.85C960.79 408.77 1004.5 452.48 1058.42 452.48Z" fill="#F8F8F0"/>
<path d="M1108.42 436.48C1162.34 436.48 1206.05 392.77 1206.05 338.85C1206.05 284.93 1162.34 241.22 1108.42 241.22C1054.5 241.22 1010.79 284.93 1010.79 338.85C1010.79 392.77 1054.5 436.48 1108.42 436.48Z" fill="#F8F8F0"/>
<path d="M842.48 367.11C896.4 367.11 940.11 323.4 940.11 269.48C940.11 215.561 896.4 171.85 842.48 171.85C788.561 171.85 744.85 215.561 744.85 269.48C744.85 323.4 788.561 367.11 842.48 367.11Z" fill="#F8F8F0"/>
<path d="M785.63 211.31C839.55 211.31 883.26 167.6 883.26 113.68C883.26 59.7605 839.55 16.05 785.63 16.05C731.71 16.05 688 59.7605 688 113.68C688 167.6 731.71 211.31 785.63 211.31Z" fill="#F8F8F0"/>
<path d="M912.49 282.31C966.41 282.31 1010.12 238.6 1010.12 184.68C1010.12 130.76 966.41 87.05 912.49 87.05C858.571 87.05 814.86 130.76 814.86 184.68C814.86 238.6 858.571 282.31 912.49 282.31Z" fill="#F8F8F0"/>
<path d="M949.89 367.11C1003.81 367.11 1047.52 323.4 1047.52 269.48C1047.52 215.561 1003.81 171.85 949.89 171.85C895.971 171.85 852.26 215.561 852.26 269.48C852.26 323.4 895.971 367.11 949.89 367.11Z" fill="#F8F8F0"/>
<path d="M1009.89 323.11C1063.81 323.11 1107.52 279.4 1107.52 225.48C1107.52 171.561 1063.81 127.85 1009.89 127.85C955.971 127.85 912.26 171.561 912.26 225.48C912.26 279.4 955.971 323.11 1009.89 323.11Z" fill="#F8F8F0"/>
<path d="M1132.49 280.31C1186.41 280.31 1230.12 236.6 1230.12 182.68C1230.12 128.76 1186.41 85.05 1132.49 85.05C1078.57 85.05 1034.86 128.76 1034.86 182.68C1034.86 236.6 1078.57 280.31 1132.49 280.31Z" fill="#F8F8F0"/>
<path d="M1155.89 368.11C1209.81 368.11 1253.52 324.4 1253.52 270.48C1253.52 216.561 1209.81 172.85 1155.89 172.85C1101.97 172.85 1058.26 216.561 1058.26 270.48C1058.26 324.4 1101.97 368.11 1155.89 368.11Z" fill="#F8F8F0"/>
<path d="M912.49 431.48C966.41 431.48 1010.12 387.77 1010.12 333.85C1010.12 279.93 966.41 236.22 912.49 236.22C858.571 236.22 814.86 279.93 814.86 333.85C814.86 387.77 858.571 431.48 912.49 431.48Z" fill="#F8F8F0"/>
<path d="M374.1 316.66C428.02 316.66 471.73 272.949 471.73 219.03C471.73 165.11 428.02 121.4 374.1 121.4C320.181 121.4 276.47 165.11 276.47 219.03C276.47 272.949 320.181 316.66 374.1 316.66Z" fill="#F8F8F0"/>
<path d="M484.39 214.31C538.31 214.31 582.02 170.6 582.02 116.68C582.02 62.7605 538.31 19.05 484.39 19.05C430.471 19.05 386.76 62.7605 386.76 116.68C386.76 170.6 430.471 214.31 484.39 214.31Z" fill="#F8F8F0"/>
<path d="M938.25 195.26C992.17 195.26 1035.88 151.55 1035.88 97.63C1035.88 43.7104 992.17 7.29253e-08 938.25 4.69793e-08C884.331 2.10334e-08 840.62 43.7104 840.62 97.63C840.62 151.55 884.331 195.26 938.25 195.26Z" fill="#F8F8F0"/>
<path d="M1079.63 219.31C1133.55 219.31 1177.26 175.6 1177.26 121.68C1177.26 67.7605 1133.55 24.05 1079.63 24.05C1025.71 24.05 982 67.7605 982 121.68C982 175.6 1025.71 219.31 1079.63 219.31Z" fill="#F8F8F0"/>
<path d="M789.39 211.31C843.31 211.31 887.02 167.6 887.02 113.68C887.02 59.7605 843.31 16.05 789.39 16.05C735.471 16.05 691.76 59.7605 691.76 113.68C691.76 167.6 735.471 211.31 789.39 211.31Z" fill="#F8F8F0"/>
<path d="M1038.87 335.35L1032.21 335.35C1029.96 335.35 1028.13 333.52 1028.13 331.27L1028.13 60.2201C1028.13 56.1301 1031.45 52.8101 1035.54 52.8101C1039.63 52.8101 1042.95 56.1301 1042.95 60.2201L1042.95 331.28C1042.95 333.53 1041.12 335.36 1038.87 335.36L1038.87 335.35Z" fill="#4D4D4D"/>
<path opacity="0.3" d="M1028.13 127.23L1042.95 118.7L1042.95 113.83L1028.13 113.83L1028.13 127.23Z" fill="#3C3835"/>
<path opacity="0.3" d="M1028.13 185.18L1042.95 175.86L1042.95 170.55L1028.13 170.55L1028.13 185.18Z" fill="#3C3835"/>
<path opacity="0.3" d="M1028.13 243.76L1042.95 234.44L1042.95 229.13L1028.13 229.13L1028.13 243.76Z" fill="#3C3835"/>
<path d="M1099.78 121.36C1099.44 123.95 1097.06 125.77 1094.46 125.43L978.04 109.96C974.78 109.53 971.82 107.85 969.82 105.29L959.26 91.8401C956.32 88.0901 957.03 82.6901 960.86 79.8301L974.57 69.6001C977.18 67.6601 980.47 66.8101 983.73 67.2401L1100.15 82.7101C1102.74 83.0501 1104.56 85.4301 1104.22 88.0301L1099.79 121.36L1099.78 121.36Z" fill="#F7B64E"/>
<path d="M966.03 170.65C966.03 173.26 968.15 175.38 970.76 175.38L1088.2 175.38C1091.49 175.38 1094.64 174.11 1096.97 171.83L1109.21 159.89C1112.62 156.56 1112.62 151.11 1109.21 147.78L1096.97 135.84C1094.64 133.57 1091.49 132.29 1088.2 132.29L970.76 132.29C968.15 132.29 966.03 134.41 966.03 137.02L966.03 170.64L966.03 170.65Z" fill="#F7B64E"/>
<path d="M1104.25 229.68C1104.25 232.29 1102.13 234.41 1099.52 234.41L982.08 234.41C978.79 234.41 975.64 233.14 973.31 230.86L961.07 218.92C957.66 215.59 957.66 210.14 961.07 206.81L973.31 194.87C975.64 192.6 978.79 191.32 982.08 191.32L1099.52 191.32C1102.13 191.32 1104.25 193.44 1104.25 196.05L1104.25 229.67L1104.25 229.68Z" fill="#F7B64E"/>
<path opacity="0.03" d="M983.72 67.2501C980.46 66.8201 977.17 67.6701 974.56 69.6101L960.85 79.8401C957.03 82.6901 956.31 88.0901 959.25 91.8501L969.81 105.3C971.82 107.86 974.77 109.54 978.03 109.97L1036.35 117.72L1036.35 74.2501L983.71 67.2501L983.72 67.2501Z" fill="#3C3835"/>
<path opacity="0.03" d="M970.77 132.3C968.16 132.3 966.04 134.42 966.04 137.03L966.04 170.65C966.04 173.26 968.16 175.38 970.77 175.38L1036.37 175.38L1036.37 132.29L970.77 132.29L970.77 132.3Z" fill="#3C3835"/>
<path opacity="0.03" d="M982.07 191.32C978.78 191.32 975.63 192.59 973.3 194.87L961.06 206.81C957.65 210.14 957.65 215.59 961.06 218.92L973.3 230.86C975.63 233.13 978.78 234.41 982.07 234.41L1036.36 234.41L1036.36 191.32L982.07 191.32Z" fill="#3C3835"/>
<path d="M1017.46 92.7201C1016.92 94.8401 1016.62 96.1301 1016.57 96.5901C1016.51 97.0601 1016.49 97.4801 1016.5 97.8301C1016.02 97.9201 1015.38 97.9201 1014.57 97.8201C1013.99 97.7501 1013.59 97.5901 1013.37 97.3501C1013.15 97.1101 1013.07 96.7701 1013.13 96.3201C1013.14 96.2401 1013.22 95.9501 1013.36 95.4601C1013.5 94.9701 1013.74 94.0801 1014.08 92.8001C1014.42 91.5201 1014.79 90.1101 1015.18 88.5801C1015.7 86.4601 1016.03 84.9201 1016.15 83.9601C1017.27 83.9301 1018.42 83.9901 1019.6 84.1401C1020.32 84.2301 1020.97 84.3801 1021.55 84.5701C1022.13 84.7601 1022.66 85.0301 1023.14 85.3801C1023.62 85.7201 1023.98 86.1701 1024.21 86.7301C1024.44 87.2901 1024.5 87.9401 1024.41 88.6701C1024.19 90.3701 1023.58 91.6501 1022.55 92.5301C1021.53 93.4101 1020.46 93.7801 1019.33 93.6301C1018.55 93.5301 1017.94 93.2301 1017.48 92.7201L1017.46 92.7201ZM1019.89 86.3001C1019.64 86.2701 1019.36 86.2601 1019.07 86.2801C1018.74 87.8001 1018.47 88.9101 1018.29 89.5901L1017.91 90.9401C1018.28 91.2401 1018.63 91.4101 1018.95 91.4501C1019.49 91.5201 1019.97 91.2801 1020.37 90.7301C1020.78 90.1801 1021.04 89.4401 1021.16 88.4901C1021.26 87.7401 1021.19 87.2001 1020.96 86.8801C1020.73 86.5501 1020.38 86.3601 1019.89 86.3001Z" fill="#3C3835"/>
<path d="M1029.89 97.5002C1029.4 98.2102 1028.86 98.7402 1028.25 99.0802C1027.64 99.4202 1027.04 99.5502 1026.44 99.4702C1025.66 99.3702 1025.07 98.9702 1024.67 98.2802C1024.26 97.5902 1024.14 96.6402 1024.29 95.4302C1024.43 94.3502 1024.76 93.3502 1025.29 92.4202C1025.81 91.5002 1026.56 90.7602 1027.51 90.1902C1028.46 89.6302 1029.52 89.4202 1030.69 89.5702C1032.11 89.7502 1033.43 90.3802 1034.66 91.4702C1033.66 94.3402 1033.09 96.3302 1032.95 97.4502C1032.88 97.9802 1033.05 98.4102 1033.46 98.7402C1032.96 99.7502 1032.2 100.19 1031.18 100.06C1030.61 99.9902 1030.22 99.7802 1030.01 99.4402C1029.8 99.1002 1029.73 98.6202 1029.81 98.0002C1029.84 97.7802 1029.87 97.6102 1029.9 97.4802L1029.89 97.5002ZM1030.26 95.7502L1031.23 92.3002C1030.88 91.7502 1030.48 91.4402 1030.05 91.3902C1029.47 91.3202 1028.96 91.6802 1028.51 92.4802C1028.07 93.2902 1027.78 94.2202 1027.65 95.2702C1027.56 95.9702 1027.56 96.5502 1027.65 97.0402C1027.74 97.5202 1027.94 97.7902 1028.23 97.8202C1028.49 97.8502 1028.82 97.6802 1029.21 97.3002C1029.6 96.9202 1029.95 96.4002 1030.25 95.7502L1030.26 95.7502Z" fill="#3C3835"/>
<path d="M1039.42 95.9802C1039.05 97.5302 1038.82 98.7002 1038.72 99.4902C1038.69 99.7402 1038.67 100.08 1038.68 100.5C1038.14 100.67 1037.53 100.71 1036.86 100.63C1035.8 100.5 1035.33 100.04 1035.43 99.2602C1035.44 99.1502 1035.7 98.2102 1036.21 96.4502C1036.72 94.6902 1037 93.6002 1037.05 93.1802C1037.13 92.5702 1036.96 92.1902 1036.54 92.0402C1036.65 91.5902 1036.92 91.2102 1037.35 90.9202C1037.78 90.6202 1038.29 90.5102 1038.91 90.5902C1040.06 90.7402 1040.57 91.3802 1040.42 92.5202C1040.39 92.7102 1040.34 92.9702 1040.24 93.2802C1040.75 92.5102 1041.28 91.9602 1041.84 91.6102C1042.4 91.2602 1042.9 91.1202 1043.34 91.1802C1044.05 91.2702 1044.36 91.6802 1044.26 92.4202C1044.22 92.7402 1044.1 93.0602 1043.91 93.3702C1043.72 93.6802 1043.49 93.9202 1043.23 94.0902C1042.84 93.6902 1042.43 93.4602 1042 93.4102C1041.03 93.2902 1040.17 94.1502 1039.43 96.0002L1039.42 95.9802Z" fill="#3C3835"/>
<path d="M1047.11 91.6302C1048.16 91.7602 1048.61 92.4602 1048.45 93.7102C1048.38 94.2702 1048.1 95.2302 1047.62 96.6102C1047.13 97.9902 1046.87 98.8402 1046.83 99.1802C1046.76 99.7402 1046.93 100.18 1047.34 100.51C1047.08 101.01 1046.74 101.38 1046.32 101.6C1045.9 101.82 1045.47 101.9 1045.01 101.85C1043.83 101.7 1043.32 100.99 1043.48 99.7302C1043.56 99.0802 1043.85 98.0702 1044.34 96.7102C1044.83 95.3502 1045.1 94.4902 1045.14 94.1502C1045.22 93.5502 1045.04 93.2002 1044.62 93.0902C1044.75 92.6102 1045.05 92.2302 1045.52 91.9602C1045.99 91.6802 1046.52 91.5802 1047.11 91.6502L1047.11 91.6302ZM1047.52 90.7102C1046.99 90.6402 1046.61 90.4402 1046.38 90.0902C1046.15 89.7402 1046.06 89.3502 1046.12 88.9002C1046.19 88.3602 1046.43 87.9002 1046.86 87.5202C1047.28 87.1402 1047.81 86.9902 1048.43 87.0702C1048.94 87.1402 1049.32 87.3502 1049.55 87.7202C1049.79 88.0902 1049.87 88.5002 1049.82 88.9602C1049.75 89.5002 1049.51 89.9502 1049.11 90.3002C1048.71 90.6502 1048.18 90.7802 1047.52 90.7002L1047.52 90.7102Z" fill="#3C3835"/>
<path d="M1055.58 96.12C1055.58 95.68 1055.48 95.33 1055.28 95.07C1055.08 94.81 1054.82 94.65 1054.5 94.61C1054.18 94.57 1053.89 94.63 1053.62 94.78C1053.35 94.94 1053.2 95.2 1053.15 95.56C1053.11 95.84 1053.22 96.08 1053.47 96.28C1053.72 96.48 1054.03 96.66 1054.41 96.8C1054.79 96.95 1055.16 97.12 1055.53 97.31C1055.9 97.51 1056.2 97.8 1056.43 98.18C1056.66 98.56 1056.73 99.03 1056.66 99.59C1056.52 100.69 1055.97 101.52 1055 102.09C1054.03 102.66 1052.96 102.87 1051.78 102.72C1049.56 102.44 1048.51 101.77 1048.65 100.73C1048.75 99.94 1049.44 99.37 1050.73 99.03C1050.75 99.54 1050.91 99.94 1051.2 100.23C1051.49 100.52 1051.84 100.69 1052.25 100.74C1052.67 100.79 1053.02 100.75 1053.32 100.61C1053.62 100.47 1053.79 100.22 1053.84 99.84C1053.87 99.6 1053.76 99.4 1053.51 99.23C1053.26 99.06 1052.94 98.9 1052.57 98.75C1052.2 98.6 1051.82 98.43 1051.46 98.23C1051.1 98.03 1050.8 97.73 1050.58 97.32C1050.36 96.92 1050.28 96.43 1050.35 95.86C1050.48 94.8 1051.04 93.97 1052 93.36C1052.97 92.75 1054.01 92.52 1055.14 92.66C1055.58 92.72 1056.01 92.82 1056.42 92.97C1056.83 93.12 1057.2 93.35 1057.52 93.66C1057.84 93.97 1057.98 94.32 1057.93 94.71C1057.82 95.6 1057.04 96.07 1055.59 96.13L1055.58 96.12Z" fill="#3C3835"/>
<path d="M1012.17 158.18C1012.56 156.63 1012.95 154.31 1013.35 151.23C1013.69 148.64 1013.85 146.73 1013.85 145.5C1015 145.32 1016.22 145.23 1017.52 145.23C1020.89 145.23 1022.58 146.25 1022.58 148.3C1022.58 149.18 1022.35 149.93 1021.9 150.55C1021.45 151.17 1020.86 151.57 1020.15 151.77C1020.82 152.12 1021.34 152.52 1021.7 152.96C1022.06 153.4 1022.25 153.95 1022.25 154.61C1022.25 156.11 1021.73 157.31 1020.67 158.22C1019.62 159.13 1018.35 159.58 1016.87 159.58C1014.71 159.58 1013.15 159.12 1012.17 158.19L1012.17 158.18ZM1017.08 157.44C1017.63 157.44 1018.09 157.21 1018.48 156.75C1018.87 156.29 1019.06 155.68 1019.06 154.92C1019.06 153.52 1018.42 152.82 1017.13 152.82C1016.91 152.82 1016.65 152.84 1016.37 152.88C1016.16 154.39 1015.91 155.77 1015.63 157.02C1015.97 157.3 1016.45 157.44 1017.08 157.44ZM1017.02 147.46C1016.89 148.8 1016.77 149.95 1016.64 150.9C1016.89 150.93 1017.09 150.94 1017.25 150.94C1018.69 150.94 1019.41 150.25 1019.41 148.86C1019.41 148.37 1019.26 147.99 1018.97 147.73C1018.68 147.46 1018.3 147.33 1017.84 147.33C1017.56 147.33 1017.29 147.37 1017.02 147.46Z" fill="#3C3835"/>
<path d="M1030.46 156.55C1030.77 156.7 1031.03 156.9 1031.25 157.14C1031.47 157.38 1031.58 157.62 1031.58 157.85C1031.58 158.34 1031.22 158.75 1030.5 159.08C1029.78 159.41 1028.95 159.57 1028.01 159.57C1026.81 159.57 1025.77 159.27 1024.91 158.68C1024.05 158.09 1023.62 157.16 1023.62 155.92C1023.62 154.16 1024.18 152.59 1025.31 151.23C1026.44 149.87 1027.88 149.18 1029.63 149.18C1030.43 149.18 1031.1 149.4 1031.66 149.85C1032.21 150.3 1032.49 150.91 1032.49 151.7C1032.49 152.95 1032.03 153.92 1031.09 154.61C1030.16 155.3 1028.99 155.65 1027.57 155.65C1027.4 155.65 1027.19 155.64 1026.94 155.61C1026.94 157 1027.49 157.69 1028.6 157.69C1029.33 157.69 1029.95 157.31 1030.47 156.56L1030.46 156.55ZM1027.33 154.28C1027.89 154.28 1028.33 154.05 1028.65 153.58C1028.97 153.11 1029.13 152.57 1029.13 151.95C1029.13 151.7 1029.06 151.49 1028.92 151.32C1028.78 151.15 1028.62 151.07 1028.44 151.07C1028.1 151.07 1027.8 151.36 1027.53 151.94C1027.26 152.52 1027.09 153.29 1027.02 154.26C1027.09 154.27 1027.19 154.28 1027.34 154.28L1027.33 154.28Z" fill="#3C3835"/>
<path d="M1037.31 154.47C1037.14 156.05 1037.06 157.24 1037.06 158.04C1037.06 158.29 1037.09 158.63 1037.14 159.05C1036.62 159.29 1036.03 159.41 1035.35 159.41C1034.29 159.41 1033.75 159.02 1033.75 158.23C1033.75 158.12 1033.89 157.16 1034.17 155.34C1034.45 153.53 1034.59 152.41 1034.59 151.99C1034.59 151.37 1034.37 151.02 1033.94 150.92C1034 150.46 1034.22 150.05 1034.6 149.7C1034.98 149.35 1035.48 149.18 1036.1 149.18C1037.26 149.18 1037.84 149.75 1037.84 150.9C1037.84 151.1 1037.81 151.36 1037.76 151.68C1038.17 150.85 1038.62 150.23 1039.14 149.82C1039.65 149.41 1040.13 149.2 1040.58 149.2C1041.29 149.2 1041.65 149.57 1041.65 150.31C1041.65 150.63 1041.57 150.96 1041.42 151.3C1041.27 151.64 1041.07 151.9 1040.83 152.1C1040.4 151.75 1039.96 151.58 1039.53 151.58C1038.55 151.58 1037.81 152.55 1037.3 154.48L1037.31 154.47Z" fill="#3C3835"/>
<path d="M1045.1 143.78C1046.16 143.78 1046.7 144.41 1046.7 145.67C1046.7 146.23 1046.48 148.12 1046.03 151.35C1045.58 154.58 1045.36 156.36 1045.36 156.69C1045.36 157.25 1045.58 157.67 1046.03 157.95C1045.88 158.38 1045.63 158.76 1045.28 159.08C1044.93 159.4 1044.5 159.56 1043.97 159.56C1042.72 159.56 1042.1 158.92 1042.1 157.65C1042.1 157.03 1042.33 155.16 1042.78 152.02C1043.24 148.88 1043.46 147.04 1043.46 146.5C1043.46 145.9 1043.24 145.57 1042.81 145.51C1042.88 145.02 1043.13 144.61 1043.56 144.27C1043.99 143.93 1044.5 143.77 1045.1 143.77L1045.1 143.78Z" fill="#3C3835"/>
<path d="M1050.29 149.18C1051.35 149.18 1051.89 149.81 1051.89 151.07C1051.89 151.63 1051.74 152.62 1051.43 154.05C1051.12 155.48 1050.97 156.36 1050.97 156.7C1050.97 157.26 1051.19 157.68 1051.64 157.96C1051.44 158.49 1051.15 158.89 1050.77 159.17C1050.39 159.44 1049.96 159.58 1049.5 159.58C1048.31 159.58 1047.71 158.94 1047.71 157.67C1047.71 157.01 1047.87 155.98 1048.18 154.56C1048.5 153.15 1048.65 152.26 1048.65 151.91C1048.65 151.31 1048.43 150.98 1048 150.92C1048.07 150.43 1048.32 150.02 1048.75 149.68C1049.18 149.34 1049.69 149.18 1050.29 149.18ZM1050.58 148.21C1050.05 148.21 1049.65 148.05 1049.37 147.74C1049.1 147.43 1048.96 147.04 1048.96 146.6C1048.96 146.05 1049.15 145.57 1049.52 145.14C1049.89 144.71 1050.39 144.5 1051.02 144.5C1051.54 144.5 1051.94 144.67 1052.22 145C1052.5 145.34 1052.64 145.73 1052.64 146.2C1052.64 146.75 1052.46 147.22 1052.1 147.62C1051.74 148.02 1051.24 148.22 1050.58 148.22L1050.58 148.21Z" fill="#3C3835"/>
<path d="M1057.32 154.05C1057.12 155.7 1057.03 156.97 1057.03 157.85C1057.03 158.17 1057.06 158.57 1057.11 159.05C1056.58 159.29 1055.99 159.41 1055.35 159.41C1054.27 159.41 1053.73 159.02 1053.73 158.23C1053.73 158.16 1053.87 157.21 1054.15 155.38C1054.43 153.55 1054.57 152.42 1054.57 151.99C1054.57 151.37 1054.35 151.02 1053.92 150.92C1054 150.39 1054.25 149.96 1054.67 149.65C1055.09 149.34 1055.54 149.18 1056.05 149.18C1057.24 149.18 1057.83 149.76 1057.83 150.92C1057.83 150.95 1057.83 151 1057.83 151.08C1057.83 151.16 1057.82 151.22 1057.82 151.26C1058.24 150.6 1058.75 150.1 1059.34 149.75C1059.93 149.4 1060.51 149.23 1061.05 149.23C1061.79 149.23 1062.37 149.46 1062.77 149.91C1063.18 150.37 1063.38 150.96 1063.38 151.68C1063.38 151.93 1063.24 152.75 1062.95 154.15C1062.66 155.54 1062.52 156.4 1062.52 156.72C1062.52 157.28 1062.76 157.7 1063.23 157.98C1063.06 158.48 1062.77 158.88 1062.37 159.16C1061.97 159.44 1061.52 159.58 1061.05 159.58C1060.55 159.58 1060.12 159.42 1059.77 159.11C1059.42 158.8 1059.24 158.36 1059.24 157.82C1059.24 157.37 1059.37 156.47 1059.64 155.12C1059.91 153.77 1060.04 152.83 1060.04 152.32C1060.04 151.54 1059.81 151.14 1059.35 151.14C1059.01 151.14 1058.64 151.43 1058.23 152.02C1057.82 152.61 1057.52 153.29 1057.34 154.06L1057.32 154.05Z" fill="#3C3835"/>
<path d="M1020.38 210.2L1019.69 215.09C1019.49 216.38 1019.4 217.39 1019.4 218.11C1019.4 218.47 1019.43 218.83 1019.48 219.18C1018.98 219.33 1018.31 219.41 1017.49 219.41C1016.93 219.41 1016.53 219.3 1016.3 219.07C1016.07 218.85 1015.95 218.51 1015.95 218.06C1015.95 217.56 1016.47 214.74 1017.5 209.62C1015.78 213.51 1014.57 216.73 1013.87 219.28C1013.41 219.35 1012.99 219.38 1012.63 219.38C1011.54 219.38 1010.92 219.04 1010.76 218.37C1010.45 216.98 1009.94 214.06 1009.23 209.61C1008.78 214.05 1008.56 216.88 1008.56 218.09C1008.56 218.37 1008.59 218.75 1008.64 219.22C1008.15 219.33 1007.56 219.39 1006.86 219.39C1005.85 219.39 1005.35 218.98 1005.35 218.17C1005.35 218.04 1005.38 217.8 1005.43 217.43C1005.49 217.07 1005.56 216.58 1005.66 215.96C1005.76 215.34 1005.83 214.85 1005.89 214.47L1006.65 209.18C1006.79 208.17 1006.86 207.28 1006.86 206.51C1006.86 206.15 1006.84 205.8 1006.8 205.48C1007.47 205.37 1008.17 205.31 1008.88 205.31C1009.59 205.31 1010.14 205.45 1010.44 205.73C1010.74 206.01 1010.99 206.53 1011.19 207.28C1011.37 207.98 1011.55 208.75 1011.72 209.6C1011.89 210.45 1012.02 211.14 1012.11 211.69C1012.2 212.24 1012.33 213.04 1012.5 214.11C1012.67 215.18 1012.79 215.92 1012.86 216.34C1014.06 212.67 1015.4 209.4 1016.87 206.53C1017.3 205.68 1018.14 205.25 1019.39 205.25C1019.96 205.25 1020.61 205.33 1021.32 205.48C1020.98 206.39 1020.68 207.95 1020.4 210.16L1020.38 210.2Z" fill="#3C3835"/>
<path d="M1028 217.18C1027.61 217.95 1027.13 218.54 1026.57 218.95C1026.01 219.36 1025.43 219.57 1024.83 219.57C1024.05 219.57 1023.41 219.25 1022.92 218.61C1022.43 217.97 1022.18 217.05 1022.18 215.83C1022.18 214.74 1022.38 213.7 1022.79 212.72C1023.2 211.74 1023.84 210.91 1024.71 210.23C1025.59 209.55 1026.61 209.21 1027.79 209.21C1029.22 209.21 1030.61 209.67 1031.97 210.6C1031.34 213.57 1031.02 215.62 1031.02 216.75C1031.02 217.28 1031.24 217.69 1031.69 217.97C1031.33 219.03 1030.63 219.57 1029.59 219.57C1029.02 219.57 1028.6 219.42 1028.35 219.11C1028.1 218.8 1027.97 218.33 1027.97 217.7C1027.97 217.48 1027.97 217.3 1027.99 217.18L1028 217.18ZM1028.15 215.39L1028.68 211.84C1028.26 211.34 1027.83 211.08 1027.4 211.08C1026.81 211.08 1026.35 211.51 1026.01 212.36C1025.67 213.21 1025.51 214.17 1025.51 215.24C1025.51 215.94 1025.59 216.52 1025.74 216.99C1025.89 217.46 1026.12 217.69 1026.41 217.69C1026.68 217.69 1026.98 217.48 1027.31 217.05C1027.64 216.62 1027.93 216.07 1028.15 215.38L1028.15 215.39Z" fill="#3C3835"/>
<path d="M1040.11 210.23C1040.21 209.67 1040.3 208.96 1040.39 208.09C1040.48 207.22 1040.53 206.71 1040.53 206.56C1040.53 205.96 1040.31 205.62 1039.88 205.53C1039.94 205.04 1040.18 204.63 1040.63 204.29C1041.07 203.95 1041.58 203.79 1042.15 203.79C1043.23 203.79 1043.77 204.41 1043.77 205.66C1043.77 206.15 1043.55 208.04 1043.1 211.33C1042.65 214.62 1042.43 216.42 1042.43 216.73C1042.43 217.26 1042.65 217.67 1043.08 217.97C1042.72 219.05 1042.01 219.59 1040.96 219.59C1039.77 219.59 1039.17 218.95 1039.17 217.66C1039.17 217.45 1039.17 217.3 1039.19 217.2C1038.8 217.97 1038.32 218.56 1037.76 218.97C1037.2 219.38 1036.62 219.59 1036.02 219.59C1035.24 219.59 1034.6 219.27 1034.11 218.63C1033.62 217.99 1033.38 217.07 1033.38 215.85C1033.38 214.03 1033.81 212.47 1034.68 211.17C1035.55 209.87 1036.62 209.22 1037.89 209.22C1038.59 209.22 1039.33 209.56 1040.12 210.25L1040.11 210.23ZM1039.38 215.4L1039.88 211.85C1039.46 211.35 1039 211.09 1038.51 211.09C1038.02 211.09 1037.58 211.47 1037.22 212.23C1036.86 212.99 1036.68 213.96 1036.68 215.14C1036.68 216.85 1036.99 217.7 1037.6 217.7C1037.85 217.7 1038.15 217.48 1038.5 217.05C1038.85 216.62 1039.14 216.06 1039.36 215.39L1039.38 215.4Z" fill="#3C3835"/>
<path d="M1048.39 214.47C1048.22 216.05 1048.14 217.24 1048.14 218.04C1048.14 218.29 1048.17 218.63 1048.22 219.05C1047.7 219.29 1047.11 219.41 1046.43 219.41C1045.37 219.41 1044.83 219.02 1044.83 218.23C1044.83 218.12 1044.97 217.16 1045.25 215.34C1045.53 213.53 1045.67 212.41 1045.67 211.99C1045.67 211.37 1045.45 211.02 1045.02 210.92C1045.08 210.46 1045.3 210.05 1045.68 209.7C1046.06 209.35 1046.56 209.18 1047.18 209.18C1048.34 209.18 1048.92 209.75 1048.92 210.9C1048.92 211.1 1048.89 211.36 1048.84 211.68C1049.25 210.85 1049.7 210.23 1050.22 209.82C1050.73 209.41 1051.21 209.2 1051.66 209.2C1052.37 209.2 1052.73 209.57 1052.73 210.31C1052.73 210.63 1052.65 210.96 1052.5 211.3C1052.35 211.64 1052.15 211.9 1051.91 212.1C1051.48 211.75 1051.04 211.58 1050.61 211.58C1049.63 211.58 1048.89 212.55 1048.38 214.48L1048.39 214.47Z" fill="#3C3835"/>
<path d="M1055.47 209.18C1056.53 209.18 1057.07 209.81 1057.07 211.07C1057.07 211.63 1056.92 212.62 1056.61 214.05C1056.3 215.48 1056.15 216.36 1056.15 216.7C1056.15 217.26 1056.37 217.68 1056.82 217.96C1056.62 218.49 1056.33 218.89 1055.95 219.17C1055.57 219.44 1055.14 219.58 1054.68 219.58C1053.49 219.58 1052.89 218.94 1052.89 217.67C1052.89 217.01 1053.05 215.98 1053.36 214.56C1053.68 213.15 1053.83 212.26 1053.83 211.91C1053.83 211.31 1053.61 210.98 1053.18 210.92C1053.25 210.43 1053.5 210.02 1053.93 209.68C1054.36 209.34 1054.87 209.18 1055.47 209.18ZM1055.76 208.21C1055.23 208.21 1054.83 208.05 1054.55 207.74C1054.28 207.43 1054.14 207.04 1054.14 206.6C1054.14 206.05 1054.33 205.57 1054.7 205.14C1055.07 204.71 1055.57 204.5 1056.2 204.5C1056.72 204.5 1057.12 204.67 1057.4 205C1057.68 205.34 1057.82 205.73 1057.82 206.2C1057.82 206.75 1057.64 207.22 1057.28 207.62C1056.92 208.02 1056.42 208.22 1055.76 208.22L1055.76 208.21Z" fill="#3C3835"/>
<path d="M1065.29 210.23C1065.39 209.67 1065.48 208.96 1065.57 208.09C1065.66 207.22 1065.71 206.71 1065.71 206.56C1065.71 205.96 1065.49 205.62 1065.06 205.53C1065.12 205.04 1065.36 204.63 1065.81 204.29C1066.25 203.95 1066.76 203.79 1067.33 203.79C1068.41 203.79 1068.95 204.41 1068.95 205.66C1068.95 206.15 1068.73 208.04 1068.28 211.33C1067.83 214.62 1067.61 216.42 1067.61 216.73C1067.61 217.26 1067.83 217.67 1068.26 217.97C1067.9 219.05 1067.19 219.59 1066.14 219.59C1064.95 219.59 1064.35 218.95 1064.35 217.66C1064.35 217.45 1064.35 217.3 1064.37 217.2C1063.98 217.97 1063.5 218.56 1062.94 218.97C1062.38 219.38 1061.8 219.59 1061.2 219.59C1060.42 219.59 1059.78 219.27 1059.29 218.63C1058.8 217.99 1058.56 217.07 1058.56 215.85C1058.56 214.03 1058.99 212.47 1059.86 211.17C1060.73 209.87 1061.8 209.22 1063.07 209.22C1063.77 209.22 1064.51 209.56 1065.3 210.25L1065.29 210.23ZM1064.56 215.4L1065.06 211.85C1064.64 211.35 1064.18 211.09 1063.69 211.09C1063.2 211.09 1062.76 211.47 1062.4 212.23C1062.04 212.99 1061.86 213.96 1061.86 215.14C1061.86 216.85 1062.17 217.7 1062.78 217.7C1063.03 217.7 1063.33 217.48 1063.68 217.05C1064.03 216.62 1064.32 216.06 1064.54 215.39L1064.56 215.4Z" fill="#3C3835"/>
<path d="M1145.12 327.59L325.94 327.59C319.639 327.59 314.53 332.699 314.53 339L314.53 351.62C314.53 357.922 319.639 363.03 325.94 363.03L1145.12 363.03C1151.42 363.03 1156.53 357.922 1156.53 351.62L1156.53 339C1156.53 332.699 1151.42 327.59 1145.12 327.59Z" fill="#333333"/>
<path d="M1094.31 327.59L1012.18 327.59L1012.18 336.14L1094.31 336.14L1094.31 327.59Z" fill="#F7B64E"/>
<path d="M882.78 327.59L800.65 327.59L800.65 336.14L882.78 336.14L882.78 327.59Z" fill="#F7B64E"/>
<path d="M671.24 327.59L589.11 327.59L589.11 336.14L671.24 336.14L671.24 327.59Z" fill="#F7B64E"/>
<path d="M459.7 327.59L377.57 327.59L377.57 336.14L459.7 336.14L459.7 327.59Z" fill="#F7B64E"/>
<path d="M419.32 192.46C414.17 206.98 507.87 202.5 507.87 202.5L507.87 159.59C507.87 159.59 426.44 161.74 419.32 192.46ZM568.91 159.59L518.29 159.59L517.38 202.5C517.38 202.5 608.89 201.69 612.34 201.69C615.79 201.69 593.46 159.6 568.91 159.6L568.91 159.59Z" stroke="#3C3835" stroke-width="0.25" stroke-miterlimit="10"/>
<path d="M709.78 210.89C687.05 203.37 659.3 199.05 630.48 198.68C628.17 198.66 626.22 197.19 625.33 195.06C617.46 176.34 603.88 164.3 589.23 156.55C561.81 142.03 530.61 142.56 526.09 142.56C525.86 142.56 523.67 142.58 523.43 142.58C490 142.62 462.21 148.05 439.17 156.55C391.13 174.26 363.74 205.41 348.94 229.07L350.74 229.07L340.1 246.49L337.17 251.26L337.13 251.36C336.16 253.65 335.39 255.57 334.8 257.1C334.22 258.65 332.96 259.83 331.39 260.41C316.45 265.84 313.87 272.29 314.8 277.19C315.23 279.4 316.35 281.28 317.38 282.64C318.45 284.04 320.13 284.81 321.9 284.77L324.28 284.73L350.05 284.19C350.19 284.19 350.3 284.19 350.44 284.17C352.86 283.88 354.78 282.08 355.25 279.69L355.25 279.67C355.29 279.5 355.31 279.3 355.33 279.11C355.39 278.47 355.45 277.83 355.5 277.19C355.77 275.06 356.12 273.04 356.6 271.1C356.74 270.58 356.87 270.05 357.01 269.55C357.28 268.5 357.59 267.5 357.94 266.53C358.62 264.59 359.39 262.75 360.27 261.03C360.7 260.16 361.16 259.32 361.65 258.51C362.06 257.83 362.46 257.17 362.89 256.53C364.71 253.8 366.77 251.36 368.99 249.22C369.38 248.83 369.77 248.46 370.17 248.1C370.64 247.65 371.14 247.23 371.62 246.84C372.1 246.43 372.59 246.03 373.09 245.64C373.59 245.25 374.1 244.86 374.6 244.52C375.1 244.15 375.61 243.8 376.13 243.45C377.16 242.73 378.22 242.09 379.27 241.47C379.6 241.28 379.93 241.1 380.26 240.93C380.51 240.78 380.78 240.62 381.03 240.5C381.46 240.27 381.9 240.03 382.33 239.82C383.43 239.24 384.54 238.72 385.64 238.25C386.24 237.98 386.82 237.73 387.42 237.49C389.18 236.77 390.89 236.15 392.52 235.65C393.82 235.24 395.04 234.87 396.2 234.56C396.49 234.48 396.78 234.4 397.05 234.35C397.34 234.27 397.61 234.21 397.88 234.14C398.42 234.02 398.95 233.89 399.45 233.79C399.7 233.73 399.93 233.67 400.17 233.63C400.89 233.48 401.55 233.36 402.13 233.24C402.17 233.24 402.19 233.22 402.23 233.22C402.79 233.12 403.3 233.05 403.72 232.99C404.01 232.93 404.28 232.91 404.51 232.87C404.57 232.87 404.61 232.85 404.66 232.85C404.97 232.81 405.2 232.77 405.38 232.75C405.63 232.73 405.85 232.71 406.1 232.71C406.22 232.71 406.35 232.71 406.47 232.73L406.84 232.73C407.46 232.73 408.06 232.75 408.66 232.77C409.86 232.81 411.04 232.89 412.21 232.98C413.37 233.08 414.5 233.21 415.6 233.37C416.14 233.43 416.67 233.49 417.17 233.58C417.73 233.68 418.29 233.77 418.84 233.87C419.91 234.06 420.93 234.28 421.94 234.55C424.44 235.15 426.8 235.91 429.01 236.78C429.46 236.95 429.9 237.13 430.33 237.32C432.07 238.06 433.7 238.87 435.25 239.76C435.79 240.07 436.32 240.38 436.84 240.71C437.32 241.02 437.81 241.31 438.27 241.64C439.2 242.26 440.11 242.94 440.98 243.62C441.41 243.95 441.83 244.3 442.24 244.65C442.65 245 443.05 245.35 443.46 245.72C443.87 246.07 444.25 246.44 444.62 246.81C444.91 247.08 445.18 247.35 445.45 247.62C445.82 248.01 446.19 248.38 446.54 248.76C446.91 249.15 447.26 249.54 447.59 249.92C448.99 251.55 450.26 253.23 451.43 254.96C451.53 255.1 451.62 255.21 451.68 255.33C451.7 255.35 451.72 255.37 451.7 255.39C451.99 255.8 452.26 256.2 452.51 256.63C452.74 257 452.96 257.35 453.17 257.72C453.27 257.87 453.34 258.05 453.46 258.2C454.06 259.25 454.62 260.27 455.15 261.32C455.36 261.77 455.6 262.21 455.81 262.66C456.02 263.11 456.22 263.53 456.41 263.98C456.62 264.43 456.82 264.89 456.99 265.34C457.3 266.06 457.59 266.79 457.86 267.51C458.05 268.01 458.25 268.5 458.42 269C458.85 270.22 459.25 271.42 459.62 272.6C459.81 273.3 460.03 274 460.2 274.67C460.41 275.35 460.59 276.03 460.74 276.7C460.78 276.85 460.82 277.01 460.86 277.17C461.13 278.37 461.4 279.53 461.62 280.68C461.91 282.08 462.16 283.43 462.36 284.73C462.48 285.43 462.57 286.13 462.65 286.78C462.73 287.25 462.77 287.69 462.82 288.12C463.09 290.27 463.25 292.25 463.34 294.01C463.42 294.96 463.46 295.85 463.48 296.66C463.58 299.66 466.06 302.03 469.06 302.03L572.9 302.03C574.78 302.03 576.66 301.87 578.56 301.58C578.89 301.52 579.2 301.48 579.53 301.41C580.01 301.33 580.52 301.24 581.02 301.12C581.72 300.98 582.42 300.81 583.11 300.62C583.13 300.62 583.15 300.62 583.17 300.6C583.64 300.5 584.12 300.37 584.6 300.21C587.02 299.49 589.48 298.56 591.96 297.48C592.62 297.21 593.28 296.9 593.92 296.59C595.72 295.74 597.54 294.81 599.38 293.8C599.92 293.51 600.47 293.2 600.99 292.89C603.14 291.67 605.33 290.33 607.52 288.92C608.06 288.57 608.61 288.22 609.17 287.85C610.39 287.04 611.63 286.2 612.87 285.35C613.94 284.61 615 283.86 616.09 283.1C618.78 281.18 621.48 279.2 624.21 277.17C636.17 268.24 648.53 258.37 661.26 250.21C662.71 249.26 664.17 248.35 665.62 247.48C667.19 246.55 668.74 245.64 670.31 244.75C671.05 244.34 671.78 243.94 672.52 243.55C674.79 242.33 677.07 241.19 679.36 240.14C679.83 239.91 680.31 239.69 680.79 239.5C680.89 239.44 681 239.4 681.1 239.36C681.45 239.2 681.82 239.05 682.17 238.89C684.07 238.08 685.99 237.32 687.93 236.66C688.14 236.58 688.38 236.51 688.61 236.43C688.78 236.35 688.98 236.29 689.15 236.24C689.73 236.05 690.29 235.87 690.89 235.7C691.47 235.51 692.07 235.33 692.65 235.18C693.21 235.02 693.77 234.87 694.36 234.73C694.96 234.58 695.56 234.42 696.18 234.28C698.99 233.64 701.8 233.18 704.65 232.94C705.19 232.88 705.75 232.84 706.3 232.82C707.42 232.74 708.55 232.7 709.67 232.7C710.41 232.7 711.12 232.72 711.82 232.74C712.4 232.74 712.96 232.78 713.53 232.8C714.73 232.88 715.89 232.96 717.04 233.09C717.62 233.15 718.18 233.23 718.76 233.3C719.61 233.42 720.45 233.53 721.28 233.69C721.57 233.75 721.84 233.81 722.11 233.84C722.61 233.94 723.1 234.03 723.58 234.15C724.14 234.27 724.72 234.4 725.27 234.56C726.2 234.79 727.11 235.04 728 235.34C728.58 235.51 729.16 235.71 729.72 235.92C730.28 236.11 730.84 236.33 731.39 236.54C732.3 236.91 733.17 237.28 734.04 237.68C737.18 239.13 739.99 240.86 742.51 242.78C742.98 243.13 743.44 243.5 743.91 243.88C744.49 244.35 745.05 244.83 745.6 245.31C745.95 245.64 746.3 245.97 746.63 246.28C747.06 246.69 747.48 247.11 747.89 247.54C748.63 248.3 749.32 249.07 749.98 249.85C750.6 250.55 751.16 251.26 751.7 251.98C751.99 252.37 752.3 252.77 752.59 253.18C754.33 255.54 755.81 257.97 757.01 260.37C757.46 261.22 757.88 262.08 758.27 262.93C758.48 263.36 758.68 263.78 758.83 264.19C759.2 265.02 759.55 265.84 759.86 266.65C760.05 267.08 760.21 267.48 760.33 267.87C760.64 268.66 760.91 269.46 761.16 270.21C761.53 271.33 761.86 272.4 762.13 273.43C762.23 273.76 762.3 274.07 762.38 274.38C762.48 274.71 762.55 275.04 762.63 275.35C762.78 275.99 762.94 276.59 763.06 277.15C763.21 277.83 763.33 278.47 763.45 279.07C763.95 281.72 766.24 283.66 768.95 283.66L770.89 283.66C773.99 283.66 776.49 281.16 776.49 278.08L776.49 266.9C776.49 263.82 773.99 261.32 770.89 261.32C769.49 261.32 768.22 260.8 767.25 259.94C766.28 259.07 765.6 257.87 765.39 256.49C763.88 246.86 757.92 238.1 748.51 230.56C730.97 216.5 709.75 210.85 709.75 210.85L709.78 210.89Z" fill="#C8161E"/>
<path d="M507.86 159.58L507.86 202.49C507.86 202.49 414.16 206.97 419.33 192.45C426.44 161.73 507.86 159.58 507.86 159.58Z" stroke="#3C3835" stroke-width="0.25" stroke-miterlimit="10"/>
<path d="M612.34 201.67C608.89 201.67 517.39 202.49 517.39 202.49L518.29 159.58L568.91 159.58C593.47 159.58 615.83 201.67 612.34 201.67Z" stroke="#3C3835" stroke-width="0.25" stroke-miterlimit="10"/>
<path d="M350.75 229.07L337.18 251.26C339.68 245.57 343.43 237.86 348.94 229.07L350.75 229.07Z" stroke="#3C3835" stroke-width="0.25" stroke-miterlimit="10"/>
<path d="M507.86 159.58L507.86 202.49C507.86 202.49 414.16 206.97 419.33 192.45C426.44 161.73 507.86 159.58 507.86 159.58Z" stroke="#3C3835" stroke-width="0.25" stroke-miterlimit="10"/>
<path d="M612.34 201.67C608.89 201.67 517.39 202.49 517.39 202.49L518.29 159.58L568.91 159.58C593.47 159.58 615.83 201.67 612.34 201.67Z" stroke="#3C3835" stroke-width="0.25" stroke-miterlimit="10"/>
<path d="M350.75 229.07L340.1 246.48L337.17 251.26L337.13 251.35L337.13 229.07L350.75 229.07Z" fill="#9B1C19"/>
<path d="M507.86 159.59L507.86 202.5C507.86 202.5 414.16 206.98 419.33 192.46C426.44 161.74 507.86 159.59 507.86 159.59Z" fill="#289BAB"/>
<path d="M612.34 201.67C608.89 201.67 517.39 202.49 517.39 202.49L518.29 159.58L568.91 159.58C593.47 159.58 615.83 201.67 612.34 201.67Z" fill="#289BAB"/>
<path d="M764.16 283.7L764.16 294.09L755.63 294.09C755.63 294.09 756.19 286.55 754.29 277.19C753.03 271.05 750.72 264.13 746.48 258.02C740.1 248.85 729.43 241.57 711.54 241.57C681.71 241.57 670.69 261.82 666.62 277.19C665.53 281.34 664.93 285.12 664.62 288.06C664.19 291.72 664.23 294.09 664.23 294.09L664.97 302.06L572.92 302.06C574.8 302.06 576.68 301.9 578.58 301.61C578.91 301.55 579.22 301.51 579.55 301.44C580.03 301.36 580.54 301.27 581.04 301.15C581.74 301.01 582.44 300.84 583.13 300.65C583.15 300.65 583.17 300.65 583.19 300.63C583.66 300.51 584.14 300.38 584.62 300.24C587.04 299.52 589.5 298.59 591.98 297.51C592.64 297.24 593.3 296.93 593.94 296.62C595.74 295.77 597.56 294.84 599.4 293.83C599.92 293.54 600.47 293.25 601.01 292.92C603.16 291.7 605.35 290.36 607.54 288.95C608.08 288.6 608.63 288.25 609.19 287.88C610.41 287.07 611.65 286.23 612.89 285.38C613.96 284.64 615.04 283.89 616.11 283.13C618.8 281.21 621.5 279.23 624.23 277.2C636.19 268.27 648.55 258.4 661.28 250.24C662.73 249.31 664.19 248.4 665.64 247.51C667.21 246.58 668.76 245.67 670.33 244.78C671.07 244.37 671.8 243.97 672.54 243.58C674.81 242.36 677.09 241.22 679.38 240.17C679.85 239.94 680.33 239.72 680.81 239.53C680.91 239.47 681.02 239.43 681.12 239.39C681.47 239.23 681.84 239.08 682.19 238.92C684.09 238.11 686.01 237.35 687.95 236.69C688.16 236.61 688.4 236.54 688.63 236.46C688.8 236.38 689 236.32 689.17 236.27C689.75 236.08 690.33 235.9 690.91 235.73C691.49 235.54 692.07 235.38 692.67 235.21C693.23 235.05 693.79 234.9 694.38 234.76C694.98 234.61 695.58 234.45 696.2 234.31C699.01 233.67 701.82 233.21 704.67 232.97C705.21 232.91 705.77 232.87 706.32 232.85C707.44 232.77 708.57 232.73 709.69 232.73C710.43 232.73 711.14 232.75 711.84 232.77C712.42 232.77 712.98 232.81 713.55 232.83C714.75 232.91 715.91 232.99 717.06 233.12C717.64 233.18 718.2 233.26 718.78 233.33C719.63 233.45 720.47 233.56 721.3 233.72C721.59 233.78 721.86 233.84 722.13 233.87C722.63 233.97 723.12 234.06 723.6 234.18C724.18 234.3 724.74 234.43 725.29 234.59C726.22 234.82 727.13 235.07 728.02 235.37C728.6 235.54 729.18 235.74 729.74 235.95C730.3 236.14 730.86 236.36 731.41 236.57C732.32 236.94 733.19 237.31 734.06 237.71C737.2 239.16 740.01 240.89 742.53 242.81C743 243.16 743.46 243.53 743.93 243.91C744.51 244.38 745.07 244.86 745.62 245.34C745.97 245.67 746.32 246 746.65 246.31C747.08 246.72 747.5 247.14 747.91 247.57C748.65 248.33 749.34 249.1 750 249.88C750.6 250.58 751.16 251.29 751.72 252.01C752.01 252.4 752.32 252.8 752.61 253.21C753.09 253.89 753.56 254.59 754.01 255.26C755.13 256.97 756.14 258.69 757.03 260.4C757.48 261.25 757.88 262.11 758.29 262.96C758.48 263.37 758.68 263.79 758.85 264.22C759.22 265.05 759.57 265.87 759.88 266.68C760.05 267.09 760.19 267.49 760.35 267.9C760.64 268.69 760.93 269.47 761.18 270.24C761.55 271.36 761.88 272.43 762.15 273.46C762.25 273.79 762.32 274.1 762.4 274.41C762.5 274.74 762.57 275.07 762.65 275.38C762.8 276.02 762.96 276.62 763.08 277.18C763.23 277.86 763.35 278.5 763.47 279.1C764.01 281.95 764.15 283.69 764.15 283.69L764.16 283.7Z" fill="#F8F7F0"/>
<path d="M463.51 296.93C463.61 299.76 461.32 302.05 458.51 302.05C455.7 302.05 453.37 299.67 453.51 296.82C453.68 293.27 453.7 288.22 452.99 282.63C452.76 280.87 452.47 279.03 452.08 277.18C448.67 260.77 438.22 242.3 408.69 242.3C376.31 242.3 366.5 261.87 363.77 277.18C363.42 279.08 363.19 280.9 363.03 282.63C362.8 285.44 362.76 287.96 362.82 289.99C362.9 292.78 360.63 295.07 357.82 295.07L324.39 295.07C321.62 295.07 319.39 292.84 319.39 290.07L319.39 289.72C319.39 286.99 321.56 284.78 324.29 284.72L350.06 284.18L350.43 284.18L350.45 284.16C352.29 282.45 353.43 281.37 355.26 279.68L355.26 279.66C355.26 279.66 355.32 279.62 355.34 279.6C355.4 278.79 355.48 277.97 355.57 277.18C355.8 275.05 356.17 273.03 356.62 271.09C356.76 270.57 356.89 270.04 357.03 269.54C357.3 268.49 357.61 267.51 357.96 266.52C358.64 264.58 359.41 262.74 360.29 261.02C360.74 260.15 361.18 259.31 361.67 258.5C362.08 257.82 362.48 257.16 362.91 256.52C364.73 253.79 366.79 251.35 369.01 249.21C369.4 248.82 369.79 248.45 370.19 248.09C370.66 247.64 371.16 247.22 371.64 246.83C372.12 246.42 372.61 246.02 373.11 245.63C373.61 245.24 374.12 244.85 374.62 244.51C375.12 244.14 375.63 243.79 376.15 243.44C377.18 242.72 378.24 242.08 379.29 241.46C379.62 241.29 379.95 241.09 380.28 240.92C380.53 240.77 380.8 240.61 381.05 240.49C381.48 240.26 381.92 240.02 382.35 239.81C383.45 239.23 384.56 238.71 385.66 238.24C386.26 237.97 386.84 237.72 387.44 237.48C389.2 236.76 390.91 236.14 392.54 235.64C393.84 235.21 395.06 234.85 396.22 234.55C396.51 234.47 396.8 234.39 397.07 234.34C397.36 234.26 397.63 234.2 397.9 234.13C398.44 234.01 398.97 233.88 399.47 233.78C399.72 233.72 399.95 233.66 400.19 233.62C400.91 233.47 401.55 233.33 402.15 233.23C402.19 233.23 402.21 233.21 402.25 233.21C402.81 233.11 403.32 233.04 403.74 232.98C404.03 232.92 404.3 232.9 404.53 232.86C404.59 232.86 404.63 232.84 404.68 232.84C405.28 232.76 405.88 232.72 406.48 232.72L406.85 232.72C407.47 232.72 408.07 232.74 408.67 232.76C409.89 232.82 411.07 232.88 412.22 232.97C413.38 233.07 414.51 233.2 415.61 233.36C416.13 233.42 416.66 233.5 417.18 233.57C417.74 233.67 418.3 233.76 418.85 233.86C419.92 234.07 420.94 234.29 421.95 234.54C424.45 235.14 426.81 235.9 429.02 236.77C429.47 236.94 429.91 237.12 430.34 237.31C432.08 238.05 433.71 238.86 435.26 239.75C435.8 240.06 436.33 240.37 436.85 240.7C437.33 241.01 437.82 241.3 438.28 241.63C439.21 242.25 440.12 242.93 440.99 243.61C441.42 243.94 441.84 244.29 442.25 244.64C442.66 244.99 443.06 245.34 443.47 245.71C443.88 246.06 444.26 246.43 444.63 246.8C444.92 247.07 445.19 247.34 445.46 247.61C445.83 248 446.2 248.37 446.55 248.75C446.92 249.14 447.27 249.53 447.6 249.91C449 251.54 450.27 253.22 451.44 254.95C451.54 255.07 451.61 255.2 451.69 255.32C451.71 255.34 451.73 255.36 451.71 255.38C452 255.79 452.27 256.19 452.52 256.62C452.75 256.99 452.97 257.34 453.18 257.71C453.28 257.86 453.35 258.04 453.47 258.19C454.07 259.24 454.63 260.26 455.16 261.31C455.37 261.76 455.61 262.2 455.82 262.65C456.03 263.1 456.23 263.52 456.42 263.97C456.63 264.42 456.83 264.88 457 265.33C457.31 266.05 457.6 266.78 457.87 267.5C458.06 268 458.26 268.49 458.43 268.99C458.86 270.21 459.26 271.41 459.63 272.59C459.82 273.29 460.04 273.99 460.21 274.66C460.4 275.34 460.58 276.02 460.75 276.69C460.79 276.84 460.83 277 460.87 277.16C461.14 278.36 461.41 279.52 461.63 280.67C461.77 281.33 461.88 281.97 462 282.61C462.14 283.33 462.25 284.02 462.37 284.72C462.47 285.42 462.56 286.1 462.66 286.77C462.72 287.22 462.78 287.66 462.83 288.11C463.1 290.26 463.26 292.24 463.35 294C463.43 295.05 463.47 296.03 463.49 296.91L463.51 296.93Z" fill="#F8F7F0"/>
<path d="M746.02 211.15L746.02 228.6C745.07 227.87 744.12 227.22 743.13 226.53C734.17 220.46 723.01 215.24 710.22 211.02L745.89 211.02C745.98 211.06 746.02 211.11 746.02 211.15Z" fill="#981A18"/>
<path d="M745.89 211.02L746.02 211.02L746.02 211.15" stroke="#3C3835" stroke-width="0.25" stroke-miterlimit="10"/>
<path d="M748.05 230.19C747.4 229.63 746.71 229.11 746.03 228.6L746.03 211.15C752.41 218.65 750.64 225.67 748.05 230.19Z" fill="#85C1BD"/>
<path d="M337.14 232.74L332.44 232.74L332.44 246.48L337.14 246.48L337.14 232.74Z" fill="#81616A"/>
<path d="M751.92 277.18C750.45 270.44 747.39 264.31 743.14 259.23C742.36 258.28 741.59 257.41 740.72 256.56C733.06 248.89 722.5 244.1 710.84 244.1C710.14 244.1 709.46 244.12 708.79 244.16C708.27 244.18 707.74 244.22 707.24 244.26C706.97 244.28 706.7 244.3 706.43 244.34C705.87 244.4 705.31 244.46 704.76 244.55C703.29 244.76 701.81 245.05 700.4 245.42C699.9 245.54 699.39 245.67 698.91 245.83C698.37 245.98 697.82 246.16 697.28 246.35C697.14 246.39 697.01 246.43 696.87 246.49C696.42 246.65 695.98 246.8 695.53 246.99C695.26 247.09 695.01 247.18 694.76 247.3C694.29 247.47 693.85 247.67 693.42 247.88C692.99 248.07 692.57 248.27 692.16 248.48C691.85 248.62 691.56 248.77 691.27 248.93C690.82 249.16 690.4 249.41 689.97 249.65C689.41 249.96 688.87 250.31 688.32 250.66C687.51 251.18 686.71 251.73 685.94 252.31C685.55 252.58 685.16 252.87 684.78 253.18C684.63 253.3 684.47 253.43 684.31 253.55C683.79 253.98 683.26 254.42 682.76 254.89C682.18 255.41 681.62 255.94 681.07 256.5C680.91 256.65 680.74 256.83 680.59 256.98C680.38 257.19 680.16 257.43 679.97 257.64C679.74 257.89 679.5 258.14 679.29 258.42C677.68 260.24 676.23 262.2 674.97 264.29C674.62 264.83 674.31 265.39 674 265.96C673.77 266.39 673.53 266.81 673.34 267.24C672.51 268.83 671.81 270.5 671.23 272.2C671.08 272.59 670.94 272.98 670.82 273.38C670.78 273.44 670.76 273.52 670.76 273.57C670.66 273.82 670.59 274.07 670.53 274.33C670.51 274.39 670.49 274.45 670.49 274.5C670.35 274.95 670.24 275.39 670.12 275.84C669.98 276.29 669.89 276.73 669.79 277.2C669.52 278.4 669.32 279.62 669.17 280.88C669.07 281.54 669.02 282.22 668.96 282.9C668.86 284.02 668.82 285.09 668.82 286.21L668.82 286.52C668.99 309.6 687.7 328.26 710.83 328.26C733.96 328.26 752.86 309.42 752.86 286.21C752.86 283.11 752.53 280.11 751.91 277.2L751.92 277.18ZM735.12 293.73C734.91 294.43 734.67 295.09 734.4 295.75C734.36 295.87 734.3 295.96 734.26 296.08C734.01 296.64 733.74 297.2 733.47 297.75C732.89 298.84 732.25 299.9 731.55 300.89C731.3 301.26 731.05 301.63 730.76 301.98C729.64 303.39 728.38 304.69 726.98 305.82C726.51 306.21 726.01 306.58 725.53 306.92C725.05 307.27 724.54 307.6 724.04 307.93C723.34 308.34 722.63 308.72 721.87 309.09C721.48 309.3 721.09 309.48 720.71 309.65C720.34 309.81 719.97 309.94 719.61 310.06C719.22 310.21 718.83 310.35 718.43 310.45C718.02 310.59 717.64 310.7 717.23 310.8C717.21 310.8 717.19 310.82 717.19 310.82C715.17 311.34 713.06 311.63 710.85 311.63C707.34 311.63 704.03 310.93 701.02 309.65C701.02 309.61 701 309.61 701 309.61C700.96 309.61 700.92 309.65 700.92 309.65C698.69 308.64 696.62 307.44 694.72 305.81C694.08 305.29 693.48 304.72 692.9 304.14C692.69 303.93 692.49 303.73 692.28 303.52C691.93 303.13 691.58 302.74 691.25 302.34C691 302.03 690.75 301.7 690.49 301.39C690.01 300.73 689.54 300.05 689.11 299.36C688.49 298.33 687.93 297.25 687.44 296.14C687.28 295.73 687.13 295.33 686.97 294.92C686.66 294.14 686.41 293.35 686.21 292.54C686 291.73 685.82 290.89 685.71 290.06C685.5 288.8 685.4 287.52 685.4 286.2C685.4 284.88 685.5 283.58 685.71 282.3C685.79 281.89 685.85 281.47 685.94 281.06C686.21 279.72 686.58 278.42 687.06 277.18C687.49 276.06 687.99 274.97 688.57 273.92C688.76 273.57 688.96 273.24 689.17 272.89C689.56 272.27 689.98 271.65 690.41 271.05C690.68 270.68 690.95 270.33 691.24 269.98C691.74 269.38 692.27 268.8 692.85 268.24C692.85 268.24 692.856 268.227 692.87 268.2C693.28 267.75 693.74 267.33 694.19 266.96C694.27 266.9 694.33 266.84 694.4 266.8C694.5 266.72 694.57 266.65 694.65 266.59C694.9 266.38 695.17 266.18 695.42 265.97C695.73 265.74 696.04 265.5 696.35 265.31C696.64 265.1 696.93 264.9 697.24 264.71C697.55 264.52 697.84 264.32 698.15 264.15C698.48 263.98 698.79 263.8 699.1 263.63C700.53 262.89 702.05 262.29 703.62 261.81C704.14 261.65 704.69 261.52 705.23 261.4C706.32 261.13 707.42 260.95 708.54 260.88C708.91 260.84 709.28 260.8 709.66 260.8C709.85 260.78 710.05 260.76 710.24 260.78L710.8 260.78C711.46 260.78 712.12 260.8 712.76 260.86C713.85 260.92 714.91 261.07 715.94 261.29C716.02 261.29 716.09 261.31 716.17 261.35C716.4 261.39 716.62 261.43 716.85 261.49C717.22 261.59 717.61 261.68 717.97 261.8C718.18 261.86 718.38 261.92 718.59 261.99C719.15 262.16 719.69 262.36 720.24 262.59C720.84 262.84 721.44 263.09 722 263.4C722.14 263.46 722.27 263.52 722.41 263.59C722.55 263.66 722.68 263.73 722.8 263.78C723.01 263.9 723.23 263.99 723.42 264.13C723.96 264.44 724.51 264.77 725.01 265.12C725.34 265.35 725.67 265.59 726 265.82L726.02 265.82C726.68 266.3 727.3 266.81 727.92 267.37C729.26 268.59 730.48 269.97 731.52 271.46C732.24 272.45 732.88 273.49 733.44 274.6C733.73 275.16 733.98 275.72 734.23 276.29C734.29 276.43 734.35 276.58 734.4 276.74C734.44 276.82 734.48 276.91 734.52 276.99C734.54 277.07 734.58 277.13 734.6 277.18C734.62 277.24 734.64 277.3 734.66 277.37C734.7 277.47 734.74 277.56 734.76 277.66C734.88 277.97 734.99 278.28 735.09 278.61C735.34 279.42 735.56 280.24 735.71 281.07C736.04 282.72 736.21 284.44 736.21 286.19C736.21 287.94 736.04 289.64 735.71 291.31C735.56 292.12 735.34 292.94 735.09 293.73L735.12 293.73Z" fill="#3C3C3B"/>
<path d="M735.73 281.08C735.58 280.25 735.36 279.43 735.11 278.62C735.01 278.29 734.9 277.98 734.78 277.67C734.76 277.57 734.72 277.48 734.68 277.38C734.66 277.32 734.62 277.24 734.6 277.19C734.58 277.13 734.56 277.05 734.54 277C734.5 276.92 734.46 276.83 734.42 276.75C734.36 276.59 734.3 276.44 734.25 276.3C734 275.74 733.75 275.18 733.46 274.61C732.9 273.51 732.26 272.46 731.54 271.47C730.49 269.98 729.27 268.6 727.94 267.38C727.32 266.82 726.7 266.31 726.04 265.83L726.02 265.83C725.69 265.6 725.36 265.36 725.03 265.13C724.51 264.78 723.98 264.45 723.44 264.14C723.25 264 723.03 263.91 722.82 263.79C722.7 263.73 722.57 263.67 722.43 263.6C722.31 263.52 722.2 263.46 722.06 263.41L722.02 263.41C721.46 263.1 720.86 262.85 720.26 262.6C719.72 262.37 719.17 262.17 718.61 262C718.4 261.92 718.2 261.86 717.99 261.81C717.62 261.69 717.23 261.6 716.87 261.5C716.64 261.44 716.42 261.4 716.19 261.36C716.11 261.32 716.04 261.3 715.96 261.3C714.93 261.09 713.87 260.93 712.78 260.87C712.14 260.79 711.5 260.77 710.84 260.77C710.65 260.77 710.45 260.77 710.26 260.79C710.07 260.77 709.87 260.79 709.68 260.81C709.29 260.81 708.92 260.85 708.56 260.89C707.44 260.97 706.33 261.14 705.25 261.41C704.71 261.53 704.16 261.66 703.64 261.82C702.05 262.27 700.54 262.89 699.12 263.64C698.81 263.81 698.5 263.99 698.17 264.16C697.86 264.33 697.57 264.53 697.26 264.72C696.95 264.91 696.66 265.11 696.37 265.32C696.06 265.51 695.75 265.75 695.44 265.98C695.19 266.19 694.92 266.39 694.67 266.6C694.59 266.66 694.51 266.74 694.42 266.81C694.34 266.85 694.28 266.91 694.21 266.97C693.76 267.38 693.32 267.78 692.89 268.21C692.89 268.21 692.883 268.223 692.87 268.25C692.29 268.81 691.77 269.39 691.26 269.99C690.97 270.34 690.7 270.69 690.43 271.06C690 271.66 689.58 272.28 689.19 272.9C688.98 273.25 688.78 273.58 688.59 273.93C688.01 274.98 687.5 276.06 687.08 277.19C686.6 278.43 686.23 279.73 685.96 281.07C685.86 281.48 685.8 281.9 685.73 282.31C685.54 283.57 685.44 284.87 685.44 286.19C685.44 287.51 685.54 288.81 685.73 290.07C685.87 290.9 686.04 291.74 686.23 292.55C686.44 293.36 686.7 294.16 686.99 294.93C687.14 295.34 687.3 295.74 687.46 296.15C687.94 297.25 688.51 298.34 689.13 299.37C689.56 300.07 690.02 300.75 690.51 301.4C690.76 301.71 691.01 302.04 691.27 302.35C691.6 302.76 691.95 303.14 692.3 303.53C692.51 303.74 692.71 303.94 692.92 304.15C693.5 304.73 694.1 305.29 694.74 305.82C696.62 307.37 698.73 308.65 701.02 309.62C704.04 310.9 707.38 311.6 710.88 311.6C713.05 311.6 715.18 311.33 717.2 310.82C717.2 310.82 717.22 310.8 717.24 310.8C717.65 310.7 718.03 310.59 718.44 310.45C718.83 310.33 719.23 310.2 719.62 310.06C720.4 309.77 721.15 309.46 721.89 309.09C722.65 308.72 723.36 308.33 724.06 307.93C724.56 307.6 725.07 307.27 725.55 306.92C726.03 306.57 726.54 306.2 727 305.82C728.4 304.7 729.66 303.4 730.78 301.98C731.07 301.63 731.32 301.26 731.57 300.89C732.31 299.9 732.93 298.86 733.49 297.75C733.76 297.21 734.03 296.65 734.28 296.08C734.32 295.96 734.38 295.87 734.42 295.75C734.69 295.09 734.92 294.43 735.14 293.73C735.39 292.94 735.61 292.12 735.76 291.31C736.11 289.64 736.28 287.94 736.28 286.17C736.28 284.4 736.11 282.72 735.76 281.07L735.73 281.08ZM719.99 287.15C719.93 287.75 719.82 288.35 719.64 288.91C719.45 289.45 719.23 290 718.96 290.5C718.88 290.66 718.79 290.79 718.71 290.93C718.54 291.24 718.32 291.55 718.09 291.84C717.97 291.98 717.86 292.13 717.74 292.27C717.62 292.41 717.49 292.54 717.35 292.68C717.14 292.89 716.92 293.09 716.69 293.28C715.78 294.04 714.71 294.62 713.57 294.97C713.28 295.05 712.99 295.13 712.7 295.18C712.1 295.32 711.48 295.37 710.84 295.37C705.74 295.37 701.65 291.26 701.65 286.18C701.65 285.95 701.65 285.71 701.67 285.46C701.69 285.25 701.71 285.03 701.75 284.82C701.73 284.8 701.75 284.76 701.77 284.72C701.79 284.51 701.83 284.29 701.89 284.1C701.91 283.98 701.93 283.85 701.99 283.73C702.01 283.63 702.05 283.54 702.07 283.44C702.11 283.27 702.17 283.09 702.24 282.94C702.3 282.79 702.36 282.61 702.43 282.46C702.47 282.38 702.49 282.31 702.55 282.23C702.65 282.02 702.76 281.8 702.9 281.59C702.88 281.55 702.9 281.53 702.92 281.51C702.96 281.43 703 281.37 703.06 281.3C703.06 281.3 703.067 281.287 703.08 281.26C703.23 281.05 703.39 280.81 703.55 280.62C703.69 280.39 703.88 280.17 704.07 279.98C704.15 279.88 704.24 279.79 704.34 279.69C704.86 279.17 705.44 278.7 706.06 278.33C706.33 278.18 706.6 278 706.89 277.88C707.26 277.69 707.67 277.53 708.07 277.4C708.34 277.3 708.61 277.24 708.9 277.19L708.94 277.19C709.54 277.03 710.18 276.98 710.84 276.98C711.15 276.98 711.44 277 711.75 277.04C712.1 277.06 712.45 277.12 712.78 277.2C713.05 277.26 713.3 277.32 713.56 277.41C713.85 277.49 714.12 277.6 714.39 277.72C714.68 277.82 714.95 277.95 715.2 278.11C715.99 278.52 716.71 279.04 717.33 279.7C717.54 279.89 717.74 280.11 717.93 280.34C717.93 280.34 717.91 280.34 717.93 280.36C718.12 280.57 718.3 280.81 718.45 281.06C718.62 281.31 718.78 281.56 718.92 281.84C719.23 282.4 719.48 283.02 719.66 283.66C719.74 283.89 719.8 284.13 719.83 284.36C719.91 284.65 719.95 284.96 719.98 285.27C720.02 285.58 720.04 285.89 720.04 286.2C720.04 286.53 720.02 286.86 719.98 287.17L719.99 287.15Z" fill="#D2D2C6"/>
<path d="M720.04 286.2C720.04 291.28 715.91 295.37 710.82 295.37C705.73 295.37 701.65 291.28 701.65 286.2C701.65 281.12 705.74 276.98 710.82 276.98C715.9 276.98 720.04 281.11 720.04 286.2Z" fill="#F9F9F0"/>
<path d="M449.5 282.63C449.44 281.89 449.36 281.18 449.27 280.46C449.19 279.94 449.12 279.39 449.02 278.87C448.92 278.31 448.81 277.75 448.69 277.18C448.59 276.7 448.48 276.23 448.36 275.77C448.21 275.21 448.07 274.65 447.89 274.08C447.29 272.05 446.53 270.07 445.62 268.17C445.39 267.67 445.15 267.18 444.88 266.7C442.92 262.96 440.42 259.55 437.46 256.56C429.84 248.89 419.28 244.1 407.62 244.1C406.92 244.1 406.24 244.12 405.57 244.16C405.09 244.18 404.6 244.2 404.12 244.26C403.42 244.3 402.72 244.38 402.05 244.47C401.72 244.53 401.39 244.57 401.06 244.61C401.04 244.61 401 244.63 400.98 244.63C400.51 244.71 400.03 244.78 399.57 244.88C399.2 244.94 398.83 245.02 398.47 245.11C398 245.21 397.5 245.34 397.04 245.44C395.97 245.73 394.91 246.04 393.88 246.41C393.26 246.62 392.64 246.84 392.04 247.09C391.56 247.28 391.07 247.5 390.59 247.71C390.16 247.9 389.74 248.1 389.33 248.29C388.92 248.48 388.54 248.68 388.15 248.89C387.32 249.32 386.5 249.78 385.73 250.29C385.46 250.43 385.21 250.6 384.94 250.77C384.22 251.22 383.53 251.7 382.87 252.18C382.39 252.53 381.92 252.9 381.46 253.28C380.78 253.78 380.14 254.35 379.52 254.91C379.07 255.32 378.63 255.74 378.2 256.17C377.7 256.65 377.21 257.16 376.75 257.68C376.58 257.87 376.4 258.05 376.23 258.24C375.86 258.63 375.53 259.03 375.2 259.44C374.79 259.92 374.39 260.43 374.02 260.93C373.55 261.53 373.13 262.15 372.72 262.77C372.31 263.37 371.93 263.99 371.56 264.61C371.11 265.37 370.69 266.12 370.3 266.9C369.99 267.48 369.7 268.08 369.43 268.68C369.18 269.22 368.95 269.77 368.73 270.31C368.5 270.85 368.28 271.41 368.09 271.98C367.9 272.54 367.7 273.1 367.53 273.69C367.43 273.96 367.36 274.25 367.28 274.54C367.18 274.83 367.11 275.12 367.05 275.41C366.9 275.99 366.76 276.57 366.62 277.17C366.48 277.67 366.39 278.18 366.29 278.7C366.19 279.24 366.12 279.8 366.04 280.35C366.02 280.52 365.98 280.72 365.96 280.89C365.9 281.47 365.82 282.03 365.79 282.61C365.75 282.69 365.75 282.78 365.75 282.86C365.65 283.98 365.61 285.05 365.61 286.17C365.61 309.39 384.43 328.22 407.66 328.22C430.89 328.22 449.69 309.38 449.69 286.17C449.69 284.97 449.65 283.77 449.54 282.6L449.5 282.63ZM432.33 291.99C432.23 292.46 432.1 292.9 431.96 293.37C431.84 293.78 431.73 294.18 431.59 294.57C431.47 294.98 431.32 295.38 431.14 295.77C431 296.1 430.87 296.43 430.71 296.76C430.55 297.09 430.4 297.42 430.23 297.75C429.96 298.29 429.67 298.84 429.32 299.34C429.22 299.53 429.11 299.73 428.97 299.92C428.85 300.11 428.72 300.31 428.58 300.5C428.35 300.87 428.1 301.24 427.81 301.59C427.71 301.71 427.64 301.84 427.52 301.96C427.21 302.39 426.86 302.79 426.49 303.2C425.27 304.56 423.89 305.78 422.4 306.82C422.21 306.96 422.01 307.09 421.82 307.23C421.8 307.25 421.76 307.27 421.74 307.27C421.08 307.74 420.42 308.16 419.72 308.53C419.35 308.72 418.98 308.92 418.6 309.11C418.23 309.3 417.86 309.48 417.48 309.65C416.59 310.02 415.66 310.35 414.71 310.6C414.26 310.74 413.8 310.87 413.33 310.95C411.49 311.4 409.57 311.63 407.61 311.63C404.12 311.63 400.75 310.93 397.75 309.65C397.69 309.59 397.69 309.65 397.69 309.65C396.97 309.3 396.26 308.95 395.52 308.53L395.5 308.53C394.78 308.14 394.09 307.72 393.43 307.27C392.75 306.82 392.11 306.32 391.49 305.82C391.45 305.78 391.43 305.76 391.39 305.72C391.04 305.43 390.69 305.12 390.34 304.81C389.97 304.48 389.6 304.11 389.27 303.74C388.88 303.33 388.5 302.93 388.15 302.5C387.88 302.15 387.61 301.8 387.36 301.45C387.15 301.2 386.93 300.93 386.74 300.66C386.55 300.39 386.37 300.12 386.2 299.83C386.05 299.6 385.89 299.36 385.75 299.11C385.46 298.68 385.21 298.2 384.94 297.71C384.79 297.36 384.65 297.05 384.47 296.72C384.39 296.56 384.33 296.41 384.28 296.25C384.09 295.8 383.91 295.36 383.76 294.91C383.68 294.74 383.64 294.6 383.61 294.46C383.59 294.4 383.59 294.34 383.57 294.29C383.49 294.13 383.43 294 383.4 293.84C383.38 293.8 383.38 293.76 383.36 293.72C383.32 293.6 383.28 293.47 383.24 293.33C383.2 293.18 383.16 293.02 383.14 292.86C383.1 292.76 383.06 292.67 383.04 292.57C383 292.45 382.96 292.34 382.94 292.22C382.84 291.89 382.77 291.54 382.71 291.21C382.63 290.82 382.55 290.45 382.5 290.07L382.5 290.01L382.44 289.66C382.4 289.37 382.36 289.06 382.34 288.75C382.24 287.92 382.19 287.04 382.19 286.17C382.19 285.41 382.23 284.64 382.33 283.88C382.33 283.74 382.35 283.61 382.37 283.47C382.41 283.18 382.45 282.89 382.51 282.6C382.55 282.17 382.61 281.77 382.68 281.36C382.7 281.17 382.74 280.97 382.8 280.8C382.84 280.49 382.92 280.18 382.99 279.89C383.13 279.39 383.28 278.86 383.44 278.36C383.54 278.07 383.63 277.8 383.73 277.51C383.77 277.39 383.81 277.28 383.87 277.16C384.12 276.46 384.41 275.8 384.74 275.14C384.84 274.93 384.95 274.71 385.07 274.5C385.4 273.8 385.79 273.14 386.19 272.5C386.89 271.41 387.66 270.39 388.52 269.42C388.87 269.01 389.26 268.61 389.64 268.22C389.66 268.2 389.68 268.18 389.7 268.16C389.89 267.95 390.11 267.75 390.32 267.56C390.53 267.37 390.75 267.17 390.98 266.98C391.13 266.82 391.31 266.69 391.46 266.57C391.63 266.43 391.79 266.3 391.94 266.18C392.09 266.04 392.27 265.93 392.44 265.79C392.59 265.65 392.75 265.54 392.91 265.44C393.24 265.21 393.57 264.97 393.92 264.76C394.5 264.37 395.1 264.02 395.72 263.69C396.22 263.42 396.75 263.17 397.27 262.93C397.42 262.85 397.6 262.79 397.75 262.74C397.92 262.68 398.1 262.62 398.25 262.55C398.52 262.43 398.77 262.34 399.02 262.24C399.16 262.18 399.29 262.12 399.45 262.1C399.57 262.04 399.68 262 399.8 261.98C399.88 261.94 399.95 261.9 400.03 261.88C400.11 261.86 400.19 261.84 400.28 261.84C400.61 261.72 400.94 261.61 401.27 261.51L401.29 261.51C401.64 261.41 401.99 261.34 402.34 261.28C402.34 261.28 402.353 261.273 402.38 261.26C402.38 261.26 402.46 261.24 402.5 261.24L402.58 261.24C403.39 261.07 404.21 260.95 405.02 260.85C405.45 260.81 405.87 260.77 406.32 260.75C406.75 260.75 407.17 260.73 407.62 260.73C407.99 260.73 408.34 260.75 408.69 260.75C409 260.77 409.29 260.79 409.6 260.81C409.68 260.79 409.74 260.79 409.79 260.81C410.16 260.85 410.53 260.91 410.89 260.95C411.1 260.97 411.32 260.99 411.55 261.03C411.78 261.07 412.02 261.11 412.23 261.17C412.37 261.19 412.48 261.21 412.6 261.23C413.08 261.31 413.57 261.42 414.05 261.54C414.42 261.64 414.79 261.73 415.15 261.85L415.17 261.87C415.48 261.97 415.79 262.06 416.1 262.2C416.39 262.3 416.7 262.41 417.01 262.53C417.05 262.55 417.09 262.55 417.13 262.59C417.38 262.69 417.63 262.78 417.89 262.9C417.95 262.92 417.99 262.94 418.05 262.98C418.5 263.15 418.92 263.37 419.33 263.62C419.5 263.72 419.68 263.79 419.85 263.89C419.97 263.95 420.1 264.01 420.22 264.08C420.41 264.18 420.61 264.29 420.8 264.41C420.82 264.43 420.84 264.43 420.86 264.45C421.54 264.86 422.2 265.3 422.82 265.79C423.48 266.26 424.1 266.78 424.7 267.34L424.72 267.34C425.01 267.61 425.32 267.9 425.59 268.19C425.88 268.48 426.17 268.75 426.42 269.04C426.67 269.29 426.92 269.56 427.14 269.85C427.16 269.89 427.18 269.91 427.22 269.95L427.22 270.01C427.3 270.11 427.39 270.2 427.49 270.3C427.63 270.46 427.74 270.63 427.86 270.8C428.13 271.13 428.38 271.46 428.6 271.81C428.76 272.02 428.91 272.24 429.05 272.47C429.07 272.49 429.09 272.53 429.11 272.55C429.27 272.78 429.4 273.03 429.52 273.29C429.64 273.48 429.75 273.68 429.87 273.87C430.01 274.06 430.1 274.28 430.22 274.49C430.39 274.8 430.55 275.13 430.7 275.48C430.95 276.02 431.18 276.58 431.4 277.15C431.46 277.29 431.52 277.4 431.54 277.54C431.68 277.89 431.77 278.24 431.89 278.59C431.91 278.69 431.93 278.78 431.97 278.86C432.09 279.27 432.2 279.67 432.3 280.1C432.4 280.51 432.47 280.93 432.55 281.34C432.63 281.75 432.67 282.17 432.72 282.6L432.76 282.6C432.78 282.76 432.8 282.91 432.82 283.05C432.86 283.38 432.9 283.73 432.92 284.06C432.94 284.31 432.96 284.58 432.98 284.84C433 285.29 433.02 285.73 433.02 286.18C433.02 288.12 432.81 290.02 432.4 291.82C432.38 291.86 432.38 291.92 432.36 291.98L432.33 291.99Z" fill="#3C3835"/>
<path d="M432.95 284.86C432.93 284.61 432.91 284.34 432.89 284.08C432.87 283.75 432.83 283.4 432.79 283.07C432.77 282.93 432.75 282.78 432.73 282.62C432.67 282.19 432.61 281.77 432.52 281.36C432.44 280.95 432.36 280.53 432.27 280.12C432.17 279.69 432.06 279.29 431.94 278.88C431.9 278.8 431.88 278.71 431.86 278.61C431.74 278.26 431.65 277.91 431.51 277.56C431.49 277.42 431.43 277.31 431.37 277.17C431.16 276.61 430.92 276.05 430.67 275.5C430.51 275.15 430.36 274.82 430.19 274.51C430.07 274.3 429.98 274.08 429.84 273.89C429.61 273.42 429.36 273 429.08 272.57C429.06 272.55 429.04 272.51 429.02 272.49C428.88 272.26 428.73 272.04 428.57 271.83C428.36 271.48 428.1 271.15 427.83 270.82C427.71 270.65 427.6 270.47 427.46 270.32C427.38 270.2 427.29 270.09 427.19 269.97C427.15 269.93 427.13 269.91 427.11 269.87C426.88 269.6 426.64 269.33 426.39 269.06C426.14 268.77 425.85 268.5 425.56 268.21C425.29 267.92 424.98 267.63 424.69 267.36L424.67 267.36C424.07 266.8 423.45 266.27 422.79 265.81C422.46 265.58 422.13 265.34 421.8 265.11C421.49 264.9 421.16 264.68 420.83 264.47C420.81 264.45 420.79 264.45 420.77 264.43C420.58 264.31 420.38 264.2 420.19 264.1C420.07 264.02 419.94 263.96 419.82 263.91C419.47 263.74 419.12 263.52 418.79 263.39C418.54 263.25 418.27 263.12 418.02 263C417.96 262.96 417.92 262.94 417.86 262.92C417.61 262.8 417.36 262.71 417.1 262.61C417.06 262.57 417.02 262.57 416.98 262.55C416.67 262.43 416.36 262.32 416.07 262.22C415.76 262.08 415.45 261.99 415.14 261.89C414.77 261.77 414.38 261.66 414.02 261.56C413.54 261.44 413.05 261.33 412.57 261.25C412.22 261.17 411.87 261.1 411.52 261.06C410.94 260.96 410.36 260.89 409.76 260.85C409.7 260.83 409.64 260.83 409.57 260.85C409.26 260.83 408.97 260.81 408.66 260.79C408.31 260.75 407.96 260.75 407.59 260.75C407.14 260.75 406.72 260.77 406.29 260.79C405.84 260.81 405.42 260.85 404.99 260.89C404.14 260.97 403.3 261.1 402.47 261.28C402.43 261.28 402.39 261.28 402.35 261.3C402.35 261.3 402.337 261.307 402.31 261.32C401.96 261.38 401.61 261.46 401.26 261.55L401.24 261.55C400.81 261.67 400.41 261.78 400 261.92C399.81 261.98 399.61 262.04 399.42 262.13C399.27 262.15 399.13 262.21 398.99 262.27C398.56 262.41 398.14 262.58 397.71 262.77C397.55 262.83 397.38 262.89 397.23 262.96C396.71 263.19 396.18 263.44 395.68 263.72C395.06 264.05 394.46 264.4 393.88 264.79C393.53 265 393.2 265.24 392.87 265.47C392.71 265.57 392.56 265.68 392.4 265.82C392.23 265.96 392.05 266.07 391.9 266.21C391.74 266.33 391.59 266.46 391.42 266.6C391.26 266.72 391.09 266.85 390.94 267.01C390.71 267.2 390.49 267.4 390.28 267.59C390.07 267.78 389.85 267.98 389.66 268.19C389.64 268.21 389.62 268.23 389.6 268.25C389.21 268.64 388.82 269.04 388.48 269.45C387.63 270.42 386.85 271.45 386.15 272.53C385.88 273 385.61 273.44 385.36 273.93C385.24 274.12 385.15 274.32 385.03 274.53C384.91 274.74 384.8 274.96 384.7 275.17C384.37 275.83 384.08 276.49 383.83 277.19C383.77 277.31 383.73 277.42 383.69 277.54C383.59 277.83 383.5 278.1 383.4 278.39C383.25 278.89 383.09 279.42 382.95 279.92C382.87 280.23 382.81 280.52 382.76 280.83C382.7 281 382.66 281.2 382.64 281.39C382.48 282.09 382.39 282.79 382.33 283.5C382.31 283.64 382.29 283.77 382.29 283.91C382.21 284.65 382.17 285.4 382.17 286.18C382.17 287.05 382.21 287.92 382.31 288.78C382.35 289.21 382.41 289.63 382.46 290.04L382.46 290.1C382.52 290.49 382.6 290.86 382.67 291.24C382.73 291.57 382.81 291.92 382.9 292.25C382.92 292.37 382.96 292.48 383 292.6C383.04 292.85 383.12 293.1 383.19 293.36C383.23 293.5 383.27 293.63 383.31 293.75C383.33 293.79 383.33 293.83 383.35 293.87C383.41 294.08 383.49 294.3 383.56 294.49C383.6 294.65 383.66 294.8 383.71 294.94C383.86 295.39 384.04 295.83 384.23 296.28C384.66 297.27 385.14 298.22 385.7 299.13C385.84 299.38 385.99 299.61 386.15 299.85C386.32 300.14 386.5 300.41 386.69 300.68C387.14 301.32 387.6 301.94 388.1 302.52C388.45 302.95 388.84 303.35 389.22 303.76C389.55 304.13 389.92 304.5 390.29 304.83C390.64 305.14 390.99 305.45 391.34 305.74C391.38 305.78 391.4 305.8 391.44 305.84C392.06 306.34 392.7 306.85 393.38 307.29C394.04 307.74 394.74 308.16 395.45 308.55L395.47 308.55C399.07 310.51 403.18 311.61 407.56 311.61C409.52 311.61 411.46 311.38 413.28 310.97C413.75 310.85 414.21 310.74 414.66 310.62C416.02 310.21 417.31 309.73 418.56 309.13C418.95 308.94 419.32 308.74 419.68 308.55C420.38 308.18 421.04 307.76 421.7 307.29C421.72 307.29 421.76 307.27 421.78 307.25C421.97 307.11 422.17 306.98 422.36 306.84C423.85 305.79 425.23 304.57 426.45 303.22C426.68 302.93 426.93 302.64 427.17 302.35C427.29 302.23 427.38 302.12 427.48 301.98C427.6 301.86 427.67 301.73 427.77 301.61C428.06 301.26 428.31 300.89 428.54 300.52C428.68 300.33 428.81 300.13 428.93 299.94C429.07 299.75 429.18 299.55 429.28 299.36C429.59 298.86 429.88 298.33 430.19 297.77C430.36 297.44 430.52 297.11 430.67 296.78C430.82 296.45 430.96 296.12 431.1 295.79C431.27 295.4 431.43 295 431.55 294.59C431.65 294.32 431.74 294.03 431.82 293.76C431.86 293.64 431.88 293.51 431.92 293.39C432.06 292.92 432.19 292.48 432.29 292.01C432.31 291.95 432.31 291.89 432.33 291.85C432.76 290.03 432.99 288.15 432.99 286.19C432.99 285.74 432.93 285.32 432.91 284.87L432.95 284.86ZM416.4 288.95C416.09 289.94 415.61 290.87 414.99 291.68C414.85 291.85 414.74 292.03 414.58 292.18C414.44 292.35 414.31 292.51 414.13 292.66C413.92 292.87 413.68 293.09 413.45 293.28C413.2 293.49 412.91 293.71 412.64 293.88C412.48 293.98 412.33 294.07 412.16 294.17C411.93 294.31 411.68 294.44 411.42 294.54C411.07 294.69 410.72 294.83 410.35 294.95C410.14 295.03 409.92 295.09 409.69 295.12C409.61 295.16 409.53 295.18 409.46 295.18C409.32 295.22 409.19 295.24 409.05 295.26C409.01 295.26 408.99 295.28 408.97 295.26C408.76 295.3 408.54 295.32 408.33 295.34C408.08 295.36 407.85 295.36 407.61 295.36C402.53 295.36 398.44 291.25 398.44 286.17C398.44 285.94 398.44 285.7 398.46 285.45C398.48 285.24 398.5 285.02 398.54 284.81C398.52 284.79 398.54 284.75 398.56 284.71C398.58 284.5 398.62 284.28 398.68 284.09C398.7 283.97 398.72 283.84 398.78 283.72C398.8 283.62 398.84 283.53 398.86 283.43C398.9 283.26 398.96 283.08 399.03 282.93C399.09 282.78 399.15 282.6 399.22 282.45C399.26 282.37 399.28 282.3 399.34 282.22C399.44 282.01 399.55 281.79 399.69 281.58C399.67 281.54 399.69 281.52 399.71 281.5C399.75 281.42 399.79 281.36 399.85 281.29C399.85 281.29 399.857 281.277 399.87 281.25C400.03 281.04 400.18 280.8 400.34 280.61C400.48 280.38 400.67 280.16 400.86 279.97C400.94 279.87 401.03 279.78 401.13 279.68C401.65 279.16 402.23 278.69 402.85 278.32C403.12 278.17 403.39 277.99 403.68 277.87C404.05 277.68 404.46 277.52 404.86 277.39C405.13 277.29 405.4 277.23 405.67 277.18L405.73 277.18C406.04 277.1 406.35 277.06 406.66 277.02C406.97 276.98 407.3 276.96 407.61 276.96C407.92 276.96 408.23 276.98 408.54 277.02C408.54 277.02 408.553 277.02 408.58 277.02C408.58 277.02 408.58 277.04 408.6 277.02C408.91 277.06 409.24 277.12 409.55 277.18C409.82 277.24 410.07 277.3 410.33 277.39C410.62 277.47 410.91 277.56 411.18 277.7C411.45 277.82 411.72 277.93 411.97 278.09C412.24 278.23 412.49 278.36 412.75 278.56C415.21 280.19 416.84 283 416.84 286.18C416.84 287.15 416.69 288.08 416.39 288.95L416.4 288.95Z" fill="#D2D2C6"/>
<path d="M416.81 286.2C416.81 291.28 412.68 295.37 407.59 295.37C402.5 295.37 398.42 291.28 398.42 286.2C398.42 281.12 402.51 276.98 407.59 276.98C412.67 276.98 416.81 281.11 416.81 286.2Z" fill="#F9F9F0"/>
<path d="M746.49 258.02L743.14 259.24C742.36 258.29 741.59 257.42 740.72 256.57C733.06 248.9 722.5 244.11 710.84 244.11C710.14 244.11 709.46 244.13 708.79 244.17C708.27 244.19 707.74 244.23 707.24 244.27C706.97 244.29 706.7 244.31 706.43 244.35C705.87 244.41 705.31 244.47 704.76 244.56C703.29 244.77 701.81 245.06 700.4 245.43C699.9 245.55 699.39 245.68 698.91 245.84C698.37 245.99 697.82 246.17 697.28 246.36C697.14 246.4 697.01 246.44 696.87 246.5C696.42 246.66 695.98 246.81 695.53 247C695.26 247.1 695.01 247.19 694.76 247.31C694.29 247.48 693.85 247.68 693.42 247.89C692.99 248.08 692.57 248.28 692.16 248.49C691.87 248.63 691.56 248.78 691.27 248.94C690.82 249.17 690.4 249.42 689.97 249.66C689.41 249.97 688.87 250.32 688.32 250.67C687.51 251.19 686.71 251.74 685.94 252.32C685.53 252.59 685.16 252.88 684.78 253.19C684.63 253.31 684.47 253.44 684.31 253.56C683.77 253.99 683.26 254.43 682.76 254.9C682.18 255.42 681.62 255.95 681.07 256.51C680.9 256.66 680.74 256.82 680.59 256.99C680.38 257.2 680.16 257.44 679.97 257.65C679.74 257.9 679.5 258.15 679.29 258.43C677.68 260.25 676.23 262.21 674.97 264.3C674.62 264.84 674.31 265.4 674 265.97C673.77 266.4 673.53 266.82 673.34 267.25C672.51 268.84 671.81 270.51 671.23 272.21C671.08 272.6 670.94 272.99 670.82 273.39C670.78 273.45 670.76 273.53 670.76 273.58C670.66 273.83 670.59 274.08 670.53 274.34C670.51 274.4 670.49 274.46 670.49 274.51C670.33 274.96 670.22 275.4 670.12 275.85C669.98 276.3 669.89 276.74 669.79 277.21C669.52 278.41 669.32 279.63 669.17 280.89C669.07 281.55 669.02 282.23 668.96 282.91C668.86 284.03 668.82 285.1 668.82 286.22L668.82 286.53L664.63 288.08C664.94 285.13 665.54 281.36 666.63 277.21C670.7 261.84 681.73 241.59 711.55 241.59C729.44 241.59 740.12 248.88 746.49 258.04L746.49 258.02Z" fill="#3C3C3B"/>
<path d="M452.99 282.63L449.5 282.63C449.44 281.89 449.36 281.18 449.27 280.46C449.19 279.94 449.12 279.39 449.02 278.87C448.92 278.31 448.81 277.75 448.69 277.18C448.59 276.7 448.48 276.23 448.36 275.77C448.21 275.21 448.05 274.65 447.89 274.08C447.29 272.05 446.53 270.07 445.62 268.17C445.39 267.67 445.15 267.18 444.88 266.7C442.92 262.96 440.42 259.55 437.46 256.56C429.84 248.89 419.28 244.1 407.62 244.1C406.92 244.1 406.24 244.12 405.57 244.16C405.09 244.18 404.6 244.2 404.12 244.26C403.42 244.3 402.72 244.38 402.05 244.47C401.72 244.51 401.39 244.57 401.06 244.61C401.04 244.61 401 244.63 400.98 244.63C400.51 244.71 400.03 244.78 399.57 244.88C399.2 244.94 398.83 245.02 398.47 245.11C397.99 245.21 397.5 245.32 397.04 245.44C395.97 245.73 394.91 246.04 393.88 246.41C393.26 246.62 392.64 246.84 392.04 247.09C391.56 247.28 391.07 247.5 390.59 247.71C390.16 247.88 389.76 248.08 389.33 248.29C388.92 248.48 388.54 248.68 388.15 248.89C387.32 249.32 386.5 249.78 385.73 250.29C385.46 250.43 385.19 250.6 384.94 250.77C384.22 251.22 383.53 251.7 382.87 252.18C382.39 252.53 381.92 252.9 381.46 253.28C380.78 253.78 380.14 254.35 379.52 254.91C379.05 255.32 378.63 255.72 378.2 256.17C377.7 256.65 377.19 257.16 376.75 257.68C376.56 257.87 376.38 258.05 376.23 258.24C375.86 258.63 375.53 259.03 375.2 259.44C374.79 259.92 374.39 260.43 374.02 260.93C373.55 261.53 373.13 262.15 372.72 262.77C372.31 263.37 371.93 263.99 371.56 264.61C371.11 265.37 370.69 266.12 370.3 266.9C369.97 267.48 369.7 268.08 369.43 268.68C369.18 269.2 368.95 269.75 368.73 270.31C368.5 270.85 368.28 271.41 368.09 271.98C367.88 272.54 367.68 273.1 367.53 273.69C367.43 273.96 367.36 274.25 367.28 274.54C367.18 274.83 367.11 275.12 367.05 275.41C366.88 275.99 366.74 276.57 366.62 277.17C366.48 277.67 366.39 278.18 366.29 278.7C366.19 279.24 366.12 279.8 366.04 280.35C366.02 280.52 365.98 280.72 365.96 280.89C365.9 281.47 365.82 282.03 365.79 282.61L363.08 282.61C363.24 280.89 363.47 279.06 363.82 277.16C366.55 261.85 376.36 242.28 408.74 242.28C438.27 242.28 448.72 260.75 452.13 277.16C452.52 279 452.81 280.84 453.04 282.61L452.99 282.63Z" fill="#3C3C3B"/>
<path d="M775.08 327.25C750.44 327.25 730.39 307.2 730.39 282.56C730.39 257.92 750.44 237.87 775.08 237.87C799.72 237.87 819.77 257.92 819.77 282.56C819.77 307.2 799.72 327.25 775.08 327.25ZM775.08 241.47C752.42 241.47 733.98 259.91 733.98 282.57C733.98 305.23 752.42 323.67 775.08 323.67C797.74 323.67 816.18 305.23 816.18 282.57C816.18 259.91 797.74 241.47 775.08 241.47Z" fill="#37394E"/>
<path d="M775.08 322.73C752.93 322.73 734.92 304.71 734.92 282.56C734.92 260.41 752.94 242.4 775.08 242.4C797.23 242.4 815.24 260.42 815.24 282.56C815.24 304.71 797.22 322.73 775.08 322.73ZM775.08 244.19C753.92 244.19 736.71 261.4 736.71 282.56C736.71 303.72 753.92 320.93 775.08 320.93C796.24 320.93 813.45 303.72 813.45 282.56C813.45 261.4 796.24 244.19 775.08 244.19Z" fill="#696869"/>
<path d="M913.17 327.25C888.53 327.25 868.48 307.2 868.48 282.56C868.48 257.92 888.53 237.87 913.17 237.87C937.81 237.87 957.86 257.92 957.86 282.56C957.86 307.2 937.81 327.25 913.17 327.25ZM913.17 241.47C890.51 241.47 872.07 259.91 872.07 282.57C872.07 305.23 890.51 323.67 913.17 323.67C935.83 323.67 954.27 305.23 954.27 282.57C954.27 259.91 935.83 241.47 913.17 241.47Z" fill="#37394E"/>
<path d="M913.17 322.73C891.02 322.73 873 304.71 873 282.56C873 260.41 891.02 242.4 913.17 242.4C935.32 242.4 953.33 260.42 953.33 282.56C953.33 304.71 935.31 322.73 913.17 322.73ZM913.17 244.19C892.01 244.19 874.8 261.4 874.8 282.56C874.8 303.72 892.01 320.93 913.17 320.93C934.33 320.93 951.54 303.72 951.54 282.56C951.54 261.4 934.33 244.19 913.17 244.19Z" fill="#696869"/>
<path d="M914.84 280.86C903.73 270.03 898.41 252.05 898.15 251.15L892.22 226.93C892.2 226.78 892.16 226.64 892.11 226.49L885.4 199.09L893.35 193.45C893.84 193.1 898.1 189.93 896.87 186.1C895.61 182.16 889.49 180.41 877.02 180.41C875.7 180.41 874.63 181.48 874.63 182.8C874.63 184.12 875.7 185.19 877.02 185.19C889.99 185.19 892.07 187.25 892.3 187.54C892.22 187.95 891.45 188.92 890.58 189.55L881.31 196.13C880.51 196.7 880.14 197.7 880.37 198.65L884.05 213.65C882.11 216.96 860.63 252.32 827.72 253.41L814.99 196.66C814.7 195.37 813.42 194.56 812.13 194.85C810.84 195.14 810.03 196.42 810.32 197.71L815.42 220.44L773.13 281.19C773.13 281.19 773.09 281.27 773.07 281.3C773.03 281.37 772.99 281.44 772.95 281.51C772.91 281.58 772.88 281.66 772.86 281.73C772.83 281.8 772.81 281.87 772.79 281.94C772.77 282.03 772.75 282.11 772.74 282.2C772.74 282.24 772.72 282.27 772.72 282.31C772.72 282.34 772.72 282.37 772.72 282.4C772.72 282.49 772.72 282.57 772.72 282.66C772.72 282.73 772.72 282.81 772.74 282.88C772.75 282.96 772.77 283.03 772.79 283.11C772.81 283.19 772.83 283.26 772.85 283.33C772.88 283.4 772.91 283.47 772.94 283.54C772.97 283.61 773 283.68 773.04 283.74C773.08 283.81 773.12 283.87 773.17 283.93C773.22 283.99 773.26 284.05 773.31 284.11C773.36 284.16 773.41 284.22 773.47 284.27C773.53 284.33 773.6 284.39 773.67 284.44C773.69 284.46 773.71 284.48 773.74 284.5C773.79 284.53 773.83 284.55 773.88 284.58C773.92 284.61 773.97 284.63 774.01 284.66C774.13 284.72 774.26 284.78 774.39 284.82C774.53 284.86 774.68 284.89 774.82 284.91C774.83 284.91 774.85 284.91 774.86 284.91L832.85 290.59C832.92 290.59 832.99 290.6 833.07 290.6C833.07 290.6 833.07 290.6 833.09 290.6C833.25 290.6 833.4 290.58 833.55 290.55C833.56 290.55 833.57 290.55 833.59 290.55C833.59 290.55 833.6 290.55 833.61 290.55C833.65 290.55 833.69 290.52 833.73 290.51C833.82 290.48 833.91 290.46 834 290.43C834.02 290.43 834.04 290.42 834.06 290.41C834.11 290.39 834.15 290.36 834.2 290.33C834.27 290.29 834.34 290.26 834.41 290.21C834.43 290.2 834.45 290.19 834.48 290.17C834.52 290.14 834.55 290.11 834.59 290.08C834.65 290.03 834.71 289.98 834.77 289.92C834.8 289.9 834.82 289.88 834.85 289.85L888.61 232.13L893.55 252.3C893.55 252.3 893.56 252.35 893.57 252.38C893.8 253.19 899.27 272.29 911.54 284.25C912 284.7 912.61 284.93 913.21 284.93C913.81 284.93 914.45 284.69 914.92 284.21C915.84 283.26 915.82 281.75 914.88 280.83L914.84 280.86ZM830.01 285.55L779.37 280.59L816.83 226.78L830.01 285.54L830.01 285.55ZM834.41 283.3L828.77 258.15C843.71 257.38 858.53 250.08 871.81 236.89C878.25 230.5 882.92 224.16 885.62 220.11L887.21 226.6L834.41 283.29L834.41 283.3Z" fill="#9EC369"/>
<path d="M828.29 199.17L808.16 199.17C800.29 199.17 795.45 192.18 795.25 191.88C794.32 190.51 794.68 188.66 796.04 187.73C797.4 186.81 799.25 187.16 800.18 188.51C800.24 188.6 803.5 193.19 808.15 193.19L828.28 193.19C829.93 193.19 831.27 194.53 831.27 196.18C831.27 197.83 829.93 199.17 828.28 199.17L828.29 199.17Z" fill="#696869"/>
<path d="M836.64 282.7L841.38 267.25L837.95 266.2L833.21 281.65C833.21 281.65 833.11 281.65 833.06 281.65C829.41 281.65 826.46 284.61 826.46 288.25C826.46 290.58 827.67 292.62 829.48 293.79L824.74 309.24L828.17 310.29L832.91 294.84C832.91 294.84 833.01 294.84 833.06 294.84C836.7 294.84 839.66 291.88 839.66 288.24C839.66 285.91 838.45 283.87 836.64 282.7Z" fill="#37394E"/>
<path d="M845.62 268.82L833.71 268.82C832.55 268.82 831.62 267.88 831.62 266.73C831.62 265.58 832.56 264.64 833.71 264.64L845.62 264.64C846.78 264.64 847.71 265.58 847.71 266.73C847.71 267.88 846.77 268.82 845.62 268.82Z" fill="#696869"/>
<path d="M832.42 311.86L820.51 311.86C819.35 311.86 818.42 310.92 818.42 309.77C818.42 308.62 819.36 307.68 820.51 307.68L832.42 307.68C833.58 307.68 834.51 308.62 834.51 309.77C834.51 310.92 833.57 311.86 832.42 311.86Z" fill="#696869"/>
<path d="M823.34 277.66C820.77 252.89 800.02 234.21 775.08 234.21C748.32 234.21 726.56 255.98 726.56 282.73C726.56 283.4 727.1 283.93 727.76 283.93C728.42 283.93 728.96 283.39 728.96 282.73C728.96 269.41 734.64 257.4 743.7 248.98L774.63 282.22C774.63 282.22 774.64 282.22 774.65 282.23C774.69 282.27 774.74 282.3 774.79 282.33C774.81 282.33 774.82 282.36 774.84 282.36C774.91 282.39 774.99 282.41 775.07 282.41C775.07 282.41 775.11 282.41 775.12 282.41C775.14 282.41 775.16 282.39 775.19 282.39C775.23 282.39 775.28 282.37 775.32 282.35C775.35 282.33 775.38 282.31 775.41 282.29C775.43 282.27 775.46 282.27 775.48 282.25C775.49 282.25 775.49 282.23 775.5 282.22C775.53 282.19 775.55 282.16 775.57 282.12C775.59 282.09 775.61 282.06 775.62 282.02C775.63 281.99 775.64 281.95 775.64 281.92C775.64 281.88 775.66 281.84 775.65 281.79C775.65 281.78 775.65 281.77 775.65 281.75L771.73 236.75C772.83 236.67 773.94 236.62 775.06 236.62C798.76 236.62 818.48 254.37 820.92 277.91C820.99 278.57 821.57 279.05 822.24 278.98C822.9 278.91 823.38 278.32 823.31 277.66L823.34 277.66ZM774.33 280.11L744.6 248.17C751.67 241.93 760.65 237.81 770.55 236.84L774.32 280.11L774.33 280.11Z" fill="#9EC369"/>
<path d="M833.07 274.8C833.07 274.8 775.89 275.05 775.73 275.05C772.08 275.05 769.13 278 769.13 281.65C769.13 284.7 771.21 287.27 774.03 288.02C774.12 288.08 829.19 301.13 829.19 301.13C829.19 301.13 829.19 301.13 829.2 301.13C830.43 301.5 831.73 301.7 833.08 301.7C840.5 301.7 846.53 295.67 846.53 288.25C846.53 280.83 840.5 274.8 833.08 274.8L833.07 274.8ZM833.07 299.91C826.64 299.91 821.41 294.68 821.41 288.25C821.41 281.82 826.64 276.59 833.07 276.59C839.5 276.59 844.73 281.82 844.73 288.25C844.73 294.68 839.5 299.91 833.07 299.91Z" fill="#696869"/>
<path d="M782.32 281.65C782.32 285.3 779.37 288.25 775.72 288.25C772.07 288.25 769.12 285.3 769.12 281.65C769.12 278 772.08 275.05 775.72 275.05C779.36 275.05 782.32 278 782.32 281.65Z" fill="#37394E"/>
<path d="M877.61 185.79L861.32 185.79C859.67 185.79 858.33 184.45 858.33 182.8C858.33 181.15 859.67 179.81 861.32 179.81L877.61 179.81C879.26 179.81 880.6 181.15 880.6 182.8C880.6 184.45 879.26 185.79 877.61 185.79Z" fill="#696869"/>
<path d="M913.17 236.54C913.83 236.54 914.37 236 914.37 235.34C914.37 234.68 913.83 234.14 913.17 234.14C886.47 234.14 864.75 255.86 864.75 282.56C864.75 283.22 865.29 283.76 865.95 283.76C866.61 283.76 867.15 283.22 867.15 282.56C867.15 281.44 867.21 280.33 867.28 279.23L913.12 283.16C913.12 283.16 913.15 283.16 913.17 283.16C913.26 283.16 913.34 283.14 913.41 283.1C913.43 283.1 913.45 283.07 913.47 283.06C913.52 283.03 913.57 282.99 913.61 282.94C913.61 282.93 913.63 282.92 913.64 282.91C913.65 282.9 913.65 282.88 913.66 282.86C913.68 282.82 913.7 282.79 913.72 282.75C913.73 282.72 913.74 282.68 913.75 282.65C913.75 282.63 913.76 282.62 913.76 282.6C913.76 282.58 913.76 282.56 913.76 282.54C913.76 282.5 913.76 282.46 913.75 282.42C913.75 282.38 913.73 282.35 913.71 282.31C913.7 282.28 913.68 282.24 913.66 282.21C913.64 282.18 913.61 282.15 913.58 282.12C913.56 282.11 913.56 282.09 913.54 282.07L876.93 254.23C885.36 243.46 898.47 236.52 913.18 236.52L913.17 236.54ZM911.17 281.79L867.37 278.04C868.2 269.54 871.36 261.71 876.19 255.2L911.17 281.79Z" fill="#9EC369"/>
</g>
<ellipse cx="14.2383" cy="14.2383" rx="14.2383" ry="14.2383" transform="matrix(-0.999967 -0.00807315 -0.00807315 0.999967 568.293 537.963)" fill="#F8F8F0"/>
<ellipse cx="21.3575" cy="21.3574" rx="21.3575" ry="21.3574" transform="matrix(-0.999967 -0.00807315 -0.00807315 0.999967 600.677 490.473)" fill="#F8F8F0"/>
<ellipse cx="32.0362" cy="32.0361" rx="32.0362" ry="32.0361" transform="matrix(-0.999967 -0.00807315 -0.00807315 0.999967 633.233 421.734)" fill="#F8F8F0"/>
<ellipse cx="14.2383" cy="14.2383" rx="14.2383" ry="14.2383" transform="matrix(-0.999967 -0.00807315 -0.00807315 0.999967 768.415 543.086)" fill="#F8F8F0"/>
<ellipse cx="21.3575" cy="21.3574" rx="21.3575" ry="21.3574" transform="matrix(-0.999967 -0.00807315 -0.00807315 0.999967 770.415 488.336)" fill="#F8F8F0"/>
<ellipse cx="32.0362" cy="32.0361" rx="32.0362" ry="32.0361" transform="matrix(-0.999967 -0.00807315 -0.00807315 0.999967 802.971 419.597)" fill="#F8F8F0"/>
<ellipse cx="975.118" cy="555.487" rx="14.2383" ry="14.2383" transform="rotate(0.462563 975.118 555.487)" fill="#F8F8F0"/>
<ellipse cx="950.566" cy="514.656" rx="21.3575" ry="21.3574" transform="rotate(0.462563 950.566 514.656)" fill="#F8F8F0"/>
<ellipse cx="929.716" cy="456.165" rx="32.0362" ry="32.0361" transform="rotate(0.462563 929.716 456.165)" fill="#F8F8F0"/>
</g>
<path d="M537.05 666.386L498.084 666.849L498.358 689.886L537.323 689.423L537.05 666.386Z" fill="#B17F4A"/>
<path d="M465.278 800.757C471.141 800.687 475.805 793.186 475.696 784.003C475.587 774.82 470.746 767.432 464.884 767.502C459.021 767.571 454.357 775.072 454.466 784.255C454.575 793.439 459.416 800.827 465.278 800.757Z" fill="#F6BF95"/>
<path d="M478.303 783.828C479.303 783.189 478.55 780.218 476.62 777.192C474.69 774.166 472.315 772.232 471.314 772.871C470.313 773.511 471.066 776.482 472.996 779.507C474.926 782.533 477.302 784.467 478.303 783.828Z" fill="#F6BF95"/>
<path d="M571.313 798.781C577.175 798.711 581.839 791.21 581.73 782.027C581.622 772.844 576.781 765.456 570.918 765.526C565.056 765.595 560.392 773.096 560.501 782.279C560.61 791.462 565.451 798.85 571.313 798.781Z" fill="#F6BF95"/>
<path d="M563.11 777.76C564.967 774.689 565.649 771.701 564.633 771.086C563.617 770.471 561.288 772.461 559.431 775.532C557.574 778.603 556.892 781.591 557.908 782.206C558.924 782.822 561.253 780.831 563.11 777.76Z" fill="#F6BF95"/>
<path d="M547.607 746.306L487.9 747.024L490.184 884.895L510.788 884.805L511.102 767.373C511.102 767.373 518.94 768.403 526.51 767.104C526.51 768.448 527.898 884.626 527.898 884.626L550.876 884.357L547.607 746.351V746.306Z" fill="#936037"/>
<path d="M510.968 899.059L473.522 899.507C473.522 899.507 471.865 884.536 486.467 884.761C495.425 884.268 510.788 884.447 510.788 884.447L510.968 899.059Z" fill="#1D1D1B"/>
<path d="M528.078 898.879L565.523 898.431C565.523 898.431 566.822 883.416 552.265 883.999C543.262 883.73 527.943 884.268 527.943 884.268L528.123 898.879H528.078Z" fill="#1D1D1B"/>
<path d="M547.552 743.62L487.85 744.329L487.882 747.063L547.585 746.353L547.552 743.62Z" fill="#1D1D1B"/>
<path d="M504.115 665.672L503.711 676.833C503.711 676.833 516.387 688.576 529.601 676.25L529.466 665.627" fill="#F6BF95"/>
<path d="M516.178 670.273C536.634 670.03 552.978 649.607 552.682 624.656C552.386 599.705 535.563 579.676 515.106 579.919C494.65 580.162 478.306 600.585 478.602 625.536C478.898 650.486 495.721 670.516 516.178 670.273Z" fill="#F6BF95"/>
<path d="M499.138 622.355C501.215 622.33 502.876 620.304 502.847 617.828C502.817 615.353 501.109 613.366 499.031 613.391C496.953 613.416 495.293 615.442 495.322 617.918C495.352 620.393 497.06 622.379 499.138 622.355Z" fill="#1D1D1B"/>
<path d="M539.138 622.355C541.215 622.33 542.876 620.304 542.847 617.828C542.817 615.353 541.109 613.366 539.031 613.391C536.953 613.416 535.293 615.442 535.322 617.918C535.352 620.393 537.06 622.379 539.138 622.355Z" fill="#1D1D1B"/>
<path d="M516.661 654.44C521.337 654.385 525.102 652.253 525.071 649.679C525.041 647.105 521.226 645.063 516.551 645.118C511.876 645.174 508.111 647.306 508.141 649.88C508.172 652.454 511.986 654.496 516.661 654.44Z" fill="white"/>
<path d="M525.059 644.838L508.084 645.04L508.139 649.656L525.113 649.455L525.059 644.838Z" fill="white"/>
<path d="M479.3 630.532C483.184 630.532 486.333 627.382 486.333 623.495C486.333 619.609 483.184 616.458 479.3 616.458C475.416 616.458 472.268 619.609 472.268 623.495C472.268 627.382 475.416 630.532 479.3 630.532Z" fill="#F6BF95"/>
<path d="M552.668 629.636C556.552 629.636 559.7 626.485 559.7 622.599C559.7 618.712 556.552 615.562 552.668 615.562C548.784 615.562 545.636 618.712 545.636 622.599C545.636 626.485 548.784 629.636 552.668 629.636Z" fill="#F6BF95"/>
<path d="M455.426 724.971L474.239 724.747C474.239 724.747 474.104 702.964 483.779 699.782C483.779 703.143 484.317 744.424 484.317 744.424L550.832 743.617L550.294 698.123C550.294 698.123 559.611 703.771 560.82 722.596L579.364 722.372C579.364 722.372 574.661 670.289 536.23 666.434C536.23 669.527 529.869 684.811 516.253 684.587C502.636 684.363 499.053 674.771 498.112 666.927C496.589 667.107 455.471 680.239 455.426 725.016V724.971Z" fill="#7D4E24"/>
<path d="M474.267 723.96L455.411 724.184L456.01 774.649L474.865 774.425L474.267 723.96Z" fill="#7D4E24"/>
<path d="M579.366 722.353L560.823 722.573L561.419 772.815L579.961 772.595L579.366 722.353Z" fill="#7D4E24"/>
<path d="M468.813 614.079C470.568 617.804 476.959 617.686 480.604 616.902C489.785 614.942 490.776 606.629 498.651 603.806C509.498 599.925 513.098 613.608 532.675 614.079C536.095 614.157 538.436 616.431 549.732 615.922C561.793 615.373 561.838 613.06 563.413 610.746C565.979 606.982 562.243 599.454 559.228 595.298C553.917 588.005 546.671 585.339 537.22 582.673C515.123 576.517 504.052 573.419 496.356 576.634C478.894 583.888 465.348 606.825 468.813 614.079Z" fill="#1D1D1B"/>
<path d="M720.449 730.089V632.986C720.449 632.986 723.185 599.465 762.139 596.044C762.26 596.165 803.065 593.388 806.727 632.744V731.86L720.489 730.089H720.449Z" fill="#F9B233"/>
<path d="M716.586 814.718C721.92 814.718 726.244 808.033 726.244 799.788C726.244 791.542 721.92 784.858 716.586 784.858C711.252 784.858 706.928 791.542 706.928 799.788C706.928 808.033 711.252 814.718 716.586 814.718Z" fill="#F6BF95"/>
<path d="M728.609 799.671C729.511 799.1 728.835 796.415 727.1 793.673C725.365 790.931 723.228 789.17 722.327 789.741C721.425 790.311 722.101 792.996 723.836 795.738C725.57 798.481 727.708 800.241 728.609 799.671Z" fill="#F6BF95"/>
<path d="M813.246 814.074C818.58 814.074 822.904 807.389 822.904 799.144C822.904 790.899 818.58 784.214 813.246 784.214C807.912 784.214 803.588 790.899 803.588 799.144C803.588 807.389 807.912 814.074 813.246 814.074Z" fill="#F6BF95"/>
<path d="M805.955 795.043C807.69 792.301 808.366 789.615 807.464 789.045C806.563 788.475 804.425 790.235 802.691 792.977C800.956 795.719 800.28 798.405 801.182 798.975C802.083 799.545 804.22 797.785 805.955 795.043Z" fill="#F6BF95"/>
<path d="M779.041 695.964H752.28C745.279 695.964 739.604 701.64 739.604 708.64V755.079C739.604 762.08 745.279 767.756 752.28 767.756H779.041C786.042 767.756 791.717 762.08 791.717 755.079V708.64C791.717 701.64 786.042 695.964 779.041 695.964Z" fill="#DADADA"/>
<path d="M764.494 708.251L734.862 735.893L764.37 767.526L794.003 739.884L764.494 708.251Z" fill="#C6C6C6"/>
<path d="M791.757 762.725H738.115L738.719 886.509L757.23 886.63L758.799 781.196C758.799 781.196 765.842 782.202 772.643 781.116V886.63H793.287L791.838 762.685L791.757 762.725Z" fill="#75B6E5"/>
<path d="M757.23 899.466H723.588C723.588 899.466 722.26 886.026 735.338 886.348C743.427 886.026 757.189 886.348 757.189 886.348V899.466H757.23Z" fill="#1D1D1B"/>
<path d="M772.602 899.507H806.244C806.244 899.507 807.572 886.066 794.494 886.388C786.405 886.066 772.642 886.388 772.642 886.388V899.507H772.602Z" fill="#1D1D1B"/>
<path d="M791.757 760.311H738.115V762.766H791.757V760.311Z" fill="#1D1D1B"/>
<path d="M735.017 770.653C735.017 771.176 735.419 771.619 735.942 771.699C740.087 772.303 757.19 774.234 757.713 765.502C757.391 757.172 757.23 723.651 757.23 715.803C757.23 714.999 756.425 714.516 755.701 714.797L751.636 716.488C751.113 716.689 750.51 716.488 750.228 716.005C748.699 713.027 744.031 703.208 745.64 697.413C745.882 696.608 745.278 695.844 744.433 695.964C738.276 696.97 719.403 702.765 708.578 735.2C708.578 735.321 708.537 735.441 708.537 735.562C708.537 740.592 707.853 778.742 707.692 788.56C707.692 789.446 708.658 790.009 709.423 789.486C712.24 787.554 717.914 784.617 722.501 788.762C723.226 789.406 724.352 788.923 724.352 787.957C724.433 776.247 724.352 739.184 724.352 735.965C724.352 735.804 724.352 735.683 724.433 735.562C724.956 734.355 727.894 728.117 732.682 726.991C733.367 726.83 734.051 727.353 734.051 728.037C734.171 734.757 734.896 765.019 735.017 770.653Z" fill="#2B1749"/>
<path d="M794.373 770.653C794.373 771.176 793.971 771.619 793.448 771.699C789.303 772.303 772.2 774.234 771.677 765.502C771.999 757.172 772.16 723.651 772.16 715.803C772.16 714.999 772.964 714.516 773.689 714.797L777.753 716.488C778.276 716.689 778.88 716.488 779.162 716.005C780.691 713.027 785.359 703.208 783.749 697.413C783.508 696.608 784.111 695.844 784.957 695.964C791.114 696.97 809.987 702.765 820.812 735.2C820.812 735.321 820.852 735.441 820.852 735.562C820.852 740.592 821.536 778.742 821.697 788.56C821.697 789.446 820.731 790.009 819.967 789.486C817.15 787.554 811.476 784.617 806.888 788.762C806.164 789.406 805.037 788.923 805.037 787.957C804.957 776.247 805.037 739.184 805.037 735.965C805.037 735.804 805.037 735.683 804.957 735.562C804.434 734.355 801.496 728.117 796.707 726.991C796.023 726.83 795.339 727.353 795.339 728.037C795.218 734.757 794.494 765.019 794.373 770.653Z" fill="#2B1749"/>
<path d="M753.568 689.847V699.626C753.568 699.626 764.433 711.618 776.345 699.626V690.089" fill="#F6BF95"/>
<path d="M764.313 694.113C782.693 694.113 797.593 675.952 797.593 653.549C797.593 631.147 782.693 612.986 764.313 612.986C745.933 612.986 731.033 631.147 731.033 653.549C731.033 675.952 745.933 694.113 764.313 694.113Z" fill="#F6BF95"/>
<path d="M729.302 630.531V612.262C729.302 612.262 731.516 605.944 763.146 605.3C763.266 605.3 796.385 604.817 799.363 612.181V630.813L729.302 630.491V630.531Z" fill="#F9B233"/>
<path d="M745.88 645.395C747.747 645.395 749.261 643.593 749.261 641.371C749.261 639.148 747.747 637.347 745.88 637.347C744.013 637.347 742.5 639.148 742.5 641.371C742.5 643.593 744.013 645.395 745.88 645.395Z" fill="#1D1D1B"/>
<path d="M782.38 645.395C784.247 645.395 785.76 643.593 785.76 641.371C785.76 639.148 784.247 637.347 782.38 637.347C780.513 637.347 779 639.148 779 641.371C779 643.593 780.513 645.395 782.38 645.395Z" fill="#1D1D1B"/>
<path d="M764.916 679.908C769.117 679.908 772.522 678.034 772.522 675.722C772.522 673.411 769.117 671.537 764.916 671.537C760.716 671.537 757.311 673.411 757.311 675.722C757.311 678.034 760.716 679.908 764.916 679.908Z" fill="white"/>
<path d="M772.562 671.376H757.311V675.521H772.562V671.376Z" fill="white"/>
<path d="M731.676 658.057C735.166 658.057 737.994 655.228 737.994 651.739C737.994 648.249 735.166 645.421 731.676 645.421C728.187 645.421 725.358 648.249 725.358 651.739C725.358 655.228 728.187 658.057 731.676 658.057Z" fill="#F6BF95"/>
<path d="M797.632 658.057C801.122 658.057 803.95 655.228 803.95 651.739C803.95 648.249 801.122 645.421 797.632 645.421C794.143 645.421 791.314 648.249 791.314 651.739C791.314 655.228 794.143 658.057 797.632 658.057Z" fill="#F6BF95"/>
<path d="M1030.06 665.968L991.094 666.669L991.508 689.704L1030.47 689.003L1030.06 665.968Z" fill="#C6C6C6"/>
<path d="M959.116 800.845C964.977 800.74 969.596 793.211 969.431 784.028C969.266 774.846 964.38 767.488 958.518 767.593C952.656 767.698 948.038 775.228 948.203 784.41C948.368 793.592 953.254 800.951 959.116 800.845Z" fill="#F6BF95"/>
<path d="M971.985 783.791C972.982 783.146 972.211 780.18 970.264 777.166C968.316 774.152 965.928 772.231 964.931 772.877C963.934 773.522 964.705 776.488 966.653 779.502C968.601 782.516 970.988 784.437 971.985 783.791Z" fill="#F6BF95"/>
<path d="M1065.12 798.221C1070.98 798.116 1075.6 790.587 1075.43 781.404C1075.27 772.222 1070.38 764.864 1064.52 764.969C1058.66 765.075 1054.04 772.604 1054.2 781.786C1054.37 790.969 1059.26 798.327 1065.12 798.221Z" fill="#F6BF95"/>
<path d="M1056.76 777.192C1058.6 774.11 1059.26 771.117 1058.25 770.508C1057.23 769.9 1054.91 771.904 1053.07 774.987C1051.23 778.069 1050.57 781.061 1051.59 781.67C1052.61 782.279 1054.92 780.274 1056.76 777.192Z" fill="#F6BF95"/>
<path d="M1041.07 745.858L981.364 746.934L984.499 884.76L1005.1 884.536L1004.74 767.104C1004.74 767.104 1012.58 768.09 1020.15 766.745C1020.15 768.09 1022.26 884.267 1022.26 884.267L1045.24 883.864L1041.12 745.858H1041.07Z" fill="#575756"/>
<path d="M1005.37 898.834L967.971 899.507C967.971 899.507 966.225 884.536 980.826 884.671C989.785 884.133 1005.15 884.222 1005.15 884.222L1005.42 898.834H1005.37Z" fill="#1D1D1B"/>
<path d="M1022.48 898.566L1059.88 897.893C1059.88 897.893 1061.09 882.878 1046.54 883.506C1037.53 883.282 1022.21 883.954 1022.21 883.954L1022.48 898.566Z" fill="#1D1D1B"/>
<path d="M1041.03 743.168L981.332 744.242L981.381 746.976L1041.08 745.902L1041.03 743.168Z" fill="#1D1D1B"/>
<path d="M997.13 665.493L996.772 676.654C996.772 676.654 1009.54 688.307 1022.66 675.936L1022.48 665.314" fill="#F6BF95"/>
<path d="M1009.21 669.992C1029.66 669.624 1045.88 649.101 1045.43 624.153C1044.98 599.204 1028.04 579.278 1007.58 579.646C987.13 580.014 970.912 600.537 971.36 625.485C971.808 650.434 988.753 670.36 1009.21 669.992Z" fill="#F6BF95"/>
<path d="M990.654 620.377C992.732 620.34 994.38 618.303 994.336 615.828C994.291 613.353 992.571 611.377 990.493 611.414C988.416 611.452 986.767 613.488 986.812 615.963C986.856 618.438 988.577 620.415 990.654 620.377Z" fill="#1D1D1B"/>
<path d="M1018.65 620.377C1020.73 620.34 1022.38 618.303 1022.34 615.828C1022.29 613.353 1020.57 611.377 1018.49 611.414C1016.42 611.452 1014.77 613.488 1014.81 615.963C1014.86 618.438 1016.58 620.415 1018.65 620.377Z" fill="#1D1D1B"/>
<path d="M972.002 630.487C975.886 630.487 979.035 627.337 979.035 623.45C979.035 619.564 975.886 616.413 972.002 616.413C968.119 616.413 964.97 619.564 964.97 623.45C964.97 627.337 968.119 630.487 972.002 630.487Z" fill="#F6BF95"/>
<path d="M1045.42 629.188C1049.3 629.188 1052.45 626.037 1052.45 622.151C1052.45 618.264 1049.3 615.114 1045.42 615.114C1041.53 615.114 1038.38 618.264 1038.38 622.151C1038.38 626.037 1041.53 629.188 1045.42 629.188Z" fill="#F6BF95"/>
<path d="M948.801 725.061L967.613 724.702C967.613 724.702 967.344 702.919 976.974 699.692C977.019 703.053 977.781 744.334 977.781 744.334L1044.3 743.124L1043.49 697.63C1043.49 697.63 1052.85 703.233 1054.19 722.013L1072.74 721.699C1072.74 721.699 1067.72 669.661 1029.29 666.031C1029.34 669.123 1023.02 684.452 1009.4 684.273C995.787 684.094 992.159 674.547 991.173 666.703C989.65 666.882 948.622 680.239 948.846 725.061H948.801Z" fill="#9D9D9C"/>
<path d="M967.679 723.956L948.825 724.295L949.732 774.756L968.586 774.417L967.679 723.956Z" fill="#F6BF95"/>
<path d="M1072.7 721.708L1054.16 722.042L1055.06 772.278L1073.6 771.945L1072.7 721.708Z" fill="#F6BF95"/>
<path d="M1008.34 652.878C1012.54 652.878 1015.94 651.004 1015.94 648.692C1015.94 646.381 1012.54 644.507 1008.34 644.507C1004.14 644.507 1000.73 646.381 1000.73 648.692C1000.73 651.004 1004.14 652.878 1008.34 652.878Z" fill="white"/>
<path d="M1015.98 644.346H1000.73V648.491H1015.98V644.346Z" fill="white"/>
</g>
<rect x="1396.53" y="680.507" width="49" height="219" fill="#B07156"/>
<circle cx="1421.72" cy="449.694" r="84.1875" fill="#82B33B"/>
<circle cx="1421.72" cy="617.694" r="84.1875" fill="#B07156"/>
<circle cx="1505.72" cy="533.694" r="84.1875" fill="#82B33B"/>
<circle cx="1505.72" cy="617.694" r="84.1875" fill="#82B33B"/>
<circle cx="1337.72" cy="617.694" r="84.1875" fill="#82B33B"/>
<circle cx="1337.72" cy="533.694" r="84.1875" fill="#82B33B"/>
<circle cx="1421.72" cy="592.694" r="84.1875" fill="#82B33B"/>
</g>
<defs>
<clipPath id="clip0_306_246">
<rect width="1530" height="899.507" fill="white"/>
</clipPath>
<clipPath id="clip1_306_246">
<rect width="977.06" height="899.507" fill="white" transform="translate(276.47)"/>
</clipPath>
<clipPath id="clip2_306_246">
<rect width="977.06" height="573.346" fill="white" transform="translate(276.47)"/>
</clipPath>
<clipPath id="clip3_306_246">
<rect width="977.06" height="457.48" fill="white" transform="translate(276.47)"/>
</clipPath>
</defs>
</svg>
