<svg width="1836" height="738" viewBox="0 0 1836 738" fill="none" xmlns="http://www.w3.org/2000/svg">
<g clip-path="url(#clip0_263_277)">
<path d="M416.131 198.325C395.641 256.012 768.094 238.221 768.094 238.221V67.7C768.094 67.7 444.402 76.2491 416.131 198.325ZM1010.75 67.7H809.538L805.917 238.221C805.917 238.221 1169.67 234.986 1183.38 234.986C1197.09 234.986 1108.35 67.7 1010.75 67.7Z" stroke="#1D1D1B" stroke-width="0.25" stroke-miterlimit="10"/>
<path d="M1570.7 271.57C1480.34 241.687 1370.03 224.511 1255.48 223.048C1246.31 222.971 1238.53 217.118 1234.99 208.645C1203.71 134.245 1149.71 86.4157 1091.48 55.6079C982.477 -2.07964 858.454 -0.000117317 840.505 -0.000117317C839.581 -0.000117317 830.876 0.0769021 829.952 0.0769021C697.07 0.230941 586.605 21.7964 495.013 55.6079C304.049 126.004 195.201 249.774 136.348 343.815H143.512L101.221 413.055L89.5892 432.002L89.4352 432.387C85.5835 441.475 82.5022 449.1 80.1912 455.185C77.8803 461.346 72.8731 466.044 66.6335 468.355C7.24116 489.92 -3.0042 515.568 0.693377 535.054C2.3881 543.834 6.856 551.305 10.9387 556.696C15.1755 562.242 21.8774 565.322 28.8874 565.168L38.3624 565.014L140.816 562.858C141.355 562.858 141.817 562.858 142.357 562.781C151.986 561.625 159.612 554.463 161.461 544.989C161.615 544.219 161.692 543.449 161.769 542.679C162 540.137 162.231 537.595 162.462 535.054C163.541 526.582 164.927 518.572 166.853 510.87C167.392 508.79 167.932 506.711 168.471 504.708C169.549 500.549 170.782 496.544 172.168 492.693C174.865 484.991 177.946 477.674 181.412 470.82C183.107 467.354 184.956 464.042 186.882 460.807C188.499 458.111 190.117 455.493 191.812 452.951C199.053 442.091 207.218 432.387 216.077 423.915C217.618 422.374 219.158 420.911 220.776 419.448C222.625 417.676 224.628 415.982 226.554 414.441C228.479 412.824 230.405 411.207 232.408 409.666C234.411 408.126 236.414 406.585 238.417 405.199C240.419 403.736 242.422 402.349 244.502 400.963C248.585 398.113 252.822 395.572 256.982 393.107C258.291 392.337 259.601 391.644 260.91 390.95C261.912 390.334 262.99 389.718 263.992 389.256C265.686 388.332 267.458 387.408 269.153 386.56C273.544 384.25 277.934 382.17 282.325 380.322C284.713 379.243 287.024 378.242 289.412 377.318C296.422 374.468 303.201 372.004 309.672 370.001C314.833 368.384 319.686 366.92 324.308 365.688C325.464 365.38 326.619 365.072 327.698 364.841C328.853 364.533 329.932 364.302 331.01 363.994C333.167 363.531 335.247 362.992 337.25 362.607C338.251 362.376 339.176 362.145 340.1 361.991C342.95 361.375 345.569 360.913 347.88 360.451C348.034 360.451 348.111 360.374 348.265 360.374C350.499 359.989 352.502 359.681 354.197 359.449C355.352 359.218 356.431 359.141 357.355 358.987C357.586 358.987 357.74 358.91 357.972 358.91C359.204 358.756 360.128 358.602 360.822 358.525C361.823 358.448 362.671 358.371 363.672 358.371C364.134 358.371 364.673 358.371 365.136 358.448H366.599C369.064 358.448 371.452 358.525 373.84 358.602C378.616 358.756 383.315 359.064 387.937 359.449C392.559 359.835 397.027 360.374 401.418 360.99C403.575 361.221 405.655 361.452 407.658 361.837C409.892 362.222 412.126 362.607 414.283 362.992C418.519 363.763 422.602 364.61 426.608 365.688C436.545 368.076 445.943 371.079 454.725 374.545C456.497 375.238 458.268 375.932 459.963 376.702C466.896 379.629 473.367 382.863 479.529 386.406C481.686 387.639 483.766 388.871 485.846 390.18C487.772 391.413 489.698 392.568 491.546 393.877C495.244 396.342 498.865 399.037 502.331 401.733C504.026 403.042 505.721 404.429 507.338 405.815C508.956 407.202 510.574 408.588 512.191 410.051C513.809 411.438 515.35 412.901 516.813 414.364C517.969 415.443 519.047 416.521 520.126 417.599C521.589 419.14 523.053 420.603 524.44 422.143C525.903 423.684 527.29 425.224 528.599 426.764C534.146 433.234 539.23 439.935 543.852 446.789C544.237 447.329 544.622 447.791 544.853 448.253C544.93 448.33 545.007 448.407 544.93 448.484C546.086 450.101 547.164 451.719 548.166 453.413C549.09 454.877 549.937 456.263 550.785 457.726C551.17 458.342 551.478 459.036 551.94 459.652C554.328 463.811 556.562 467.893 558.642 472.052C559.489 473.823 560.414 475.595 561.261 477.366C562.109 479.138 562.879 480.832 563.649 482.604C564.497 484.375 565.267 486.223 565.96 487.995C567.193 490.845 568.348 493.771 569.427 496.621C570.197 498.624 570.967 500.549 571.661 502.552C573.355 507.404 574.973 512.179 576.437 516.877C577.207 519.65 578.054 522.423 578.748 525.118C579.595 527.814 580.288 530.51 580.905 533.205C581.059 533.821 581.213 534.438 581.367 535.054C582.445 539.829 583.524 544.45 584.371 548.994C585.526 554.54 586.528 559.931 587.298 565.091C587.76 567.864 588.146 570.637 588.454 573.255C588.762 575.104 588.916 576.875 589.147 578.57C590.226 587.119 590.842 594.975 591.227 601.984C591.535 605.758 591.689 609.3 591.766 612.535C592.151 624.473 602.011 633.87 613.952 633.87H1026.69C1034.17 633.87 1041.64 633.253 1049.19 632.098C1050.5 631.867 1051.73 631.713 1053.04 631.405C1054.96 631.097 1056.97 630.712 1058.97 630.25C1061.74 629.711 1064.52 629.017 1067.29 628.247C1067.37 628.247 1067.44 628.247 1067.52 628.17C1069.37 627.785 1071.3 627.246 1073.22 626.63C1082.85 623.78 1092.63 620.083 1102.49 615.77C1105.11 614.692 1107.73 613.46 1110.27 612.227C1117.44 608.838 1124.68 605.141 1132 601.136C1134.15 599.981 1136.31 598.749 1138.39 597.517C1146.94 592.664 1155.65 587.35 1164.35 581.728C1166.51 580.341 1168.66 578.955 1170.9 577.491C1175.75 574.257 1180.68 570.945 1185.61 567.556C1189.85 564.629 1194.09 561.625 1198.4 558.622C1209.11 550.997 1219.81 543.141 1230.68 535.054C1278.21 499.548 1327.35 460.345 1377.96 427.92C1383.74 424.146 1389.52 420.526 1395.3 417.06C1401.54 413.363 1407.7 409.743 1413.94 406.2C1416.86 404.583 1419.79 402.965 1422.72 401.425C1431.73 396.573 1440.82 392.029 1449.91 387.87C1451.76 386.945 1453.69 386.098 1455.61 385.328C1456 385.097 1456.46 384.943 1456.84 384.789C1458.23 384.173 1459.69 383.557 1461.08 382.94C1468.63 379.706 1476.26 376.702 1483.96 374.083C1484.81 373.775 1485.73 373.467 1486.66 373.159C1487.35 372.851 1488.12 372.62 1488.81 372.389C1491.12 371.619 1493.36 370.925 1495.75 370.232C1498.06 369.462 1500.45 368.769 1502.76 368.153C1504.99 367.537 1507.22 366.92 1509.54 366.381C1511.92 365.765 1514.31 365.149 1516.78 364.61C1527.95 362.068 1539.12 360.22 1550.44 359.295C1552.6 359.064 1554.83 358.91 1556.99 358.833C1561.46 358.525 1565.92 358.371 1570.39 358.371C1573.32 358.371 1576.17 358.448 1578.94 358.525C1581.25 358.525 1583.49 358.679 1585.72 358.756C1590.5 359.064 1595.12 359.372 1599.66 359.912C1601.97 360.143 1604.21 360.451 1606.52 360.759C1609.91 361.221 1613.22 361.683 1616.53 362.299C1617.69 362.53 1618.77 362.761 1619.85 362.915C1621.85 363.3 1623.77 363.686 1625.7 364.148C1627.93 364.61 1630.25 365.149 1632.4 365.765C1636.1 366.689 1639.72 367.691 1643.26 368.846C1645.58 369.539 1647.89 370.309 1650.12 371.156C1652.35 371.927 1654.59 372.774 1656.74 373.621C1660.37 375.084 1663.83 376.548 1667.3 378.165C1679.78 383.942 1690.95 390.796 1700.96 398.421C1702.81 399.808 1704.66 401.271 1706.51 402.811C1708.82 404.66 1711.05 406.585 1713.21 408.511C1714.6 409.82 1715.98 411.13 1717.29 412.362C1718.99 413.979 1720.68 415.674 1722.3 417.368C1725.23 420.372 1728 423.453 1730.62 426.533C1733.08 429.306 1735.32 432.156 1737.48 435.006C1738.63 436.546 1739.86 438.163 1741.02 439.781C1747.95 449.177 1753.81 458.805 1758.58 468.355C1760.35 471.744 1762.05 475.133 1763.59 478.522C1764.44 480.216 1765.21 481.91 1765.82 483.528C1767.29 486.84 1768.67 490.074 1769.91 493.309C1770.68 495.004 1771.29 496.621 1771.75 498.161C1772.99 501.319 1774.07 504.477 1775.07 507.481C1776.53 511.948 1777.84 516.184 1778.92 520.266C1779.3 521.575 1779.61 522.808 1779.92 524.04C1780.31 525.349 1780.61 526.659 1780.92 527.891C1781.54 530.433 1782.15 532.82 1782.62 535.054C1783.23 537.749 1783.69 540.291 1784.16 542.679C1786.16 553.23 1795.25 560.932 1806.03 560.932H1813.74C1826.06 560.932 1836 550.997 1836 538.751V494.31C1836 482.064 1826.06 472.129 1813.74 472.129C1808.19 472.129 1803.11 470.049 1799.26 466.661C1795.4 463.195 1792.71 458.419 1791.86 452.951C1785.85 414.672 1762.13 379.86 1724.76 349.899C1655.05 293.983 1570.7 271.57 1570.7 271.57Z" fill="#C8161E"/>
<path d="M768.017 67.7V238.221C768.017 238.221 395.563 256.012 416.131 198.325C444.402 76.2491 768.017 67.7 768.017 67.7Z" stroke="#1D1D1B" stroke-width="0.25" stroke-miterlimit="10"/>
<path d="M1183.3 234.986C1169.59 234.986 805.84 238.221 805.84 238.221L809.461 67.7H1010.67C1108.27 67.7 1197.17 234.986 1183.3 234.986Z" stroke="#1D1D1B" stroke-width="0.25" stroke-miterlimit="10"/>
<path d="M143.512 343.892L89.5894 432.079C99.5266 409.512 114.394 378.858 136.348 343.892H143.512Z" stroke="#1D1D1B" stroke-width="0.25" stroke-miterlimit="10"/>
<path d="M768.017 67.7V238.221C768.017 238.221 395.563 256.012 416.131 198.325C444.402 76.2491 768.017 67.7 768.017 67.7Z" stroke="#1D1D1B" stroke-width="0.25" stroke-miterlimit="10"/>
<path d="M1183.3 234.986C1169.59 234.986 805.84 238.221 805.84 238.221L809.461 67.7H1010.67C1108.27 67.7 1197.17 234.986 1183.3 234.986Z" stroke="#1D1D1B" stroke-width="0.25" stroke-miterlimit="10"/>
<path d="M143.512 343.892L101.221 413.055L89.589 432.002L89.3579 432.387V343.892H143.512Z" fill="#9C1C1A"/>
<path d="M768.017 67.7V238.221C768.017 238.221 395.563 256.012 416.131 198.325C444.402 76.2491 768.017 67.7 768.017 67.7Z" fill="#299BAC"/>
<path d="M1183.3 234.986C1169.59 234.986 805.84 238.221 805.84 238.221L809.461 67.7H1010.67C1108.27 67.7 1197.17 234.986 1183.3 234.986Z" fill="#299BAC"/>
<path d="M1786.85 560.932V602.215H1752.96C1752.96 602.215 1755.19 572.254 1747.64 535.054C1742.64 510.638 1733.47 483.143 1716.6 458.881C1691.26 422.451 1648.81 393.492 1577.71 393.492C1459.16 393.492 1415.32 473.977 1399.15 535.054C1394.83 551.536 1392.45 566.555 1391.21 578.262C1389.52 592.818 1389.67 602.215 1389.67 602.215L1392.6 633.87H1026.69C1034.17 633.87 1041.64 633.253 1049.19 632.098C1050.5 631.867 1051.73 631.713 1053.04 631.405C1054.96 631.097 1056.97 630.712 1058.97 630.25C1061.74 629.711 1064.52 629.017 1067.29 628.247C1067.37 628.247 1067.44 628.247 1067.52 628.17C1069.37 627.708 1071.3 627.169 1073.22 626.63C1082.85 623.78 1092.63 620.083 1102.49 615.77C1105.11 614.692 1107.73 613.459 1110.27 612.227C1117.44 608.838 1124.68 605.141 1132 601.136C1134.08 599.981 1136.23 598.826 1138.39 597.516C1146.94 592.664 1155.65 587.35 1164.35 581.727C1166.51 580.341 1168.66 578.955 1170.9 577.491C1175.75 574.257 1180.68 570.945 1185.61 567.556C1189.85 564.629 1194.16 561.625 1198.4 558.622C1209.11 550.997 1219.81 543.141 1230.68 535.054C1278.21 499.548 1327.35 460.345 1377.96 427.92C1383.74 424.223 1389.52 420.603 1395.3 417.06C1401.54 413.363 1407.7 409.743 1413.94 406.2C1416.86 404.583 1419.79 402.965 1422.72 401.425C1431.73 396.573 1440.82 392.029 1449.91 387.87C1451.76 386.945 1453.69 386.098 1455.61 385.328C1456 385.097 1456.46 384.943 1456.84 384.789C1458.23 384.173 1459.69 383.556 1461.08 382.94C1468.63 379.705 1476.26 376.702 1483.96 374.083C1484.81 373.775 1485.73 373.467 1486.66 373.159C1487.35 372.851 1488.12 372.62 1488.81 372.389C1491.12 371.618 1493.44 370.925 1495.75 370.232C1498.06 369.462 1500.37 368.846 1502.76 368.153C1504.99 367.536 1507.22 366.92 1509.54 366.381C1511.92 365.765 1514.31 365.149 1516.78 364.61C1527.95 362.068 1539.12 360.22 1550.44 359.295C1552.6 359.064 1554.83 358.91 1556.99 358.833C1561.46 358.525 1565.92 358.371 1570.39 358.371C1573.32 358.371 1576.17 358.448 1578.94 358.525C1581.25 358.525 1583.49 358.679 1585.72 358.756C1590.5 359.064 1595.12 359.372 1599.66 359.911C1601.97 360.143 1604.21 360.451 1606.52 360.759C1609.91 361.221 1613.22 361.683 1616.53 362.299C1617.69 362.53 1618.77 362.761 1619.85 362.915C1621.85 363.3 1623.77 363.685 1625.7 364.148C1628.01 364.61 1630.25 365.149 1632.4 365.765C1636.1 366.689 1639.72 367.69 1643.26 368.846C1645.58 369.539 1647.89 370.309 1650.12 371.156C1652.35 371.927 1654.59 372.774 1656.74 373.621C1660.37 375.084 1663.83 376.548 1667.3 378.165C1679.78 383.942 1690.95 390.796 1700.96 398.421C1702.81 399.808 1704.66 401.271 1706.51 402.811C1708.82 404.66 1711.05 406.585 1713.21 408.511C1714.6 409.82 1715.98 411.129 1717.29 412.362C1718.99 413.979 1720.68 415.674 1722.3 417.368C1725.23 420.372 1728 423.453 1730.62 426.533C1733.01 429.306 1735.24 432.156 1737.48 435.005C1738.63 436.546 1739.86 438.163 1741.02 439.781C1742.94 442.476 1744.79 445.249 1746.57 447.945C1751.03 454.722 1755.04 461.577 1758.58 468.355C1760.35 471.744 1761.97 475.133 1763.59 478.521C1764.36 480.139 1765.13 481.833 1765.82 483.528C1767.29 486.839 1768.67 490.074 1769.91 493.309C1770.6 494.927 1771.14 496.544 1771.75 498.161C1772.91 501.319 1774.07 504.4 1775.07 507.481C1776.53 511.948 1777.84 516.184 1778.92 520.266C1779.3 521.575 1779.61 522.808 1779.92 524.04C1780.31 525.349 1780.61 526.659 1780.92 527.891C1781.54 530.432 1782.15 532.82 1782.62 535.054C1783.23 537.749 1783.69 540.291 1784.16 542.679C1786.31 554 1786.85 560.932 1786.85 560.932Z" fill="#F8F8F0"/>
<path d="M591.766 613.537C592.151 624.781 583.061 633.87 571.892 633.87C560.722 633.87 551.478 624.396 552.017 613.074C552.71 598.98 552.787 578.878 549.937 556.696C549.013 549.687 547.857 542.371 546.317 535.054C532.759 469.818 491.238 396.419 373.84 396.419C245.118 396.419 206.14 474.208 195.278 535.054C193.892 542.602 192.967 549.841 192.351 556.696C191.427 567.864 191.272 577.877 191.504 585.964C191.812 597.054 182.799 606.143 171.629 606.143H38.7475C27.7318 606.143 18.873 597.285 18.873 586.272V584.885C18.873 574.026 27.5007 565.245 38.3623 565.014L140.816 562.858H142.357C149.675 556.003 154.22 551.69 161.461 544.989C161.461 544.989 161.692 544.758 161.769 544.681C162 541.446 162.308 538.212 162.693 535.054C163.618 526.582 165.081 518.572 166.853 510.87C167.392 508.79 167.932 506.711 168.471 504.708C169.549 500.549 170.782 496.621 172.168 492.693C174.864 484.991 177.946 477.674 181.412 470.82C183.184 467.354 184.956 464.042 186.882 460.807C188.499 458.111 190.117 455.493 191.812 452.951C199.053 442.091 207.218 432.387 216.077 423.915C217.618 422.374 219.158 420.911 220.776 419.448C222.625 417.676 224.628 415.982 226.553 414.441C228.479 412.824 230.405 411.207 232.408 409.666C234.411 408.126 236.414 406.585 238.417 405.199C240.419 403.736 242.422 402.349 244.502 400.963C248.585 398.113 252.822 395.572 256.981 393.107C258.291 392.414 259.601 391.644 260.91 390.95C261.912 390.334 262.99 389.718 263.991 389.256C265.686 388.332 267.458 387.408 269.153 386.56C273.544 384.25 277.934 382.17 282.325 380.322C284.713 379.243 287.024 378.242 289.412 377.318C296.422 374.468 303.201 372.004 309.672 370.001C314.833 368.307 319.686 366.843 324.308 365.688C325.464 365.38 326.619 365.072 327.698 364.841C328.853 364.533 329.932 364.302 331.01 363.994C333.167 363.532 335.247 362.992 337.25 362.607C338.251 362.376 339.175 362.145 340.1 361.991C342.95 361.375 345.492 360.836 347.88 360.451C348.034 360.451 348.111 360.374 348.265 360.374C350.499 359.989 352.502 359.681 354.197 359.449C355.352 359.218 356.431 359.141 357.355 358.987C357.586 358.987 357.74 358.91 357.971 358.91C360.359 358.602 362.748 358.448 365.136 358.448H366.599C369.064 358.448 371.452 358.525 373.84 358.602C378.693 358.833 383.392 359.064 387.937 359.449C392.559 359.835 397.027 360.374 401.418 360.99C403.498 361.221 405.578 361.529 407.658 361.837C409.892 362.222 412.126 362.607 414.282 362.992C418.519 363.84 422.602 364.687 426.608 365.688C436.545 368.076 445.943 371.079 454.725 374.545C456.496 375.238 458.268 375.932 459.963 376.702C466.896 379.629 473.367 382.863 479.529 386.406C481.686 387.639 483.766 388.871 485.846 390.18C487.772 391.413 489.698 392.568 491.546 393.877C495.244 396.342 498.864 399.037 502.331 401.733C504.026 403.042 505.72 404.429 507.338 405.815C508.956 407.202 510.573 408.588 512.191 410.051C513.809 411.438 515.349 412.901 516.813 414.364C517.969 415.443 519.047 416.521 520.126 417.599C521.589 419.14 523.053 420.603 524.439 422.143C525.903 423.684 527.29 425.224 528.599 426.764C534.146 433.234 539.23 439.935 543.852 446.789C544.237 447.252 544.545 447.791 544.853 448.253C544.93 448.33 545.007 448.407 544.93 448.484C546.086 450.101 547.164 451.719 548.166 453.413C549.09 454.877 549.937 456.263 550.785 457.726C551.17 458.342 551.478 459.036 551.94 459.652C554.328 463.811 556.562 467.893 558.642 472.052C559.489 473.823 560.414 475.595 561.261 477.366C562.108 479.138 562.879 480.832 563.649 482.604C564.496 484.375 565.267 486.223 565.96 487.995C567.193 490.845 568.348 493.771 569.427 496.621C570.197 498.624 570.967 500.549 571.661 502.552C573.355 507.404 574.973 512.179 576.437 516.877C577.207 519.65 578.054 522.423 578.747 525.118C579.518 527.814 580.211 530.51 580.904 533.205C581.059 533.821 581.213 534.438 581.367 535.054C582.445 539.829 583.524 544.45 584.371 548.994C584.91 551.613 585.372 554.155 585.835 556.696C586.374 559.546 586.836 562.319 587.298 565.091C587.683 567.864 588.068 570.56 588.454 573.255C588.685 575.027 588.916 576.798 589.147 578.57C590.225 587.119 590.842 594.975 591.227 601.984C591.535 606.143 591.689 610.071 591.766 613.537Z" fill="#F8F8F0"/>
<path d="M1714.75 272.649V341.966C1710.98 339.039 1707.2 336.498 1703.27 333.725C1667.68 309.618 1623.31 288.9 1572.47 272.109H1714.29C1714.29 272.109 1714.83 272.417 1714.83 272.649H1714.75Z" fill="#991A18"/>
<path d="M1714.21 272.109H1714.67V272.649" stroke="#1D1D1B" stroke-width="0.25" stroke-miterlimit="10"/>
<path d="M1722.76 348.282C1720.22 346.048 1717.45 343.969 1714.75 341.966V272.649C1740.09 302.455 1733.08 330.336 1722.76 348.359V348.282Z" fill="#86C2BE"/>
<path d="M89.3582 358.448H70.7163V413.055H89.3582V358.448Z" fill="#82616A"/>
<path d="M1738.17 535.054C1732.31 508.251 1720.14 483.913 1703.27 463.734C1700.19 459.96 1697.11 456.494 1693.64 453.105C1663.22 422.605 1621.23 403.582 1574.86 403.582C1572.09 403.582 1569.39 403.659 1566.69 403.813C1564.61 403.813 1562.53 404.044 1560.53 404.198C1559.45 404.275 1558.37 404.352 1557.3 404.506C1555.06 404.737 1552.83 404.968 1550.67 405.353C1544.82 406.2 1538.96 407.355 1533.34 408.819C1531.34 409.281 1529.33 409.82 1527.41 410.436C1525.25 411.052 1523.09 411.746 1520.94 412.516C1520.4 412.67 1519.86 412.824 1519.32 413.055C1517.55 413.671 1515.77 414.287 1514 415.057C1512.92 415.443 1511.92 415.828 1510.92 416.29C1509.07 416.983 1507.3 417.753 1505.61 418.6C1503.91 419.37 1502.22 420.141 1500.6 420.988C1499.37 421.527 1498.21 422.143 1497.06 422.759C1495.28 423.684 1493.59 424.685 1491.89 425.609C1489.66 426.841 1487.5 428.228 1485.35 429.614C1482.11 431.694 1478.95 433.85 1475.87 436.161C1474.33 437.239 1472.79 438.394 1471.25 439.627C1470.63 440.089 1470.02 440.628 1469.4 441.09C1467.32 442.784 1465.24 444.556 1463.24 446.404C1460.93 448.484 1458.69 450.563 1456.54 452.797C1455.92 453.413 1455.23 454.106 1454.61 454.722C1453.76 455.57 1452.92 456.494 1452.15 457.341C1451.22 458.342 1450.3 459.344 1449.45 460.422C1443.06 467.662 1437.28 475.441 1432.27 483.759C1430.88 485.915 1429.65 488.149 1428.42 490.382C1427.49 492.077 1426.57 493.771 1425.8 495.466C1422.49 501.781 1419.71 508.405 1417.4 515.183C1416.79 516.723 1416.25 518.263 1415.79 519.881C1415.63 520.112 1415.55 520.42 1415.55 520.651C1415.17 521.652 1414.86 522.654 1414.63 523.655C1414.55 523.886 1414.48 524.117 1414.48 524.348C1413.94 526.119 1413.47 527.891 1413.01 529.662C1412.47 531.434 1412.09 533.205 1411.7 535.054C1410.62 539.829 1409.85 544.681 1409.24 549.687C1408.85 552.306 1408.62 555.002 1408.39 557.697C1408.01 562.165 1407.85 566.401 1407.85 570.868V572.1C1408.54 663.83 1482.88 738 1574.86 738C1666.84 738 1741.94 663.137 1741.94 570.868C1741.94 558.545 1740.63 546.607 1738.17 535.054ZM1671.38 600.828C1670.53 603.601 1669.61 606.22 1668.53 608.838C1668.38 609.3 1668.15 609.685 1667.99 610.148C1666.99 612.381 1665.91 614.615 1664.83 616.771C1662.52 621.084 1659.98 625.32 1657.21 629.248C1656.21 630.712 1655.2 632.175 1654.05 633.562C1649.58 639.184 1644.57 644.344 1639.03 648.811C1637.18 650.352 1635.18 651.815 1633.25 653.201C1631.32 654.588 1629.32 655.897 1627.32 657.206C1624.54 658.824 1621.69 660.364 1618.69 661.828C1617.15 662.675 1615.61 663.368 1614.07 664.061C1612.6 664.677 1611.14 665.216 1609.68 665.679C1608.14 666.295 1606.6 666.834 1604.98 667.219C1603.36 667.758 1601.82 668.22 1600.2 668.605C1600.13 668.605 1600.05 668.682 1600.05 668.682C1592.04 670.762 1583.64 671.917 1574.86 671.917C1560.92 671.917 1547.74 669.144 1535.8 664.061C1535.8 663.907 1535.73 663.907 1535.73 663.907C1535.57 663.907 1535.42 664.061 1535.42 664.061C1526.56 660.056 1518.32 655.281 1510.77 648.811C1508.23 646.732 1505.84 644.498 1503.53 642.188C1502.68 641.34 1501.91 640.57 1501.06 639.723C1499.67 638.183 1498.29 636.642 1496.98 635.025C1495.98 633.793 1494.98 632.483 1493.97 631.251C1492.05 628.632 1490.2 625.937 1488.5 623.164C1486.04 619.082 1483.81 614.769 1481.88 610.379C1481.26 608.761 1480.65 607.144 1480.03 605.526C1478.8 602.446 1477.8 599.288 1477.03 596.053C1476.18 592.818 1475.49 589.506 1475.02 586.195C1474.18 581.188 1473.79 576.105 1473.79 570.868C1473.79 565.63 1474.18 560.47 1475.02 555.387C1475.33 553.769 1475.56 552.075 1475.95 550.458C1477.03 545.143 1478.49 539.983 1480.42 535.054C1482.11 530.587 1484.11 526.273 1486.43 522.114C1487.2 520.728 1487.97 519.419 1488.81 518.032C1490.35 515.568 1492.05 513.103 1493.74 510.716C1494.82 509.252 1495.9 507.866 1497.06 506.479C1499.06 504.092 1501.14 501.781 1503.45 499.548C1503.45 499.548 1503.47 499.496 1503.53 499.394C1505.14 497.622 1506.99 495.928 1508.76 494.464C1509.07 494.233 1509.3 494.002 1509.61 493.848C1510 493.54 1510.31 493.232 1510.61 493.001C1511.61 492.154 1512.69 491.384 1513.69 490.536C1514.93 489.612 1516.16 488.688 1517.39 487.918C1518.55 487.071 1519.7 486.3 1520.94 485.53C1522.17 484.76 1523.32 483.99 1524.56 483.297C1525.87 482.603 1527.1 481.91 1528.33 481.217C1534.03 478.29 1540.04 475.903 1546.28 473.977C1548.36 473.361 1550.52 472.822 1552.67 472.36C1556.99 471.282 1561.38 470.588 1565.85 470.28C1567.31 470.126 1568.77 469.972 1570.31 469.972C1571.08 469.895 1571.85 469.818 1572.62 469.895H1574.86C1577.48 469.895 1580.1 469.972 1582.64 470.203C1586.95 470.434 1591.19 471.051 1595.27 471.898C1595.58 471.898 1595.89 471.975 1596.2 472.129C1597.12 472.283 1597.97 472.437 1598.89 472.668C1600.36 473.053 1601.9 473.438 1603.36 473.9C1604.21 474.131 1604.98 474.362 1605.83 474.67C1608.06 475.364 1610.22 476.134 1612.37 477.058C1614.76 478.059 1617.15 479.061 1619.38 480.293C1619.92 480.524 1620.46 480.755 1621 481.063C1621.54 481.371 1622.08 481.602 1622.54 481.833C1623.39 482.295 1624.24 482.68 1625.01 483.22C1627.16 484.452 1629.32 485.761 1631.32 487.148C1632.63 488.072 1633.94 488.996 1635.25 489.92H1635.33C1637.95 491.846 1640.41 493.848 1642.88 496.082C1648.19 500.934 1653.05 506.402 1657.21 512.333C1660.06 516.261 1662.6 520.42 1664.83 524.81C1665.99 527.044 1666.99 529.277 1667.99 531.511C1668.22 532.05 1668.45 532.666 1668.68 533.282C1668.84 533.59 1668.99 533.975 1669.15 534.283C1669.22 534.592 1669.38 534.823 1669.46 535.054C1669.53 535.285 1669.61 535.516 1669.69 535.824C1669.84 536.209 1669.99 536.594 1670.07 536.979C1670.53 538.211 1671 539.444 1671.38 540.753C1672.38 543.988 1673.23 547.223 1673.85 550.535C1675.16 557.081 1675.85 563.936 1675.85 570.868C1675.85 577.799 1675.16 584.577 1673.85 591.201C1673.23 594.436 1672.38 597.67 1671.38 600.828Z" fill="#3C3C3B"/>
<path d="M1673.85 550.535C1673.23 547.223 1672.38 543.988 1671.38 540.753C1671 539.444 1670.53 538.212 1670.07 536.979C1669.99 536.594 1669.84 536.209 1669.69 535.824C1669.61 535.593 1669.46 535.285 1669.38 535.054C1669.3 534.823 1669.22 534.515 1669.15 534.284C1668.99 533.976 1668.84 533.59 1668.69 533.282C1668.45 532.666 1668.22 532.05 1667.99 531.511C1666.99 529.277 1665.99 527.044 1664.83 524.81C1662.6 520.42 1660.06 516.261 1657.21 512.333C1653.05 506.403 1648.19 500.934 1642.88 496.082C1640.41 493.848 1637.95 491.846 1635.33 489.92H1635.25C1633.94 488.996 1632.63 488.072 1631.32 487.148C1629.24 485.761 1627.16 484.452 1625.01 483.22C1624.24 482.681 1623.39 482.296 1622.54 481.833C1622.08 481.602 1621.54 481.371 1621 481.063C1620.54 480.755 1620.08 480.524 1619.54 480.293H1619.38C1617.15 479.061 1614.76 478.059 1612.37 477.058C1610.22 476.134 1608.06 475.364 1605.83 474.671C1604.98 474.363 1604.21 474.131 1603.36 473.9C1601.9 473.438 1600.36 473.053 1598.89 472.668C1597.97 472.437 1597.12 472.283 1596.2 472.129C1595.89 471.975 1595.58 471.898 1595.27 471.898C1591.19 471.051 1586.95 470.435 1582.64 470.203C1580.1 469.895 1577.56 469.818 1574.94 469.818C1574.17 469.818 1573.4 469.818 1572.63 469.895C1571.85 469.818 1571.08 469.895 1570.31 469.972C1568.77 469.972 1567.31 470.126 1565.85 470.28C1561.38 470.589 1556.99 471.282 1552.67 472.36C1550.52 472.822 1548.36 473.361 1546.28 473.977C1539.96 475.749 1533.95 478.213 1528.33 481.217C1527.1 481.91 1525.87 482.604 1524.56 483.297C1523.32 483.99 1522.17 484.76 1520.94 485.53C1519.7 486.301 1518.55 487.071 1517.39 487.918C1516.16 488.688 1514.93 489.612 1513.7 490.537C1512.69 491.384 1511.62 492.154 1510.61 493.001C1510.31 493.232 1510 493.54 1509.61 493.848C1509.3 494.002 1509.07 494.233 1508.76 494.465C1506.99 496.082 1505.22 497.699 1503.53 499.394C1503.53 499.394 1503.5 499.445 1503.45 499.548C1501.14 501.781 1499.06 504.092 1497.06 506.48C1495.9 507.866 1494.82 509.252 1493.74 510.716C1492.05 513.103 1490.35 515.568 1488.81 518.033C1487.97 519.419 1487.2 520.728 1486.43 522.115C1484.11 526.274 1482.11 530.587 1480.42 535.054C1478.49 539.983 1477.03 545.143 1475.95 550.458C1475.56 552.075 1475.33 553.77 1475.02 555.387C1474.25 560.393 1473.87 565.553 1473.87 570.791C1473.87 576.028 1474.25 581.188 1475.02 586.195C1475.56 589.507 1476.26 592.818 1477.03 596.053C1477.87 599.288 1478.88 602.446 1480.03 605.527C1480.65 607.144 1481.26 608.761 1481.88 610.379C1483.81 614.769 1486.04 619.082 1488.51 623.164C1490.2 625.937 1492.05 628.632 1493.97 631.251C1494.98 632.483 1495.98 633.793 1496.98 635.025C1498.29 636.642 1499.68 638.183 1501.06 639.723C1501.91 640.57 1502.68 641.341 1503.53 642.188C1505.84 644.498 1508.23 646.732 1510.77 648.811C1518.24 654.973 1526.64 660.056 1535.73 663.907C1547.74 668.991 1560.99 671.763 1574.94 671.763C1583.56 671.763 1592.04 670.685 1600.05 668.682C1600.05 668.682 1600.05 668.605 1600.2 668.605C1601.82 668.22 1603.36 667.758 1604.98 667.219C1606.52 666.757 1608.14 666.218 1609.68 665.679C1612.76 664.523 1615.76 663.291 1618.69 661.828C1621.7 660.364 1624.55 658.824 1627.32 657.207C1629.32 655.897 1631.32 654.588 1633.25 653.202C1635.18 651.815 1637.18 650.352 1639.03 648.811C1644.57 644.344 1649.58 639.184 1654.05 633.562C1655.2 632.175 1656.21 630.712 1657.21 629.249C1660.13 625.321 1662.6 621.162 1664.83 616.771C1665.91 614.615 1666.99 612.381 1667.99 610.148C1668.15 609.686 1668.38 609.301 1668.53 608.838C1669.61 606.22 1670.53 603.601 1671.38 600.828C1672.38 597.671 1673.23 594.436 1673.85 591.201C1675.23 584.577 1675.93 577.8 1675.93 570.791C1675.93 563.782 1675.23 557.081 1673.85 550.535ZM1611.3 574.642C1611.06 577.029 1610.6 579.417 1609.91 581.651C1609.14 583.807 1608.29 585.964 1607.21 587.966C1606.9 588.582 1606.52 589.121 1606.21 589.661C1605.52 590.893 1604.67 592.125 1603.75 593.28C1603.28 593.82 1602.82 594.436 1602.36 594.975C1601.9 595.514 1601.36 596.053 1600.82 596.592C1599.97 597.44 1599.12 598.21 1598.2 598.98C1594.58 601.984 1590.34 604.294 1585.8 605.681C1584.64 605.989 1583.49 606.297 1582.33 606.528C1579.94 607.067 1577.48 607.298 1574.94 607.298C1554.68 607.298 1538.42 590.97 1538.42 570.791C1538.42 569.867 1538.42 568.942 1538.42 567.941C1538.5 567.094 1538.58 566.247 1538.73 565.399C1538.65 565.322 1538.73 565.168 1538.81 565.014C1538.88 564.167 1539.04 563.32 1539.27 562.55C1539.35 562.088 1539.42 561.548 1539.66 561.086C1539.73 560.701 1539.89 560.316 1539.96 559.931C1540.12 559.238 1540.35 558.545 1540.66 557.929C1540.89 557.312 1541.12 556.619 1541.43 556.003C1541.58 555.695 1541.66 555.387 1541.89 555.079C1542.27 554.232 1542.74 553.384 1543.28 552.537C1543.2 552.383 1543.28 552.306 1543.35 552.229C1543.51 551.921 1543.66 551.69 1543.89 551.382C1543.89 551.382 1543.92 551.331 1543.97 551.228C1544.59 550.381 1545.2 549.456 1545.82 548.686C1546.36 547.762 1547.13 546.915 1547.9 546.145C1548.21 545.76 1548.59 545.374 1548.98 544.989C1551.06 542.91 1553.37 541.061 1555.83 539.598C1556.91 538.982 1557.99 538.289 1559.14 537.827C1560.61 537.056 1562.23 536.44 1563.84 535.901C1564.92 535.516 1566 535.285 1567.16 535.054H1567.31C1569.7 534.438 1572.24 534.207 1574.86 534.207C1576.09 534.207 1577.25 534.207 1578.48 534.438C1579.87 534.515 1581.25 534.746 1582.56 535.054C1583.64 535.285 1584.64 535.516 1585.64 535.901C1586.8 536.209 1587.88 536.671 1588.96 537.133C1590.11 537.518 1591.19 538.058 1592.19 538.674C1595.35 540.291 1598.2 542.371 1600.67 544.989C1601.51 545.76 1602.28 546.607 1603.05 547.531C1603.05 547.531 1602.98 547.531 1603.05 547.608C1603.82 548.455 1604.52 549.379 1605.13 550.381C1605.83 551.382 1606.44 552.383 1606.98 553.461C1608.21 555.695 1609.22 558.16 1609.91 560.701C1610.22 561.626 1610.45 562.55 1610.6 563.474C1610.91 564.629 1611.06 565.862 1611.22 567.094C1611.37 568.326 1611.45 569.559 1611.45 570.791C1611.45 572.1 1611.37 573.409 1611.22 574.642H1611.3Z" fill="#D4D3C7"/>
<path d="M1611.45 570.868C1611.45 591.047 1595.04 607.298 1574.78 607.298C1554.52 607.298 1538.35 591.047 1538.35 570.868C1538.35 550.689 1554.6 534.207 1574.78 534.207C1594.96 534.207 1611.45 550.612 1611.45 570.868Z" fill="#FAFAF0"/>
<path d="M536.071 556.696C535.84 553.769 535.532 550.92 535.147 548.07C534.839 545.99 534.531 543.834 534.146 541.754C533.76 539.521 533.298 537.287 532.836 535.054C532.451 533.128 531.989 531.28 531.527 529.431C530.91 527.198 530.371 524.964 529.678 522.731C527.29 514.644 524.285 506.788 520.665 499.24C519.741 497.237 518.816 495.312 517.738 493.386C509.957 478.521 500.02 464.966 488.234 453.105C457.96 422.605 415.977 403.582 369.604 403.582C366.83 403.582 364.134 403.659 361.438 403.813C359.512 403.813 357.586 403.967 355.661 404.198C352.887 404.352 350.114 404.66 347.418 405.045C346.109 405.276 344.799 405.43 343.489 405.584C343.412 405.584 343.258 405.661 343.181 405.661C341.333 405.969 339.407 406.277 337.558 406.662C336.094 406.893 334.631 407.201 333.167 407.587C331.318 407.972 329.315 408.511 327.467 408.896C323.23 410.051 318.993 411.283 314.91 412.747C312.445 413.594 309.98 414.441 307.592 415.443C305.666 416.213 303.741 417.06 301.815 417.907C300.12 418.677 298.425 419.448 296.808 420.218C295.19 420.988 293.649 421.758 292.109 422.605C288.796 424.3 285.561 426.148 282.479 428.151C281.401 428.69 280.4 429.383 279.321 430.076C276.471 431.848 273.698 433.773 271.079 435.699C269.153 437.085 267.304 438.548 265.455 440.089C262.759 442.091 260.217 444.325 257.752 446.558C255.98 448.176 254.208 449.87 252.514 451.565C250.511 453.49 248.585 455.493 246.736 457.572C246.043 458.342 245.35 459.036 244.656 459.806C243.193 461.346 241.883 462.963 240.574 464.581C238.956 466.506 237.338 468.509 235.875 470.511C234.026 472.899 232.331 475.364 230.713 477.828C229.096 480.216 227.555 482.68 226.091 485.145C224.32 488.149 222.625 491.153 221.084 494.233C219.852 496.544 218.696 498.932 217.618 501.319C216.616 503.476 215.692 505.632 214.845 507.789C213.92 509.945 213.073 512.179 212.303 514.412C211.532 516.646 210.762 518.88 210.069 521.19C209.683 522.268 209.375 523.424 209.067 524.579C208.682 525.734 208.374 526.89 208.143 528.045C207.527 530.355 206.987 532.666 206.448 535.054C205.909 537.056 205.524 539.059 205.139 541.138C204.753 543.295 204.445 545.528 204.137 547.685C204.06 548.378 203.906 549.148 203.829 549.841C203.598 552.152 203.29 554.386 203.136 556.696C202.982 557.004 202.982 557.389 202.982 557.697C202.596 562.165 202.442 566.401 202.442 570.868C202.442 663.137 277.241 738 369.604 738C461.966 738 536.688 663.137 536.688 570.868C536.688 566.093 536.534 561.317 536.071 556.696ZM467.82 593.896C467.435 595.745 466.896 597.516 466.357 599.365C465.895 600.982 465.432 602.6 464.893 604.14C464.431 605.758 463.815 607.375 463.121 608.915C462.582 610.225 462.043 611.534 461.427 612.843C460.81 614.153 460.194 615.462 459.501 616.771C458.422 618.928 457.267 621.084 455.88 623.087C455.495 623.857 455.033 624.627 454.494 625.397C454.032 626.168 453.492 626.938 452.953 627.708C452.029 629.171 451.027 630.635 449.872 632.021C449.487 632.483 449.178 633.022 448.716 633.484C447.484 635.179 446.097 636.796 444.634 638.414C439.78 643.805 434.311 648.657 428.38 652.816C427.609 653.355 426.839 653.895 426.069 654.434C425.992 654.511 425.838 654.588 425.76 654.588C423.141 656.436 420.522 658.131 417.749 659.594C416.285 660.364 414.822 661.134 413.281 661.905C411.818 662.675 410.354 663.368 408.813 664.061C405.27 665.525 401.572 666.834 397.798 667.835C396.026 668.374 394.177 668.913 392.328 669.221C385.01 670.993 377.384 671.917 369.604 671.917C355.738 671.917 342.334 669.144 330.394 664.061C330.163 663.83 330.163 664.061 330.163 664.061C327.313 662.675 324.462 661.288 321.535 659.594H321.458C318.608 658.054 315.835 656.359 313.216 654.588C310.519 652.816 307.977 650.814 305.512 648.811C305.358 648.657 305.281 648.58 305.127 648.426C303.741 647.271 302.354 646.039 300.967 644.806C299.504 643.497 298.04 642.034 296.731 640.57C295.19 638.953 293.649 637.335 292.263 635.641C291.184 634.255 290.106 632.868 289.104 631.482C288.257 630.481 287.41 629.402 286.639 628.324C285.869 627.246 285.176 626.168 284.482 625.012C283.866 624.088 283.25 623.164 282.711 622.163C281.555 620.468 280.554 618.543 279.475 616.617C278.859 615.231 278.32 613.999 277.626 612.689C277.318 612.073 277.087 611.457 276.856 610.841C276.086 609.069 275.392 607.298 274.776 605.526C274.468 604.833 274.314 604.294 274.16 603.755C274.083 603.524 274.083 603.293 274.006 603.062C273.698 602.446 273.467 601.907 273.313 601.29C273.236 601.136 273.236 600.982 273.158 600.828C273.004 600.366 272.85 599.827 272.696 599.288C272.542 598.672 272.388 598.056 272.311 597.439C272.157 597.054 272.003 596.669 271.926 596.284C271.772 595.822 271.618 595.36 271.541 594.898C271.156 593.588 270.848 592.202 270.616 590.893C270.308 589.352 270 587.889 269.769 586.349V586.118L269.538 584.731C269.384 583.576 269.23 582.344 269.153 581.111C268.768 577.799 268.537 574.334 268.537 570.868C268.537 567.864 268.691 564.783 269.076 561.779C269.076 561.24 269.153 560.701 269.23 560.162C269.384 559.007 269.538 557.851 269.769 556.696C269.923 555.002 270.154 553.384 270.462 551.767C270.539 550.997 270.693 550.226 270.925 549.533C271.079 548.301 271.387 547.069 271.695 545.913C272.234 543.911 272.85 541.831 273.467 539.829C273.852 538.674 274.237 537.595 274.622 536.44C274.776 535.978 274.93 535.516 275.161 535.054C276.163 532.281 277.318 529.662 278.628 527.044C279.013 526.196 279.475 525.349 279.937 524.502C281.247 521.729 282.788 519.111 284.405 516.569C287.178 512.256 290.26 508.174 293.649 504.323C295.036 502.706 296.576 501.088 298.117 499.548C298.194 499.471 298.271 499.394 298.348 499.317C299.119 498.469 299.966 497.699 300.813 496.929C301.661 496.159 302.508 495.389 303.432 494.618C304.049 494.002 304.742 493.463 305.358 493.001C306.051 492.462 306.668 491.923 307.284 491.461C307.9 490.922 308.594 490.459 309.287 489.92C309.903 489.381 310.519 488.919 311.136 488.534C312.445 487.61 313.755 486.685 315.141 485.838C317.452 484.298 319.84 482.912 322.305 481.602C324.308 480.524 326.388 479.523 328.468 478.598C329.084 478.29 329.778 478.059 330.394 477.828C331.087 477.597 331.78 477.366 332.397 477.058C333.475 476.596 334.477 476.211 335.478 475.826C336.017 475.595 336.557 475.364 337.173 475.287C337.635 475.056 338.097 474.902 338.559 474.825C338.867 474.67 339.176 474.516 339.484 474.439C339.792 474.362 340.1 474.285 340.485 474.285C341.795 473.823 343.104 473.361 344.414 472.976C345.8 472.591 347.187 472.283 348.574 472.052C348.574 472.052 348.625 472.026 348.728 471.975C348.728 471.975 349.036 471.898 349.19 471.898H349.498C352.733 471.205 355.969 470.742 359.204 470.357C360.899 470.203 362.594 470.049 364.365 469.972C366.06 469.972 367.755 469.895 369.527 469.895C370.99 469.895 372.377 469.972 373.763 469.972C374.996 470.049 376.151 470.126 377.384 470.203C377.692 470.126 377.923 470.126 378.154 470.203C379.618 470.357 381.081 470.588 382.545 470.742C383.392 470.819 384.24 470.896 385.164 471.051C386.089 471.205 387.013 471.359 387.86 471.59C388.4 471.667 388.862 471.744 389.324 471.821C391.25 472.129 393.176 472.591 395.101 473.053C396.565 473.438 398.029 473.823 399.492 474.285H399.569C400.802 474.747 402.034 475.133 403.267 475.672C404.422 476.057 405.655 476.519 406.887 476.981C407.042 476.981 407.196 476.981 407.35 477.212C408.351 477.597 409.353 477.982 410.354 478.444C410.585 478.521 410.739 478.598 410.97 478.752C412.742 479.446 414.437 480.293 416.054 481.294C416.748 481.679 417.441 481.987 418.134 482.372C418.596 482.603 419.136 482.835 419.598 483.143C420.368 483.528 421.139 483.99 421.909 484.452C421.986 484.529 422.063 484.529 422.14 484.606C424.836 486.223 427.455 487.995 429.92 489.92C432.539 491.769 435.004 493.848 437.392 496.082H437.469C438.625 497.16 439.858 498.315 440.936 499.471C442.091 500.626 443.247 501.704 444.248 502.86C445.25 503.861 446.251 504.939 447.099 506.094C447.176 506.248 447.253 506.325 447.407 506.479V506.711C447.407 506.711 448.1 507.481 448.485 507.866C449.024 508.482 449.487 509.175 449.949 509.868C451.027 511.178 452.029 512.487 452.876 513.873C453.492 514.721 454.109 515.568 454.648 516.492C454.725 516.569 454.802 516.723 454.879 516.8C455.495 517.724 456.034 518.726 456.497 519.727C456.959 520.497 457.421 521.267 457.883 522.037C458.422 522.808 458.808 523.655 459.27 524.502C459.963 525.734 460.579 527.044 461.196 528.43C462.197 530.587 463.121 532.82 463.969 535.054C464.2 535.593 464.431 536.055 464.508 536.594C465.047 537.98 465.432 539.367 465.895 540.753C465.972 541.138 466.049 541.523 466.203 541.831C466.665 543.449 467.127 545.066 467.512 546.761C467.897 548.378 468.206 550.072 468.514 551.69C468.822 553.307 468.976 555.002 469.207 556.696H469.361C469.438 557.312 469.515 557.928 469.592 558.468C469.746 559.777 469.9 561.163 469.977 562.473C470.054 563.474 470.131 564.552 470.208 565.553C470.285 567.325 470.362 569.096 470.362 570.868C470.362 578.57 469.515 586.118 467.897 593.28C467.82 593.434 467.82 593.665 467.743 593.896H467.82Z" fill="#3C3835"/>
<path d="M470.285 565.553C470.208 564.552 470.131 563.474 470.054 562.472C469.977 561.163 469.823 559.777 469.669 558.467C469.669 557.928 469.515 557.312 469.438 556.696C469.207 555.002 468.976 553.307 468.591 551.69C468.282 550.072 467.974 548.378 467.589 546.76C467.204 545.066 466.742 543.449 466.28 541.831C466.126 541.523 466.048 541.138 465.971 540.753C465.509 539.367 465.124 537.98 464.585 536.594C464.508 536.055 464.277 535.593 464.046 535.054C463.198 532.82 462.274 530.586 461.272 528.43C460.656 527.044 460.04 525.734 459.347 524.502C458.884 523.655 458.499 522.807 457.96 522.037C457.036 520.189 456.034 518.494 454.956 516.8C454.879 516.723 454.802 516.569 454.725 516.492C454.185 515.568 453.569 514.72 452.953 513.873C452.106 512.487 451.104 511.178 450.026 509.868C449.563 509.175 449.101 508.482 448.562 507.866C448.254 507.404 447.869 506.941 447.484 506.479C447.33 506.325 447.252 506.248 447.175 506.094C446.251 505.016 445.327 503.938 444.325 502.859C443.324 501.704 442.168 500.626 441.013 499.471C439.934 498.315 438.702 497.16 437.546 496.082H437.469C435.081 493.848 432.616 491.769 429.997 489.92C428.688 488.996 427.378 488.072 426.068 487.147C424.836 486.3 423.526 485.453 422.217 484.606C422.14 484.529 422.063 484.529 421.986 484.452C421.215 483.99 420.445 483.528 419.675 483.142C419.213 482.834 418.673 482.603 418.211 482.372C416.825 481.679 415.438 480.832 414.128 480.293C413.127 479.754 412.048 479.214 411.047 478.752C410.816 478.598 410.662 478.521 410.431 478.444C409.429 477.982 408.428 477.597 407.427 477.212C407.272 477.058 407.118 477.058 406.964 476.981C405.732 476.519 404.499 476.057 403.344 475.672C402.111 475.132 400.879 474.747 399.646 474.362C398.183 473.9 396.642 473.438 395.178 473.053C393.252 472.591 391.327 472.129 389.401 471.821C388.014 471.513 386.628 471.204 385.241 471.05C382.93 470.665 380.619 470.357 378.231 470.203C378 470.126 377.769 470.126 377.461 470.203C376.228 470.126 375.073 470.049 373.84 469.972C372.454 469.818 371.067 469.818 369.603 469.818C367.832 469.818 366.137 469.895 364.442 469.972C362.67 470.049 360.976 470.203 359.281 470.357C355.892 470.665 352.579 471.204 349.267 471.898C349.113 471.898 348.959 471.898 348.805 471.975C348.805 471.975 348.753 472 348.65 472.052C347.264 472.283 345.877 472.591 344.491 472.976C342.796 473.438 341.178 473.9 339.561 474.439C338.79 474.67 338.02 474.901 337.25 475.286C336.633 475.364 336.094 475.595 335.555 475.826C333.86 476.365 332.165 477.058 330.471 477.828C329.854 478.059 329.161 478.29 328.545 478.598C326.465 479.523 324.385 480.524 322.382 481.602C319.917 482.911 317.529 484.298 315.218 485.838C313.832 486.685 312.522 487.61 311.213 488.534C310.596 488.919 309.98 489.381 309.364 489.92C308.67 490.459 307.977 490.921 307.361 491.461C306.745 491.923 306.128 492.462 305.435 493.001C304.819 493.463 304.126 494.002 303.509 494.618C302.585 495.389 301.738 496.159 300.89 496.929C300.043 497.699 299.195 498.469 298.425 499.317C298.348 499.394 298.271 499.471 298.194 499.548C296.653 501.088 295.113 502.705 293.726 504.323C290.337 508.174 287.255 512.256 284.482 516.569C283.404 518.417 282.325 520.189 281.324 522.114C280.862 522.884 280.476 523.655 280.014 524.502C279.552 525.349 279.09 526.196 278.705 527.044C277.395 529.662 276.24 532.281 275.238 535.054C275.007 535.516 274.853 535.978 274.699 536.44C274.314 537.595 273.929 538.673 273.543 539.829C272.927 541.831 272.311 543.911 271.772 545.913C271.464 547.146 271.233 548.301 271.001 549.533C270.77 550.226 270.616 550.997 270.539 551.767C269.923 554.539 269.538 557.312 269.307 560.162C269.23 560.701 269.153 561.24 269.153 561.779C268.844 564.706 268.69 567.71 268.69 570.791C268.69 574.256 268.844 577.722 269.23 581.111C269.384 582.806 269.615 584.5 269.846 586.117V586.348C270.077 587.889 270.385 589.352 270.693 590.893C270.924 592.202 271.232 593.588 271.618 594.898C271.695 595.36 271.849 595.822 272.003 596.284C272.157 597.285 272.465 598.286 272.773 599.288C272.927 599.827 273.081 600.366 273.235 600.828C273.235 600.982 273.235 601.136 273.389 601.29C273.621 602.137 273.929 602.985 274.237 603.755C274.391 604.371 274.622 604.987 274.853 605.526C275.469 607.298 276.163 609.069 276.933 610.841C278.628 614.769 280.553 618.543 282.787 622.163C283.327 623.164 283.943 624.088 284.559 625.012C285.252 626.168 285.946 627.246 286.716 628.324C288.488 630.866 290.337 633.33 292.34 635.641C293.726 637.335 295.267 638.953 296.807 640.57C298.117 642.034 299.581 643.497 301.044 644.806C302.431 646.039 303.817 647.271 305.204 648.426C305.358 648.58 305.435 648.657 305.589 648.811C308.054 650.814 310.596 652.816 313.292 654.588C315.912 656.359 318.685 658.054 321.535 659.594H321.612C335.94 667.373 352.271 671.763 369.68 671.763C377.461 671.763 385.164 670.839 392.405 669.221C394.254 668.759 396.103 668.297 397.874 667.835C403.267 666.218 408.428 664.292 413.358 661.905C414.899 661.134 416.362 660.364 417.826 659.594C420.599 658.131 423.218 656.436 425.837 654.588C425.914 654.588 426.068 654.511 426.145 654.434C426.916 653.895 427.686 653.355 428.456 652.816C434.388 648.657 439.857 643.805 444.71 638.414C445.635 637.258 446.636 636.103 447.561 634.948C448.023 634.486 448.408 634.023 448.793 633.484C449.255 633.022 449.563 632.483 449.949 632.021C451.104 630.635 452.106 629.171 453.03 627.708C453.569 626.938 454.108 626.167 454.571 625.397C455.11 624.627 455.572 623.857 455.957 623.087C457.19 621.084 458.345 619.005 459.578 616.771C460.271 615.462 460.887 614.152 461.504 612.843C462.12 611.534 462.659 610.224 463.198 608.915C463.892 607.375 464.508 605.757 464.97 604.14C465.355 603.062 465.74 601.906 466.048 600.828C466.203 600.366 466.28 599.827 466.434 599.365C466.973 597.516 467.512 595.745 467.897 593.896C467.974 593.665 467.974 593.434 468.051 593.28C469.746 586.04 470.67 578.57 470.67 570.791C470.67 569.019 470.439 567.325 470.362 565.553H470.285ZM404.499 581.804C403.267 585.732 401.341 589.429 398.876 592.664C398.337 593.357 397.874 594.05 397.258 594.667C396.719 595.36 396.18 595.976 395.486 596.592C394.639 597.439 393.715 598.286 392.79 599.057C391.789 599.904 390.633 600.751 389.555 601.444C388.939 601.829 388.322 602.214 387.629 602.6C386.705 603.139 385.703 603.678 384.702 604.063C383.315 604.679 381.929 605.218 380.465 605.68C379.618 605.988 378.77 606.22 377.846 606.374C377.538 606.528 377.23 606.605 376.922 606.605C376.382 606.759 375.843 606.836 375.304 606.913C375.15 606.913 375.073 606.913 374.996 606.913C374.148 607.067 373.301 607.144 372.454 607.221C371.452 607.298 370.528 607.298 369.603 607.298C349.421 607.298 333.167 590.97 333.167 570.791C333.167 569.866 333.167 568.942 333.244 567.941C333.321 567.094 333.398 566.246 333.552 565.399C333.475 565.322 333.552 565.168 333.629 565.014C333.706 564.167 333.86 563.32 334.091 562.549C334.168 562.087 334.245 561.548 334.476 561.086C334.553 560.701 334.708 560.316 334.785 559.931C334.939 559.238 335.17 558.544 335.478 557.928C335.709 557.312 335.94 556.619 336.248 556.003C336.402 555.695 336.479 555.387 336.71 555.079C337.096 554.231 337.558 553.384 338.097 552.537C338.02 552.383 338.097 552.306 338.174 552.229C338.328 551.921 338.482 551.69 338.713 551.382C338.713 551.382 338.739 551.33 338.79 551.228C339.407 550.38 340.023 549.456 340.639 548.686C341.178 547.762 341.949 546.915 342.719 546.144C343.027 545.759 343.412 545.374 343.797 544.989C345.877 542.91 348.188 541.061 350.653 539.598C351.732 538.982 352.81 538.288 353.966 537.826C355.429 537.056 357.047 536.44 358.665 535.901C359.743 535.516 360.822 535.285 361.9 535.054H362.131C363.364 534.745 364.596 534.591 365.829 534.437C367.061 534.283 368.371 534.206 369.603 534.206C370.836 534.206 372.068 534.206 373.301 534.437C373.301 534.437 373.352 534.437 373.455 534.437C373.455 534.437 373.455 534.514 373.532 534.437C374.765 534.591 376.074 534.823 377.307 535.054C378.385 535.285 379.387 535.516 380.388 535.901C381.543 536.209 382.699 536.594 383.777 537.133C384.856 537.595 385.934 538.057 386.936 538.673C388.014 539.213 389.016 539.752 390.017 540.522C399.8 546.992 406.271 558.159 406.271 570.791C406.271 574.642 405.655 578.338 404.499 581.804Z" fill="#D4D3C7"/>
<path d="M406.117 570.868C406.117 591.047 389.709 607.298 369.45 607.298C349.19 607.298 333.013 591.047 333.013 570.868C333.013 550.689 349.267 534.207 369.45 534.207C389.632 534.207 406.117 550.612 406.117 570.868Z" fill="#FAFAF0"/>
<path d="M1716.6 458.882L1703.27 463.734C1700.19 459.96 1697.11 456.494 1693.64 453.105C1663.22 422.606 1621.23 403.582 1574.86 403.582C1572.09 403.582 1569.39 403.659 1566.69 403.813C1564.61 403.813 1562.53 404.044 1560.53 404.198C1559.45 404.275 1558.37 404.352 1557.3 404.506C1555.06 404.737 1552.83 404.968 1550.67 405.353C1544.82 406.2 1538.96 407.356 1533.34 408.819C1531.34 409.281 1529.33 409.82 1527.41 410.436C1525.25 411.053 1523.09 411.746 1520.94 412.516C1520.4 412.67 1519.86 412.824 1519.32 413.055C1517.55 413.671 1515.77 414.287 1514 415.058C1512.92 415.443 1511.92 415.828 1510.92 416.29C1509.07 416.983 1507.3 417.753 1505.61 418.601C1503.91 419.371 1502.22 420.141 1500.6 420.988C1499.44 421.527 1498.21 422.143 1497.06 422.76C1495.28 423.684 1493.59 424.685 1491.89 425.609C1489.66 426.842 1487.5 428.228 1485.35 429.614C1482.11 431.694 1478.95 433.85 1475.87 436.161C1474.25 437.239 1472.79 438.395 1471.25 439.627C1470.63 440.089 1470.02 440.628 1469.4 441.09C1467.24 442.785 1465.24 444.556 1463.24 446.405C1460.93 448.484 1458.69 450.564 1456.54 452.797C1455.84 453.413 1455.23 454.029 1454.61 454.723C1453.76 455.57 1452.92 456.494 1452.15 457.341C1451.22 458.343 1450.3 459.344 1449.45 460.422C1443.06 467.662 1437.28 475.441 1432.27 483.759C1430.88 485.915 1429.65 488.149 1428.42 490.383C1427.5 492.077 1426.57 493.771 1425.8 495.466C1422.49 501.781 1419.71 508.405 1417.4 515.183C1416.79 516.723 1416.25 518.264 1415.79 519.881C1415.63 520.112 1415.56 520.42 1415.56 520.651C1415.17 521.652 1414.86 522.654 1414.63 523.655C1414.55 523.886 1414.48 524.117 1414.48 524.348C1413.86 526.12 1413.4 527.891 1413.01 529.662C1412.47 531.434 1412.09 533.205 1411.7 535.054C1410.63 539.829 1409.85 544.681 1409.24 549.688C1408.85 552.306 1408.62 555.002 1408.39 557.698C1408.01 562.165 1407.85 566.401 1407.85 570.868V572.1L1391.21 578.262C1392.45 566.555 1394.83 551.536 1399.15 535.054C1415.32 473.977 1459.16 393.492 1577.71 393.492C1648.81 393.492 1691.26 422.451 1716.6 458.882Z" fill="#3C3C3B"/>
<path d="M549.937 556.696H536.071C535.84 553.769 535.532 550.92 535.147 548.07C534.839 545.99 534.531 543.834 534.146 541.754C533.76 539.521 533.298 537.287 532.836 535.054C532.451 533.128 531.989 531.28 531.527 529.431C530.91 527.198 530.294 524.964 529.678 522.731C527.29 514.644 524.285 506.788 520.665 499.24C519.741 497.237 518.816 495.312 517.738 493.386C509.957 478.521 500.02 464.966 488.234 453.105C457.96 422.605 415.977 403.582 369.604 403.582C366.83 403.582 364.134 403.659 361.438 403.813C359.512 403.813 357.586 403.967 355.661 404.198C352.887 404.352 350.114 404.66 347.418 405.045C346.109 405.199 344.799 405.43 343.489 405.584C343.412 405.584 343.258 405.661 343.181 405.661C341.333 405.969 339.407 406.277 337.558 406.662C336.094 406.893 334.631 407.201 333.167 407.586C331.241 407.972 329.315 408.434 327.467 408.896C323.23 410.051 318.993 411.283 314.91 412.747C312.445 413.594 309.98 414.441 307.592 415.442C305.666 416.213 303.741 417.06 301.815 417.907C300.12 418.6 298.502 419.37 296.808 420.218C295.19 420.988 293.649 421.758 292.109 422.605C288.796 424.3 285.561 426.148 282.479 428.151C281.401 428.69 280.323 429.383 279.321 430.076C276.471 431.848 273.698 433.773 271.079 435.699C269.153 437.085 267.304 438.548 265.455 440.089C262.759 442.091 260.217 444.325 257.752 446.558C255.903 448.176 254.208 449.793 252.514 451.565C250.511 453.49 248.508 455.493 246.736 457.572C245.966 458.342 245.273 459.035 244.656 459.806C243.193 461.346 241.883 462.963 240.574 464.581C238.956 466.506 237.338 468.509 235.875 470.511C234.026 472.899 232.331 475.364 230.713 477.828C229.096 480.216 227.555 482.68 226.091 485.145C224.32 488.149 222.625 491.153 221.084 494.233C219.775 496.544 218.696 498.931 217.618 501.319C216.616 503.399 215.692 505.555 214.845 507.789C213.92 509.945 213.073 512.179 212.303 514.412C211.455 516.646 210.685 518.88 210.069 521.19C209.683 522.268 209.375 523.424 209.067 524.579C208.682 525.734 208.374 526.89 208.143 528.045C207.45 530.355 206.91 532.666 206.448 535.054C205.909 537.056 205.524 539.059 205.139 541.138C204.753 543.295 204.445 545.528 204.137 547.685C204.06 548.378 203.906 549.148 203.829 549.841C203.598 552.152 203.29 554.385 203.136 556.696H192.351C192.967 549.841 193.892 542.602 195.278 535.054C206.14 474.208 245.119 396.419 373.84 396.419C491.238 396.419 532.759 469.818 546.317 535.054C547.857 542.37 549.013 549.687 549.937 556.696Z" fill="#3C3C3B"/>
</g>
<defs>
<clipPath id="clip0_263_277">
<rect width="1836" height="738" fill="white"/>
</clipPath>
</defs>
</svg>
