<?xml version="1.0" encoding="utf-8"?>
<!-- Generator: Adobe Illustrator 28.1.0, SVG Export Plug-In . SVG Version: 6.00 Build 0)  -->
<svg version="1.1" xmlns="http://www.w3.org/2000/svg" xmlns:xlink="http://www.w3.org/1999/xlink" x="0px" y="0px"
	 viewBox="0 0 1920 1080" style="enable-background:new 0 0 1920 1080;" xml:space="preserve">
<g id="MAP-BATEAU">
	<polygon points="647.4,209.3 762.9,142.2 762.9,114.3 764.5,113.4 764.9,111.3 733.2,85.8 733.4,57.6 735.3,56.9 735.8,53.8 
		643.2,0 618,0 582.8,0 563.5,6.8 506.8,52.3 507.3,54.8 509.2,55.9 509.3,89.7 556,116.8 542.6,124.5 542.7,127 545.4,128.6 
		545.4,146.5 602.5,179.7 602.5,183.3 	"/>
</g>
<g id="MAP-VOITURE">
	<polygon points="1130.6,921.5 1370.9,781.6 1330.3,758.8 1330.3,748.1 1367.4,726.4 1367.4,723.6 1263,663.3 1245.1,673.7 
		1245.2,659.7 1251.3,656.2 1251.3,646.5 1179.4,605 1031.6,690.9 1031.5,700.6 1037.8,703.1 1037.8,750 940.8,809.1 	"/>
</g>
<g id="MAP-BUS">
	<path d="M1144,560.2l4.6-2.8v-7.5l-2.9-1.7l0-47l-0.4-0.2c0,0-0.4-4-2.5-5.5c-3.9-2.6-76.6-44.2-76.6-44.2s-1.9-1.4-7.6,2.1
		s-29.5,17-29.5,17s-6.7,4.1-7.4,14.3l42.9,24.9l-0.1,4.5l5.7,3.3l4-2.4l10.7,6.2l0,4.6l1.5,0.8l1.1-0.6l0.1-3.3l10.2,5.9l1.2-0.7
		l15.4,9l0,6l1.5,0.7l1.1-0.6l0-5.9l5-2.8l0.1,4.1l1.5,0.8l1.1-0.6v-7.4l-22.1-12.8c0,0,2.2-2.4,4.9-4s22.9-13.3,22.9-13.3l11,6.4
		v39.8l-2.9,1.9v7.5L1144,560.2z"/>
</g>
<g id="MAP-VELO">
	<path d="M1452.1,426.6l38-22.8l-1.3-0.9c-0.8-1.1,0.5-1.1,0.5-1.1l1.9,1.1l14.5-8.5l311.2,173.1l-53.6,32.2L1452.1,426.6z"/>
</g>
<g id="MAP-AVION">
	<path d="M801,1069.6l185.5-107.1l-1.3-38.7c-0.2,0.2,21.6-43.7,21.6-43.7l3.2-17.9l-105.7-61.1l-3.7,2.1l-14.8-8.2l-122.7,70.8
		v11.8l-3.9,7.3l-45.5,26.3l0.1-22.8l3.9-2.3l0.2-12.9l-4.2-2.3l10.5-15.1l6.1-3.3l0.3-8.2l-3.9-2.3l0.3-16.3l1.2-0.7l0.4-7.9
		l-6.8-7.7l-36.2-20.6v-5c0,0,5.4-3.6,17.9-4.7l-0.1-25l-0.3-0.9c0,0-26.9,1.8-33.5,19.3l0.1,24.4l-21.6,12.5l-7.2,7.7l-0.3,7.9
		l1.6,1.6l-0.1,15.8l-3.3,1.9l-0.3,8.2l7.1,4.1l8.5,15.1l-2.6,1.5l-0.3,12.9l4.4,2.5l-0.2,127.4l29.1,16.8l29-16.8l0.2-38.2l5.1,6.6
		l-1.6,37.2L801,1069.6z"/>
</g>
<g id="MAP-TRAIN1">
	<path d="M1134,0l133.9-0.2l264,152.1c0,0,38.6,21.1,33,72.3c-0.8,7.5-10.1,13.6-40.4,9.1c0,0-25-6.7-34.7-14.1c0,0-0.1,2.4-0.9,3
		s-3.2,1.9-3.2,1.9s-5,0.9-6.7-6.9c0,0-2.6,1.7-3.2,1.7c-1.6,0.9-8.6-5.1-5.7-11.3l-94.2-54.2c0,0,0.5,2.7-1.1,3.6
		c-1.6,0.9-3,1.7-3,1.7s-3.6,2.2-6.6-6.8c0,0-1.4,0.7-2.7,1.3c-2.3,0.7-9.2-3.9-6.3-11.3l-7.6-4.4c0,0-0.3,3.6-0.8,3.5l-3.2,1.9
		c0,0-5.6,1.2-7-6.8l-2.6,1.4c0,0-7.7,1.2-6.3-11.1l-4.3-2.6l-0.3-1.7l-1.8,0.7l-22-12.7c0,0-0.3,2-1.3,3c-1,1-2.8,1.6-2.8,1.6
		s-3.8,1.3-6.7-6.9l-2.4,1.3c0,0-6.8,2.1-6.9-10.4l-84.9-49.3l3.8-2.3v-2l-65-37.5L1134,0z"/>
</g>
<g id="MAP-BATEAU1">
	<path d="M69.2,289.4l18.5,12.4c0,0,30.9,5.9,79.1-21s86-55.4,86.6-56.6s5.7-6.6,6.1-8.9c0.5-2.3,3-10.6,2.2-22
		c0.3-12.4,0.1-17.4,0.1-17.4s0.6-4-8.1-8.4s-6.6-3.4-6.6-3.4l-0.4-7.7l-4-2.4l-1.5,0.9v-1.8l-4-2.4l-4.1,2.4v2.7l-2.5-1.5l-4,2.3
		l0,15.1L221,169l-13.3,4.7l-3,4.6l-5.1,0.6v1.5L170.9,194l-0.1-0.8l-4-2.4l-4,2.3v2.9l-2.6-1.5l-4,2.3l0,4.6l-44.2,25l-8.6,19.4
		c0,0-23.6,13.6-33,38.9L69.2,289.4z"/>
</g>
<g id="MAP-TRAIN2">
	<polygon points="889.2,63.6 852.1,42.4 852.1,39.5 835.4,29.9 835.4,0 1121.2,0 1198.9,45 1198.9,47 1192.4,50.7 1240.4,78.5 
		1255.8,104.8 1255.8,106.9 1251,109.5 1251,207.1 1243.3,211.3 1240.8,219.8 1221.7,230.8 1212.6,228.8 1197.7,237.7 1173.2,223.7 
		1171.1,224.7 1133.1,202.8 1133.1,200.7 1114.2,189.7 1099,198.1 1089.6,199.9 1070.7,188.9 1068.2,180.4 1066.8,181 1009.5,147.9 
		1009.5,146.3 1000.4,148.3 981.2,137.2 978.7,128.7 977.3,129.6 920,96.5 920,95.4 910.9,97.4 891.7,86.3 889.2,77.8 	"/>
</g>
<g id="MAP-BATEAU3">
	<path d="M464,98.1l1.6-8.6l0.8-14.1l0.2-0.6c0,0-0.4-17.4,0-17.1c0.4,0.3-1.4-3.6-4.5-5.6l0-9.8c0,0,0-1.1-2-3.2l0-7.1
		c0,0,0.1-3.1-6.9-6V20l-4-2.5l-1.5,0.9v-1.7l-4-2.4l-4,2.3v2.9l-2.6-1.5l-4,2.3l0,9.5L428,32l-1.1-0.5L414,37.2l-1.2,1.8l-6.9,3.3
		v6.1l-41.8,20.4l-1.6-1l-19.2,10.3l-1.7,3.7l-5.6,3.6l-6.8,15.1l-12.5,7.9L308,128c0,0-26.2,13.5-34.2,43.5
		c0,0,11.8,10.3,18.5,12.4s48.6-2.8,63.6-12.9c19.1-9.1,91.5-53.9,103.3-66"/>
</g>
</svg>
